<?xml version="1.0" encoding="UTF-8" standalone="no"?>
<!DOCTYPE svg PUBLIC "-//W3C//DTD SVG 1.1//EN" "http://www.w3.org/Graphics/SVG/1.1/DTD/svg11.dtd">
<svg xmlns="http://www.w3.org/2000/svg" version="1.1" viewBox="0.00 0.00 350.00 344.00">
<g stroke-width="2.00" fill="none" stroke-linecap="butt">
<path stroke="#8d8c8c" vector-effect="non-scaling-stroke" d="
  M 337.13 170.44
  A 162.18 162.18 0.0 0 0 174.95 8.26
  A 162.18 162.18 0.0 0 0 12.77 170.44
  A 162.18 162.18 0.0 0 0 174.95 332.62
  A 162.18 162.18 0.0 0 0 337.13 170.44"
/>
<path stroke="#8d8c8c" vector-effect="non-scaling-stroke" d="
  M 333.98 170.44
  A 159.03 159.03 0.0 0 0 174.95 11.41
  A 159.03 159.03 0.0 0 0 15.92 170.44
  A 159.03 159.03 0.0 0 0 174.95 329.47
  A 159.03 159.03 0.0 0 0 333.98 170.44"
/>
<path stroke="#8d8c8c" vector-effect="non-scaling-stroke" d="
  M 314.87 170.44
  A 139.92 139.92 0.0 0 0 174.95 30.52
  A 139.92 139.92 0.0 0 0 35.03 170.44
  A 139.92 139.92 0.0 0 0 174.95 310.36
  A 139.92 139.92 0.0 0 0 314.87 170.44"
/>
<path stroke="#8d8c8c" vector-effect="non-scaling-stroke" d="
  M 311.72 170.44
  A 136.77 136.77 0.0 0 0 174.95 33.67
  A 136.77 136.77 0.0 0 0 38.18 170.44
  A 136.77 136.77 0.0 0 0 174.95 307.21
  A 136.77 136.77 0.0 0 0 311.72 170.44"
/>
<path stroke="#8d8c8c" vector-effect="non-scaling-stroke" d="
  M 152.48 178.34
  C 140.90 173.20 150.12 154.63 161.91 162.97
  A 0.28 0.28 0.0 0 0 162.35 162.74
  L 162.37 159.70
  A 1.04 1.02 -77.2 0 0 161.78 158.75
  Q 155.83 155.92 150.34 158.65
  C 140.09 163.76 141.20 179.81 153.10 182.43
  Q 157.86 183.47 162.07 181.09
  A 0.48 0.45 -14.6 0 0 162.31 180.71
  Q 162.46 178.76 162.29 176.91
  A 0.05 0.05 0.0 0 0 162.21 176.88
  Q 157.19 180.44 152.48 178.34"
/>
<path stroke="#8d8c8c" vector-effect="non-scaling-stroke" d="
  M 182.97 173.82
  C 182.91 181.00 172.26 181.14 172.11 173.36
  Q 171.96 165.80 172.07 158.04
  Q 172.07 157.72 171.75 157.72
  L 168.56 157.74
  Q 168.33 157.75 168.33 157.98
  Q 168.25 165.33 168.38 173.45
  C 168.49 180.48 173.97 184.15 180.41 182.28
  Q 186.66 180.47 186.72 172.73
  Q 186.78 165.53 186.74 157.99
  A 0.27 0.27 0.0 0 0 186.47 157.72
  L 183.27 157.73
  Q 182.99 157.73 182.99 158.01
  Q 183.03 166.03 182.97 173.82"
/>
<path stroke="#8d8c8c" vector-effect="non-scaling-stroke" d="
  M 197.02 171.15
  A 0.36 0.36 0.0 0 1 197.38 170.79
  L 205.54 170.82
  A 0.36 0.36 0.0 0 0 205.90 170.46
  L 205.88 167.84
  A 0.36 0.36 0.0 0 0 205.52 167.48
  L 197.38 167.49
  A 0.36 0.36 0.0 0 1 197.02 167.13
  L 197.02 161.49
  A 0.36 0.36 0.0 0 1 197.38 161.13
  L 205.84 161.12
  A 0.36 0.36 0.0 0 0 206.20 160.76
  L 206.22 158.09
  A 0.36 0.36 0.0 0 0 205.86 157.73
  L 193.64 157.73
  A 0.36 0.36 0.0 0 0 193.28 158.09
  L 193.28 181.87
  A 0.36 0.36 0.0 0 0 193.64 182.23
  L 205.86 182.24
  A 0.36 0.36 0.0 0 0 206.22 181.88
  L 206.20 179.18
  A 0.36 0.36 0.0 0 0 205.84 178.82
  L 197.38 178.79
  A 0.36 0.36 0.0 0 1 197.02 178.43
  L 197.02 171.15"
/>
</g>
<path fill="#ffffff" d="
  M 0.00 0.00
  L 350.00 0.00
  L 350.00 344.00
  L 0.00 344.00
  L 0.00 0.00
  Z
  M 337.13 170.44
  A 162.18 162.18 0.0 0 0 174.95 8.26
  A 162.18 162.18 0.0 0 0 12.77 170.44
  A 162.18 162.18 0.0 0 0 174.95 332.62
  A 162.18 162.18 0.0 0 0 337.13 170.44
  Z"
/>
<path fill="#1a1919" d="
  M 337.13 170.44
  A 162.18 162.18 0.0 0 1 174.95 332.62
  A 162.18 162.18 0.0 0 1 12.77 170.44
  A 162.18 162.18 0.0 0 1 174.95 8.26
  A 162.18 162.18 0.0 0 1 337.13 170.44
  Z
  M 333.98 170.44
  A 159.03 159.03 0.0 0 0 174.95 11.41
  A 159.03 159.03 0.0 0 0 15.92 170.44
  A 159.03 159.03 0.0 0 0 174.95 329.47
  A 159.03 159.03 0.0 0 0 333.98 170.44
  Z"
/>
<path fill="#ffffff" d="
  M 333.98 170.44
  A 159.03 159.03 0.0 0 1 174.95 329.47
  A 159.03 159.03 0.0 0 1 15.92 170.44
  A 159.03 159.03 0.0 0 1 174.95 11.41
  A 159.03 159.03 0.0 0 1 333.98 170.44
  Z
  M 314.87 170.44
  A 139.92 139.92 0.0 0 0 174.95 30.52
  A 139.92 139.92 0.0 0 0 35.03 170.44
  A 139.92 139.92 0.0 0 0 174.95 310.36
  A 139.92 139.92 0.0 0 0 314.87 170.44
  Z"
/>
<path fill="#1a1919" d="
  M 314.87 170.44
  A 139.92 139.92 0.0 0 1 174.95 310.36
  A 139.92 139.92 0.0 0 1 35.03 170.44
  A 139.92 139.92 0.0 0 1 174.95 30.52
  A 139.92 139.92 0.0 0 1 314.87 170.44
  Z
  M 311.72 170.44
  A 136.77 136.77 0.0 0 0 174.95 33.67
  A 136.77 136.77 0.0 0 0 38.18 170.44
  A 136.77 136.77 0.0 0 0 174.95 307.21
  A 136.77 136.77 0.0 0 0 311.72 170.44
  Z"
/>
<path fill="#ffffff" d="
  M 311.72 170.44
  A 136.77 136.77 0.0 0 1 174.95 307.21
  A 136.77 136.77 0.0 0 1 38.18 170.44
  A 136.77 136.77 0.0 0 1 174.95 33.67
  A 136.77 136.77 0.0 0 1 311.72 170.44
  Z
  M 152.48 178.34
  C 140.90 173.20 150.12 154.63 161.91 162.97
  A 0.28 0.28 0.0 0 0 162.35 162.74
  L 162.37 159.70
  A 1.04 1.02 -77.2 0 0 161.78 158.75
  Q 155.83 155.92 150.34 158.65
  C 140.09 163.76 141.20 179.81 153.10 182.43
  Q 157.86 183.47 162.07 181.09
  A 0.48 0.45 -14.6 0 0 162.31 180.71
  Q 162.46 178.76 162.29 176.91
  A 0.05 0.05 0.0 0 0 162.21 176.88
  Q 157.19 180.44 152.48 178.34
  Z
  M 182.97 173.82
  C 182.91 181.00 172.26 181.14 172.11 173.36
  Q 171.96 165.80 172.07 158.04
  Q 172.07 157.72 171.75 157.72
  L 168.56 157.74
  Q 168.33 157.75 168.33 157.98
  Q 168.25 165.33 168.38 173.45
  C 168.49 180.48 173.97 184.15 180.41 182.28
  Q 186.66 180.47 186.72 172.73
  Q 186.78 165.53 186.74 157.99
  A 0.27 0.27 0.0 0 0 186.47 157.72
  L 183.27 157.73
  Q 182.99 157.73 182.99 158.01
  Q 183.03 166.03 182.97 173.82
  Z
  M 197.02 171.15
  A 0.36 0.36 0.0 0 1 197.38 170.79
  L 205.54 170.82
  A 0.36 0.36 0.0 0 0 205.90 170.46
  L 205.88 167.84
  A 0.36 0.36 0.0 0 0 205.52 167.48
  L 197.38 167.49
  A 0.36 0.36 0.0 0 1 197.02 167.13
  L 197.02 161.49
  A 0.36 0.36 0.0 0 1 197.38 161.13
  L 205.84 161.12
  A 0.36 0.36 0.0 0 0 206.20 160.76
  L 206.22 158.09
  A 0.36 0.36 0.0 0 0 205.86 157.73
  L 193.64 157.73
  A 0.36 0.36 0.0 0 0 193.28 158.09
  L 193.28 181.87
  A 0.36 0.36 0.0 0 0 193.64 182.23
  L 205.86 182.24
  A 0.36 0.36 0.0 0 0 206.22 181.88
  L 206.20 179.18
  A 0.36 0.36 0.0 0 0 205.84 178.82
  L 197.38 178.79
  A 0.36 0.36 0.0 0 1 197.02 178.43
  L 197.02 171.15
  Z"
/>
<path fill="#1a1919" d="
  M 152.48 178.34
  Q 157.19 180.44 162.21 176.88
  A 0.05 0.05 0.0 0 1 162.29 176.91
  Q 162.46 178.76 162.31 180.71
  A 0.48 0.45 -14.6 0 1 162.07 181.09
  Q 157.86 183.47 153.10 182.43
  C 141.20 179.81 140.09 163.76 150.34 158.65
  Q 155.83 155.92 161.78 158.75
  A 1.04 1.02 -77.2 0 1 162.37 159.70
  L 162.35 162.74
  A 0.28 0.28 0.0 0 1 161.91 162.97
  C 150.12 154.63 140.90 173.20 152.48 178.34
  Z"
/>
<path fill="#1a1919" d="
  M 172.11 173.36
  C 172.26 181.14 182.91 181.00 182.97 173.82
  Q 183.03 166.03 182.99 158.01
  Q 182.99 157.73 183.27 157.73
  L 186.47 157.72
  A 0.27 0.27 0.0 0 1 186.74 157.99
  Q 186.78 165.53 186.72 172.73
  Q 186.66 180.47 180.41 182.28
  C 173.97 184.15 168.49 180.48 168.38 173.45
  Q 168.25 165.33 168.33 157.98
  Q 168.33 157.75 168.56 157.74
  L 171.75 157.72
  Q 172.07 157.72 172.07 158.04
  Q 171.96 165.80 172.11 173.36
  Z"
/>
<path fill="#1a1919" d="
  M 197.02 171.15
  L 197.02 178.43
  A 0.36 0.36 0.0 0 0 197.38 178.79
  L 205.84 178.82
  A 0.36 0.36 0.0 0 1 206.20 179.18
  L 206.22 181.88
  A 0.36 0.36 0.0 0 1 205.86 182.24
  L 193.64 182.23
  A 0.36 0.36 0.0 0 1 193.28 181.87
  L 193.28 158.09
  A 0.36 0.36 0.0 0 1 193.64 157.73
  L 205.86 157.73
  A 0.36 0.36 0.0 0 1 206.22 158.09
  L 206.20 160.76
  A 0.36 0.36 0.0 0 1 205.84 161.12
  L 197.38 161.13
  A 0.36 0.36 0.0 0 0 197.02 161.49
  L 197.02 167.13
  A 0.36 0.36 0.0 0 0 197.38 167.49
  L 205.52 167.48
  A 0.36 0.36 0.0 0 1 205.88 167.84
  L 205.90 170.46
  A 0.36 0.36 0.0 0 1 205.54 170.82
  L 197.38 170.79
  A 0.36 0.36 0.0 0 0 197.02 171.15
  Z"
/>
</svg>
