<?xml version="1.0" encoding="UTF-8" standalone="no"?>
<!DOCTYPE svg PUBLIC "-//W3C//DTD SVG 1.1//EN" "http://www.w3.org/Graphics/SVG/1.1/DTD/svg11.dtd">
<svg xmlns="http://www.w3.org/2000/svg" version="1.1" viewBox="0.00 0.00 726.00 726.00">
<g stroke-width="2.00" fill="none" stroke-linecap="butt">
<path stroke="#8c8c8c" vector-effect="non-scaling-stroke" d="
  M 494.13 582.77
  C 504.44 578.61 516.22 580.42 525.91 586.85
  C 534.45 592.51 546.18 591.32 553.88 584.86
  C 561.19 578.73 567.82 571.76 574.70 564.59
  Q 581.49 557.51 583.28 552.30
  Q 586.17 543.90 582.99 535.44
  C 581.63 531.83 579.01 528.78 577.63 525.25
  C 568.84 502.84 582.29 480.81 606.23 478.08
  Q 606.27 478.08 611.75 478.04
  Q 624.50 477.95 631.49 468.76
  Q 635.26 463.80 637.91 453.97
  Q 640.14 445.72 642.15 437.91
  Q 644.56 428.54 644.62 423.45
  Q 644.72 413.82 637.25 406.36
  C 633.58 402.70 628.46 400.99 624.60 397.60
  C 607.97 382.96 608.26 358.55 625.85 344.69
  C 629.14 342.10 633.17 340.55 636.30 337.77
  Q 646.85 328.38 644.07 314.19
  Q 640.98 298.47 635.88 282.93
  Q 631.10 268.38 616.55 265.57
  C 612.22 264.74 607.75 265.62 603.31 264.79
  C 580.28 260.48 568.66 237.90 578.34 216.37
  C 579.66 213.43 581.93 210.85 583.01 207.82
  Q 588.22 193.17 577.27 181.42
  Q 570.12 173.73 560.78 164.61
  Q 554.98 158.95 551.12 156.53
  Q 541.55 150.51 530.31 154.24
  C 527.51 155.17 525.10 157.03 522.53 158.39
  C 501.44 169.60 476.78 157.70 472.68 134.07
  C 471.77 128.80 472.84 123.35 471.26 118.24
  Q 467.47 105.98 455.16 101.86
  Q 444.06 98.15 429.74 94.68
  Q 421.94 92.80 417.89 92.84
  Q 406.99 92.95 399.76 101.09
  C 396.79 104.42 395.13 108.82 392.29 112.23
  C 377.73 129.75 352.50 129.46 338.57 111.14
  C 336.18 107.99 334.64 104.12 332.02 101.20
  Q 322.54 90.62 308.32 93.43
  Q 293.58 96.34 277.30 101.53
  C 265.47 105.30 259.11 114.74 259.51 127.16
  C 260.33 152.53 234.88 170.34 211.50 159.48
  Q 208.19 157.94 204.74 155.82
  C 197.53 151.39 186.71 151.88 179.81 156.94
  Q 175.86 159.84 171.64 163.91
  Q 163.36 171.88 154.92 180.96
  C 145.97 190.60 144.39 202.04 151.65 213.33
  Q 153.97 216.93 155.20 221.03
  C 161.33 241.40 149.37 261.02 128.30 264.84
  C 122.93 265.81 117.46 264.57 112.23 266.25
  Q 100.33 270.07 96.24 281.95
  Q 92.34 293.25 88.42 310.21
  Q 86.53 318.38 87.32 323.28
  C 88.45 330.23 92.55 336.64 98.74 340.17
  Q 101.16 341.55 103.45 343.03
  C 123.08 355.65 124.92 382.81 106.83 397.83
  C 102.91 401.09 97.89 402.88 94.36 406.43
  Q 85.09 415.77 87.62 428.88
  Q 89.86 440.46 94.33 455.77
  Q 96.28 462.44 98.53 466.30
  Q 104.04 475.75 115.54 477.71
  C 117.78 478.10 120.16 478.00 122.44 477.98
  C 147.11 477.78 163.90 502.57 154.06 525.26
  C 152.00 530.02 148.54 534.02 147.57 539.25
  Q 145.31 551.50 153.34 560.51
  Q 161.03 569.15 171.87 579.54
  Q 176.97 584.44 180.73 586.83
  C 188.84 591.98 198.81 591.49 206.99 586.19
  C 215.87 580.43 227.55 578.72 237.39 582.64
  Q 255.14 589.72 258.92 608.42
  C 259.88 613.16 259.05 618.10 259.96 622.71
  Q 262.79 636.91 277.26 641.65
  Q 289.03 645.51 303.78 648.97
  Q 312.58 651.03 318.00 650.08
  C 324.77 648.88 330.68 644.88 334.30 638.94
  C 336.15 635.89 337.85 632.65 340.24 629.98
  C 354.80 613.65 378.95 614.26 392.70 631.50
  C 395.94 635.56 397.62 640.48 401.52 643.99
  Q 410.67 652.24 423.02 649.92
  Q 436.04 647.47 452.86 642.24
  C 462.74 639.17 469.56 633.39 471.74 623.22
  C 472.66 618.92 471.90 614.58 472.55 610.30
  Q 475.59 590.26 494.13 582.77"
/>
<path stroke="#8c8c8c" vector-effect="non-scaling-stroke" d="
  M 361.34 371.53
  Q 361.25 371.53 361.25 371.45
  L 361.26 143.73
  A 0.63 0.62 -88.6 0 0 360.67 143.10
  C 343.78 142.19 328.51 130.97 320.34 116.73
  C 318.70 113.87 316.91 112.76 314.20 111.42
  Q 313.54 111.09 312.81 111.24
  Q 298.82 114.12 283.32 118.92
  C 281.22 119.57 277.98 123.56 278.01 125.76
  Q 278.29 153.19 258.50 169.45
  C 242.26 182.78 220.46 184.50 201.68 175.26
  C 199.23 174.05 196.18 171.42 193.52 171.40
  Q 190.96 171.38 188.74 173.32
  Q 179.74 181.18 168.53 193.43
  C 165.97 196.23 164.66 199.34 166.96 203.01
  C 180.10 223.92 177.64 249.93 160.56 267.72
  Q 144.91 284.01 119.93 283.75
  C 117.83 283.73 113.90 286.98 113.26 288.96
  Q 108.78 302.94 105.69 317.68
  C 105.02 320.88 108.18 324.53 110.65 325.89
  C 122.80 332.60 132.34 344.40 135.83 357.65
  C 142.18 381.76 131.89 405.58 110.18 417.69
  Q 107.71 419.07 106.18 422.26
  Q 105.34 424.00 105.70 425.71
  Q 108.52 439.10 112.92 453.49
  C 113.69 456.03 115.36 457.32 117.60 458.72
  Q 118.88 459.52 120.28 459.51
  Q 145.20 459.22 161.29 476.25
  C 177.72 493.64 179.89 520.15 166.92 540.36
  Q 164.10 544.75 167.74 548.89
  Q 177.06 559.51 188.72 569.85
  C 191.26 572.09 194.25 572.49 197.15 570.65
  C 216.19 558.57 240.60 559.27 258.09 573.47
  Q 277.82 589.50 277.94 615.83
  Q 277.95 618.43 279.19 620.50
  Q 280.95 623.45 283.44 624.29
  Q 293.96 627.83 311.42 631.74
  Q 313.39 632.18 315.19 631.33
  Q 318.38 629.82 319.98 627.02
  C 340.94 590.44 391.99 590.73 412.27 627.85
  Q 413.50 630.09 417.82 631.91
  Q 418.27 632.10 418.75 632.01
  Q 432.89 629.12 446.29 625.00
  C 448.26 624.40 449.78 624.11 451.10 622.43
  C 452.34 620.85 453.77 619.30 453.75 617.19
  Q 453.52 591.24 471.61 575.17
  C 487.43 561.11 509.20 558.47 528.49 567.24
  C 531.41 568.57 535.74 572.10 538.74 571.79
  Q 541.22 571.53 543.19 569.76
  Q 554.62 559.49 563.92 548.92
  Q 567.56 544.78 564.75 540.26
  C 550.95 518.10 554.48 489.70 574.35 472.47
  Q 589.75 459.13 611.39 459.54
  C 613.77 459.58 617.73 456.47 618.45 454.22
  Q 622.92 440.41 626.11 425.23
  C 626.64 422.71 623.47 418.64 621.34 417.50
  C 597.50 404.66 587.44 375.29 598.47 350.50
  Q 605.42 334.88 621.12 325.86
  C 623.60 324.44 626.67 320.81 626.05 317.75
  Q 623.07 303.28 618.40 288.77
  C 617.76 286.79 615.92 285.96 614.41 284.72
  Q 613.24 283.75 611.71 283.76
  Q 582.46 283.96 566.20 261.82
  C 555.08 246.68 553.59 227.24 560.97 210.00
  Q 562.33 206.83 564.28 203.89
  C 566.24 200.94 566.80 197.63 564.37 194.83
  Q 555.59 184.72 542.67 173.11
  C 541.17 171.76 538.44 170.88 536.37 171.81
  C 533.86 172.95 531.63 174.54 529.13 175.72
  C 512.31 183.66 492.34 182.92 477.00 172.23
  Q 453.68 155.98 453.77 126.46
  Q 453.77 124.66 452.94 123.49
  C 451.67 121.71 450.66 119.64 448.46 118.95
  Q 433.16 114.11 418.85 111.26
  Q 418.30 111.15 417.79 111.37
  Q 413.52 113.20 412.41 115.22
  C 404.19 130.34 388.68 141.94 371.06 143.15
  A 0.62 0.61 88.0 0 0 370.49 143.77
  L 370.49 371.28
  Q 370.49 371.56 370.21 371.56
  L 361.34 371.53"
/>
</g>
<path fill="#ffffff" d="
  M 353.88 0.00
  L 372.24 0.00
  Q 465.33 3.06 545.21 49.02
  Q 553.81 53.97 562.20 59.54
  Q 655.50 121.53 698.69 224.95
  Q 702.59 234.30 705.85 243.66
  Q 722.61 291.86 725.32 344.00
  Q 725.58 348.83 726.00 353.63
  L 726.00 372.24
  Q 722.35 478.74 663.81 566.16
  C 641.44 599.57 612.62 629.72 581.04 653.28
  Q 488.95 721.96 372.12 726.00
  L 353.76 726.00
  Q 255.85 722.75 173.18 672.40
  C 136.99 650.36 104.17 621.16 78.51 588.53
  Q 4.33 494.21 0.00 372.13
  L 0.00 353.75
  Q 0.41 348.89 0.66 344.00
  Q 2.71 303.51 12.93 267.01
  Q 41.60 164.68 119.66 93.70
  Q 162.27 54.96 216.47 30.93
  Q 276.88 4.16 344.01 0.66
  Q 348.95 0.40 353.88 0.00
  Z
  M 494.13 582.77
  C 504.44 578.61 516.22 580.42 525.91 586.85
  C 534.45 592.51 546.18 591.32 553.88 584.86
  C 561.19 578.73 567.82 571.76 574.70 564.59
  Q 581.49 557.51 583.28 552.30
  Q 586.17 543.90 582.99 535.44
  C 581.63 531.83 579.01 528.78 577.63 525.25
  C 568.84 502.84 582.29 480.81 606.23 478.08
  Q 606.27 478.08 611.75 478.04
  Q 624.50 477.95 631.49 468.76
  Q 635.26 463.80 637.91 453.97
  Q 640.14 445.72 642.15 437.91
  Q 644.56 428.54 644.62 423.45
  Q 644.72 413.82 637.25 406.36
  C 633.58 402.70 628.46 400.99 624.60 397.60
  C 607.97 382.96 608.26 358.55 625.85 344.69
  C 629.14 342.10 633.17 340.55 636.30 337.77
  Q 646.85 328.38 644.07 314.19
  Q 640.98 298.47 635.88 282.93
  Q 631.10 268.38 616.55 265.57
  C 612.22 264.74 607.75 265.62 603.31 264.79
  C 580.28 260.48 568.66 237.90 578.34 216.37
  C 579.66 213.43 581.93 210.85 583.01 207.82
  Q 588.22 193.17 577.27 181.42
  Q 570.12 173.73 560.78 164.61
  Q 554.98 158.95 551.12 156.53
  Q 541.55 150.51 530.31 154.24
  C 527.51 155.17 525.10 157.03 522.53 158.39
  C 501.44 169.60 476.78 157.70 472.68 134.07
  C 471.77 128.80 472.84 123.35 471.26 118.24
  Q 467.47 105.98 455.16 101.86
  Q 444.06 98.15 429.74 94.68
  Q 421.94 92.80 417.89 92.84
  Q 406.99 92.95 399.76 101.09
  C 396.79 104.42 395.13 108.82 392.29 112.23
  C 377.73 129.75 352.50 129.46 338.57 111.14
  C 336.18 107.99 334.64 104.12 332.02 101.20
  Q 322.54 90.62 308.32 93.43
  Q 293.58 96.34 277.30 101.53
  C 265.47 105.30 259.11 114.74 259.51 127.16
  C 260.33 152.53 234.88 170.34 211.50 159.48
  Q 208.19 157.94 204.74 155.82
  C 197.53 151.39 186.71 151.88 179.81 156.94
  Q 175.86 159.84 171.64 163.91
  Q 163.36 171.88 154.92 180.96
  C 145.97 190.60 144.39 202.04 151.65 213.33
  Q 153.97 216.93 155.20 221.03
  C 161.33 241.40 149.37 261.02 128.30 264.84
  C 122.93 265.81 117.46 264.57 112.23 266.25
  Q 100.33 270.07 96.24 281.95
  Q 92.34 293.25 88.42 310.21
  Q 86.53 318.38 87.32 323.28
  C 88.45 330.23 92.55 336.64 98.74 340.17
  Q 101.16 341.55 103.45 343.03
  C 123.08 355.65 124.92 382.81 106.83 397.83
  C 102.91 401.09 97.89 402.88 94.36 406.43
  Q 85.09 415.77 87.62 428.88
  Q 89.86 440.46 94.33 455.77
  Q 96.28 462.44 98.53 466.30
  Q 104.04 475.75 115.54 477.71
  C 117.78 478.10 120.16 478.00 122.44 477.98
  C 147.11 477.78 163.90 502.57 154.06 525.26
  C 152.00 530.02 148.54 534.02 147.57 539.25
  Q 145.31 551.50 153.34 560.51
  Q 161.03 569.15 171.87 579.54
  Q 176.97 584.44 180.73 586.83
  C 188.84 591.98 198.81 591.49 206.99 586.19
  C 215.87 580.43 227.55 578.72 237.39 582.64
  Q 255.14 589.72 258.92 608.42
  C 259.88 613.16 259.05 618.10 259.96 622.71
  Q 262.79 636.91 277.26 641.65
  Q 289.03 645.51 303.78 648.97
  Q 312.58 651.03 318.00 650.08
  C 324.77 648.88 330.68 644.88 334.30 638.94
  C 336.15 635.89 337.85 632.65 340.24 629.98
  C 354.80 613.65 378.95 614.26 392.70 631.50
  C 395.94 635.56 397.62 640.48 401.52 643.99
  Q 410.67 652.24 423.02 649.92
  Q 436.04 647.47 452.86 642.24
  C 462.74 639.17 469.56 633.39 471.74 623.22
  C 472.66 618.92 471.90 614.58 472.55 610.30
  Q 475.59 590.26 494.13 582.77
  Z"
/>
<path fill="#191919" d="
  M 525.91 586.85
  C 516.22 580.42 504.44 578.61 494.13 582.77
  Q 475.59 590.26 472.55 610.30
  C 471.90 614.58 472.66 618.92 471.74 623.22
  C 469.56 633.39 462.74 639.17 452.86 642.24
  Q 436.04 647.47 423.02 649.92
  Q 410.67 652.24 401.52 643.99
  C 397.62 640.48 395.94 635.56 392.70 631.50
  C 378.95 614.26 354.80 613.65 340.24 629.98
  C 337.85 632.65 336.15 635.89 334.30 638.94
  C 330.68 644.88 324.77 648.88 318.00 650.08
  Q 312.58 651.03 303.78 648.97
  Q 289.03 645.51 277.26 641.65
  Q 262.79 636.91 259.96 622.71
  C 259.05 618.10 259.88 613.16 258.92 608.42
  Q 255.14 589.72 237.39 582.64
  C 227.55 578.72 215.87 580.43 206.99 586.19
  C 198.81 591.49 188.84 591.98 180.73 586.83
  Q 176.97 584.44 171.87 579.54
  Q 161.03 569.15 153.34 560.51
  Q 145.31 551.50 147.57 539.25
  C 148.54 534.02 152.00 530.02 154.06 525.26
  C 163.90 502.57 147.11 477.78 122.44 477.98
  C 120.16 478.00 117.78 478.10 115.54 477.71
  Q 104.04 475.75 98.53 466.30
  Q 96.28 462.44 94.33 455.77
  Q 89.86 440.46 87.62 428.88
  Q 85.09 415.77 94.36 406.43
  C 97.89 402.88 102.91 401.09 106.83 397.83
  C 124.92 382.81 123.08 355.65 103.45 343.03
  Q 101.16 341.55 98.74 340.17
  C 92.55 336.64 88.45 330.23 87.32 323.28
  Q 86.53 318.38 88.42 310.21
  Q 92.34 293.25 96.24 281.95
  Q 100.33 270.07 112.23 266.25
  C 117.46 264.57 122.93 265.81 128.30 264.84
  C 149.37 261.02 161.33 241.40 155.20 221.03
  Q 153.97 216.93 151.65 213.33
  C 144.39 202.04 145.97 190.60 154.92 180.96
  Q 163.36 171.88 171.64 163.91
  Q 175.86 159.84 179.81 156.94
  C 186.71 151.88 197.53 151.39 204.74 155.82
  Q 208.19 157.94 211.50 159.48
  C 234.88 170.34 260.33 152.53 259.51 127.16
  C 259.11 114.74 265.47 105.30 277.30 101.53
  Q 293.58 96.34 308.32 93.43
  Q 322.54 90.62 332.02 101.20
  C 334.64 104.12 336.18 107.99 338.57 111.14
  C 352.50 129.46 377.73 129.75 392.29 112.23
  C 395.13 108.82 396.79 104.42 399.76 101.09
  Q 406.99 92.95 417.89 92.84
  Q 421.94 92.80 429.74 94.68
  Q 444.06 98.15 455.16 101.86
  Q 467.47 105.98 471.26 118.24
  C 472.84 123.35 471.77 128.80 472.68 134.07
  C 476.78 157.70 501.44 169.60 522.53 158.39
  C 525.10 157.03 527.51 155.17 530.31 154.24
  Q 541.55 150.51 551.12 156.53
  Q 554.98 158.95 560.78 164.61
  Q 570.12 173.73 577.27 181.42
  Q 588.22 193.17 583.01 207.82
  C 581.93 210.85 579.66 213.43 578.34 216.37
  C 568.66 237.90 580.28 260.48 603.31 264.79
  C 607.75 265.62 612.22 264.74 616.55 265.57
  Q 631.10 268.38 635.88 282.93
  Q 640.98 298.47 644.07 314.19
  Q 646.85 328.38 636.30 337.77
  C 633.17 340.55 629.14 342.10 625.85 344.69
  C 608.26 358.55 607.97 382.96 624.60 397.60
  C 628.46 400.99 633.58 402.70 637.25 406.36
  Q 644.72 413.82 644.62 423.45
  Q 644.56 428.54 642.15 437.91
  Q 640.14 445.72 637.91 453.97
  Q 635.26 463.80 631.49 468.76
  Q 624.50 477.95 611.75 478.04
  Q 606.27 478.08 606.23 478.08
  C 582.29 480.81 568.84 502.84 577.63 525.25
  C 579.01 528.78 581.63 531.83 582.99 535.44
  Q 586.17 543.90 583.28 552.30
  Q 581.49 557.51 574.70 564.59
  C 567.82 571.76 561.19 578.73 553.88 584.86
  C 546.18 591.32 534.45 592.51 525.91 586.85
  Z
  M 361.34 371.53
  Q 361.25 371.53 361.25 371.45
  L 361.26 143.73
  A 0.63 0.62 -88.6 0 0 360.67 143.10
  C 343.78 142.19 328.51 130.97 320.34 116.73
  C 318.70 113.87 316.91 112.76 314.20 111.42
  Q 313.54 111.09 312.81 111.24
  Q 298.82 114.12 283.32 118.92
  C 281.22 119.57 277.98 123.56 278.01 125.76
  Q 278.29 153.19 258.50 169.45
  C 242.26 182.78 220.46 184.50 201.68 175.26
  C 199.23 174.05 196.18 171.42 193.52 171.40
  Q 190.96 171.38 188.74 173.32
  Q 179.74 181.18 168.53 193.43
  C 165.97 196.23 164.66 199.34 166.96 203.01
  C 180.10 223.92 177.64 249.93 160.56 267.72
  Q 144.91 284.01 119.93 283.75
  C 117.83 283.73 113.90 286.98 113.26 288.96
  Q 108.78 302.94 105.69 317.68
  C 105.02 320.88 108.18 324.53 110.65 325.89
  C 122.80 332.60 132.34 344.40 135.83 357.65
  C 142.18 381.76 131.89 405.58 110.18 417.69
  Q 107.71 419.07 106.18 422.26
  Q 105.34 424.00 105.70 425.71
  Q 108.52 439.10 112.92 453.49
  C 113.69 456.03 115.36 457.32 117.60 458.72
  Q 118.88 459.52 120.28 459.51
  Q 145.20 459.22 161.29 476.25
  C 177.72 493.64 179.89 520.15 166.92 540.36
  Q 164.10 544.75 167.74 548.89
  Q 177.06 559.51 188.72 569.85
  C 191.26 572.09 194.25 572.49 197.15 570.65
  C 216.19 558.57 240.60 559.27 258.09 573.47
  Q 277.82 589.50 277.94 615.83
  Q 277.95 618.43 279.19 620.50
  Q 280.95 623.45 283.44 624.29
  Q 293.96 627.83 311.42 631.74
  Q 313.39 632.18 315.19 631.33
  Q 318.38 629.82 319.98 627.02
  C 340.94 590.44 391.99 590.73 412.27 627.85
  Q 413.50 630.09 417.82 631.91
  Q 418.27 632.10 418.75 632.01
  Q 432.89 629.12 446.29 625.00
  C 448.26 624.40 449.78 624.11 451.10 622.43
  C 452.34 620.85 453.77 619.30 453.75 617.19
  Q 453.52 591.24 471.61 575.17
  C 487.43 561.11 509.20 558.47 528.49 567.24
  C 531.41 568.57 535.74 572.10 538.74 571.79
  Q 541.22 571.53 543.19 569.76
  Q 554.62 559.49 563.92 548.92
  Q 567.56 544.78 564.75 540.26
  C 550.95 518.10 554.48 489.70 574.35 472.47
  Q 589.75 459.13 611.39 459.54
  C 613.77 459.58 617.73 456.47 618.45 454.22
  Q 622.92 440.41 626.11 425.23
  C 626.64 422.71 623.47 418.64 621.34 417.50
  C 597.50 404.66 587.44 375.29 598.47 350.50
  Q 605.42 334.88 621.12 325.86
  C 623.60 324.44 626.67 320.81 626.05 317.75
  Q 623.07 303.28 618.40 288.77
  C 617.76 286.79 615.92 285.96 614.41 284.72
  Q 613.24 283.75 611.71 283.76
  Q 582.46 283.96 566.20 261.82
  C 555.08 246.68 553.59 227.24 560.97 210.00
  Q 562.33 206.83 564.28 203.89
  C 566.24 200.94 566.80 197.63 564.37 194.83
  Q 555.59 184.72 542.67 173.11
  C 541.17 171.76 538.44 170.88 536.37 171.81
  C 533.86 172.95 531.63 174.54 529.13 175.72
  C 512.31 183.66 492.34 182.92 477.00 172.23
  Q 453.68 155.98 453.77 126.46
  Q 453.77 124.66 452.94 123.49
  C 451.67 121.71 450.66 119.64 448.46 118.95
  Q 433.16 114.11 418.85 111.26
  Q 418.30 111.15 417.79 111.37
  Q 413.52 113.20 412.41 115.22
  C 404.19 130.34 388.68 141.94 371.06 143.15
  A 0.62 0.61 88.0 0 0 370.49 143.77
  L 370.49 371.28
  Q 370.49 371.56 370.21 371.56
  L 361.34 371.53
  Z"
/>
<path fill="#ffffff" d="
  M 370.49 371.28
  L 370.49 143.77
  A 0.62 0.61 88.0 0 1 371.06 143.15
  C 388.68 141.94 404.19 130.34 412.41 115.22
  Q 413.52 113.20 417.79 111.37
  Q 418.30 111.15 418.85 111.26
  Q 433.16 114.11 448.46 118.95
  C 450.66 119.64 451.67 121.71 452.94 123.49
  Q 453.77 124.66 453.77 126.46
  Q 453.68 155.98 477.00 172.23
  C 492.34 182.92 512.31 183.66 529.13 175.72
  C 531.63 174.54 533.86 172.95 536.37 171.81
  C 538.44 170.88 541.17 171.76 542.67 173.11
  Q 555.59 184.72 564.37 194.83
  C 566.80 197.63 566.24 200.94 564.28 203.89
  Q 562.33 206.83 560.97 210.00
  C 553.59 227.24 555.08 246.68 566.20 261.82
  Q 582.46 283.96 611.71 283.76
  Q 613.24 283.75 614.41 284.72
  C 615.92 285.96 617.76 286.79 618.40 288.77
  Q 623.07 303.28 626.05 317.75
  C 626.67 320.81 623.60 324.44 621.12 325.86
  Q 605.42 334.88 598.47 350.50
  C 587.44 375.29 597.50 404.66 621.34 417.50
  C 623.47 418.64 626.64 422.71 626.11 425.23
  Q 622.92 440.41 618.45 454.22
  C 617.73 456.47 613.77 459.58 611.39 459.54
  Q 589.75 459.13 574.35 472.47
  C 554.48 489.70 550.95 518.10 564.75 540.26
  Q 567.56 544.78 563.92 548.92
  Q 554.62 559.49 543.19 569.76
  Q 541.22 571.53 538.74 571.79
  C 535.74 572.10 531.41 568.57 528.49 567.24
  C 509.20 558.47 487.43 561.11 471.61 575.17
  Q 453.52 591.24 453.75 617.19
  C 453.77 619.30 452.34 620.85 451.10 622.43
  C 449.78 624.11 448.26 624.40 446.29 625.00
  Q 432.89 629.12 418.75 632.01
  Q 418.27 632.10 417.82 631.91
  Q 413.50 630.09 412.27 627.85
  C 391.99 590.73 340.94 590.44 319.98 627.02
  Q 318.38 629.82 315.19 631.33
  Q 313.39 632.18 311.42 631.74
  Q 293.96 627.83 283.44 624.29
  Q 280.95 623.45 279.19 620.50
  Q 277.95 618.43 277.94 615.83
  Q 277.82 589.50 258.09 573.47
  C 240.60 559.27 216.19 558.57 197.15 570.65
  C 194.25 572.49 191.26 572.09 188.72 569.85
  Q 177.06 559.51 167.74 548.89
  Q 164.10 544.75 166.92 540.36
  C 179.89 520.15 177.72 493.64 161.29 476.25
  Q 145.20 459.22 120.28 459.51
  Q 118.88 459.52 117.60 458.72
  C 115.36 457.32 113.69 456.03 112.92 453.49
  Q 108.52 439.10 105.70 425.71
  Q 105.34 424.00 106.18 422.26
  Q 107.71 419.07 110.18 417.69
  C 131.89 405.58 142.18 381.76 135.83 357.65
  C 132.34 344.40 122.80 332.60 110.65 325.89
  C 108.18 324.53 105.02 320.88 105.69 317.68
  Q 108.78 302.94 113.26 288.96
  C 113.90 286.98 117.83 283.73 119.93 283.75
  Q 144.91 284.01 160.56 267.72
  C 177.64 249.93 180.10 223.92 166.96 203.01
  C 164.66 199.34 165.97 196.23 168.53 193.43
  Q 179.74 181.18 188.74 173.32
  Q 190.96 171.38 193.52 171.40
  C 196.18 171.42 199.23 174.05 201.68 175.26
  C 220.46 184.50 242.26 182.78 258.50 169.45
  Q 278.29 153.19 278.01 125.76
  C 277.98 123.56 281.22 119.57 283.32 118.92
  Q 298.82 114.12 312.81 111.24
  Q 313.54 111.09 314.20 111.42
  C 316.91 112.76 318.70 113.87 320.34 116.73
  C 328.51 130.97 343.78 142.19 360.67 143.10
  A 0.63 0.62 -88.6 0 1 361.26 143.73
  L 361.25 371.45
  Q 361.25 371.53 361.34 371.53
  L 370.21 371.56
  Q 370.49 371.56 370.49 371.28
  Z"
/>
</svg>
