<?xml version="1.0" encoding="UTF-8" standalone="no"?>
<!DOCTYPE svg PUBLIC "-//W3C//DTD SVG 1.1//EN" "http://www.w3.org/Graphics/SVG/1.1/DTD/svg11.dtd">
<svg xmlns="http://www.w3.org/2000/svg" version="1.1" viewBox="0.00 0.00 752.00 365.00">
<g stroke-width="2.00" fill="none" stroke-linecap="butt">
<path stroke="#808080" vector-effect="non-scaling-stroke" d="
  M 374.95 160.78
  L 323.05 160.57
  Q 322.52 160.57 322.53 160.04
  Q 322.54 159.77 322.54 159.50
  Q 322.71 89.10 322.71 18.93
  Q 322.71 18.28 322.06 18.29
  L 318.34 18.32
  Q 317.76 18.33 317.76 18.91
  L 317.76 160.04
  Q 317.76 160.59 317.21 160.58
  L 266.59 160.18
  Q 265.97 160.18 265.97 159.55
  Q 266.02 107.59 265.96 57.54
  C 265.96 47.96 265.40 38.22 265.16 28.67
  Q 265.07 24.84 265.45 20.29
  Q 265.54 19.22 264.47 19.14
  L 262.11 18.98
  Q 260.87 18.89 260.87 20.14
  L 260.50 160.25
  A 0.75 0.75 0.0 0 1 259.75 161.00
  L 209.01 161.00
  Q 208.27 161.00 208.27 160.26
  L 208.03 20.01
  Q 208.02 18.75 206.76 18.76
  L 204.28 18.78
  Q 203.11 18.79 203.11 19.97
  L 202.98 160.26
  A 0.74 0.74 0.0 0 1 202.24 161.00
  L 152.30 161.01
  A 0.46 0.46 0.0 0 1 151.83 160.55
  L 151.26 19.31
  Q 151.26 18.87 150.82 18.89
  L 147.31 19.06
  Q 146.93 19.08 146.93 19.46
  Q 145.82 92.42 146.46 160.53
  A 0.49 0.48 -0.6 0 1 145.97 161.02
  L 94.74 161.02
  A 0.67 0.67 0.0 0 1 94.07 160.35
  Q 93.86 90.61 93.47 19.67
  Q 93.47 19.34 93.25 19.07
  Q 92.83 18.55 92.11 18.75
  Q 91.75 18.85 91.39 18.77
  Q 90.60 18.59 89.97 18.93
  Q 89.49 19.20 89.48 19.74
  C 88.57 66.59 88.70 113.19 88.76 160.33
  Q 88.76 161.06 88.03 161.06
  L 33.74 160.96
  A 0.94 0.93 0.0 0 0 32.80 161.89
  L 32.92 199.97
  A 0.55 0.55 0.0 0 0 33.47 200.52
  L 87.72 200.26
  A 1.12 1.11 89.7 0 1 88.84 201.38
  Q 88.73 248.60 88.77 291.35
  C 88.79 308.22 89.69 325.05 89.59 341.26
  A 1.14 1.14 0.0 0 0 90.77 342.41
  L 91.95 342.38
  Q 93.02 342.34 93.06 341.27
  Q 93.50 329.39 93.63 316.81
  Q 94.22 259.47 93.93 201.36
  A 1.02 1.02 0.0 0 1 94.95 200.34
  L 145.79 200.34
  A 0.79 0.79 0.0 0 1 146.58 201.14
  Q 145.82 271.53 146.74 341.79
  Q 146.75 342.28 147.24 342.30
  L 150.48 342.41
  A 0.60 0.60 0.0 0 0 151.10 341.82
  Q 152.25 271.43 151.40 201.26
  A 0.91 0.91 0.0 0 1 152.31 200.34
  L 202.70 200.38
  A 0.32 0.31 -90.0 0 1 203.01 200.70
  L 203.03 342.02
  Q 203.03 342.65 203.65 342.66
  L 207.18 342.76
  A 0.98 0.97 -89.1 0 0 208.18 341.78
  L 208.20 201.18
  Q 208.20 200.32 209.07 200.32
  L 259.28 200.37
  A 1.41 1.40 -90.0 0 1 260.68 201.78
  L 260.63 341.40
  Q 260.63 342.41 261.65 342.47
  L 264.28 342.63
  A 1.34 1.34 0.0 0 0 265.70 341.30
  Q 266.30 274.00 265.76 201.71
  A 1.36 1.36 0.0 0 1 267.12 200.34
  L 317.16 200.34
  Q 317.75 200.34 317.75 200.93
  L 317.75 341.83
  Q 317.75 342.42 318.33 342.41
  L 322.17 342.37
  Q 322.70 342.36 322.70 341.83
  L 322.70 200.90
  Q 322.70 200.34 323.26 200.34
  L 373.95 200.34
  Q 374.56 200.34 374.56 200.95
  L 374.57 341.62
  Q 374.57 342.48 375.43 342.47
  L 378.66 342.43
  Q 379.49 342.41 379.49 341.59
  L 379.50 200.73
  A 0.39 0.39 0.0 0 1 379.89 200.34
  L 430.88 200.34
  Q 431.25 200.34 431.25 200.70
  L 431.25 341.85
  Q 431.25 342.69 432.10 342.69
  L 435.73 342.69
  Q 436.15 342.69 436.15 342.27
  L 436.16 201.28
  Q 436.16 201.08 435.98 200.97
  Q 435.76 200.83 435.88 200.54
  A 0.30 0.30 0.0 0 1 436.16 200.34
  L 488.02 200.34
  A 0.93 0.93 0.0 0 1 488.95 201.27
  L 488.87 341.59
  Q 488.87 342.55 489.83 342.58
  L 493.27 342.71
  Q 494.34 342.75 494.34 341.67
  L 494.26 201.29
  A 0.95 0.95 0.0 0 1 495.21 200.34
  L 544.51 200.38
  A 0.88 0.88 0.0 0 1 545.39 201.26
  L 545.57 341.53
  Q 545.57 342.48 546.52 342.47
  L 550.09 342.45
  Q 550.99 342.44 550.99 341.55
  L 550.96 201.20
  A 0.85 0.84 90.0 0 1 551.80 200.35
  L 602.26 200.38
  A 0.99 0.99 0.0 0 1 603.25 201.37
  Q 602.79 270.16 603.32 341.35
  A 1.19 1.19 0.0 0 0 604.51 342.53
  L 607.73 342.52
  A 1.00 0.99 90.0 0 0 608.72 341.52
  L 608.76 201.27
  A 0.98 0.97 -90.0 0 1 609.73 200.29
  L 659.23 200.37
  A 0.37 0.37 0.0 0 1 659.60 200.74
  L 659.79 341.31
  Q 659.79 342.34 660.81 342.46
  L 663.63 342.81
  A 1.21 1.21 0.0 0 0 664.98 341.61
  L 665.07 201.56
  Q 665.07 200.31 666.32 200.32
  L 719.99 200.40
  A 1.14 1.13 -0.2 0 0 721.13 199.26
  L 721.11 161.59
  A 0.52 0.52 0.0 0 0 720.59 161.07
  L 665.65 161.00
  A 0.61 0.60 0.0 0 1 665.04 160.40
  L 665.02 19.30
  Q 665.02 18.73 664.44 18.73
  Q 660.49 18.76 660.48 18.76
  Q 659.69 18.77 659.69 19.55
  Q 659.67 90.08 659.63 160.61
  A 0.41 0.41 0.0 0 1 659.22 161.02
  L 609.89 161.00
  A 1.12 1.12 0.0 0 1 608.77 159.89
  L 608.68 20.21
  Q 608.68 18.75 607.21 18.75
  L 604.49 18.76
  Q 603.24 18.76 603.24 20.01
  L 603.03 160.49
  A 0.52 0.51 0.0 0 1 602.51 161.00
  L 552.27 161.00
  Q 551.04 161.00 551.03 159.77
  L 550.85 19.81
  Q 550.85 18.77 549.81 18.78
  L 546.52 18.78
  Q 545.58 18.78 545.58 19.73
  L 545.39 160.56
  Q 545.39 161.01 544.94 161.01
  L 494.71 161.00
  A 0.38 0.37 0.0 0 1 494.33 160.63
  L 494.22 19.74
  A 1.00 1.00 0.0 0 0 493.23 18.74
  L 490.03 18.72
  Q 489.02 18.71 489.02 19.72
  L 488.85 160.33
  A 0.68 0.68 0.0 0 1 488.17 161.01
  L 436.56 160.94
  A 0.39 0.39 0.0 0 1 436.17 160.55
  L 436.18 18.84
  Q 436.18 18.61 435.94 18.61
  L 431.45 18.62
  Q 431.25 18.62 431.25 18.82
  L 431.25 160.33
  Q 431.25 160.91 430.67 160.90
  L 379.56 160.74
  A 0.17 0.17 0.0 0 1 379.40 160.63
  Q 379.29 160.34 379.40 160.15
  Q 379.50 160.00 379.50 159.82
  Q 379.50 89.81 379.50 19.23
  Q 379.50 18.46 378.73 18.47
  L 375.18 18.47
  Q 374.59 18.47 374.59 19.07
  L 374.58 159.97
  Q 374.58 160.13 374.72 160.20
  Q 374.88 160.28 375.05 160.36
  Q 375.97 160.79 374.95 160.78"
/>
<path stroke="#808080" vector-effect="non-scaling-stroke" d="
  M 715.94 166.60
  A 0.36 0.36 0.0 0 0 715.58 166.24
  L 38.78 166.24
  A 0.36 0.36 0.0 0 0 38.42 166.60
  L 38.42 194.74
  A 0.36 0.36 0.0 0 0 38.78 195.10
  L 715.58 195.10
  A 0.36 0.36 0.0 0 0 715.94 194.74
  L 715.94 166.60"
/>
</g>
<path fill="#ffffff" d="
  M 0.00 0.00
  L 752.00 0.00
  L 752.00 365.00
  L 0.00 365.00
  L 0.00 0.00
  Z
  M 374.95 160.78
  L 323.05 160.57
  Q 322.52 160.57 322.53 160.04
  Q 322.54 159.77 322.54 159.50
  Q 322.71 89.10 322.71 18.93
  Q 322.71 18.28 322.06 18.29
  L 318.34 18.32
  Q 317.76 18.33 317.76 18.91
  L 317.76 160.04
  Q 317.76 160.59 317.21 160.58
  L 266.59 160.18
  Q 265.97 160.18 265.97 159.55
  Q 266.02 107.59 265.96 57.54
  C 265.96 47.96 265.40 38.22 265.16 28.67
  Q 265.07 24.84 265.45 20.29
  Q 265.54 19.22 264.47 19.14
  L 262.11 18.98
  Q 260.87 18.89 260.87 20.14
  L 260.50 160.25
  A 0.75 0.75 0.0 0 1 259.75 161.00
  L 209.01 161.00
  Q 208.27 161.00 208.27 160.26
  L 208.03 20.01
  Q 208.02 18.75 206.76 18.76
  L 204.28 18.78
  Q 203.11 18.79 203.11 19.97
  L 202.98 160.26
  A 0.74 0.74 0.0 0 1 202.24 161.00
  L 152.30 161.01
  A 0.46 0.46 0.0 0 1 151.83 160.55
  L 151.26 19.31
  Q 151.26 18.87 150.82 18.89
  L 147.31 19.06
  Q 146.93 19.08 146.93 19.46
  Q 145.82 92.42 146.46 160.53
  A 0.49 0.48 -0.6 0 1 145.97 161.02
  L 94.74 161.02
  A 0.67 0.67 0.0 0 1 94.07 160.35
  Q 93.86 90.61 93.47 19.67
  Q 93.47 19.34 93.25 19.07
  Q 92.83 18.55 92.11 18.75
  Q 91.75 18.85 91.39 18.77
  Q 90.60 18.59 89.97 18.93
  Q 89.49 19.20 89.48 19.74
  C 88.57 66.59 88.70 113.19 88.76 160.33
  Q 88.76 161.06 88.03 161.06
  L 33.74 160.96
  A 0.94 0.93 0.0 0 0 32.80 161.89
  L 32.92 199.97
  A 0.55 0.55 0.0 0 0 33.47 200.52
  L 87.72 200.26
  A 1.12 1.11 89.7 0 1 88.84 201.38
  Q 88.73 248.60 88.77 291.35
  C 88.79 308.22 89.69 325.05 89.59 341.26
  A 1.14 1.14 0.0 0 0 90.77 342.41
  L 91.95 342.38
  Q 93.02 342.34 93.06 341.27
  Q 93.50 329.39 93.63 316.81
  Q 94.22 259.47 93.93 201.36
  A 1.02 1.02 0.0 0 1 94.95 200.34
  L 145.79 200.34
  A 0.79 0.79 0.0 0 1 146.58 201.14
  Q 145.82 271.53 146.74 341.79
  Q 146.75 342.28 147.24 342.30
  L 150.48 342.41
  A 0.60 0.60 0.0 0 0 151.10 341.82
  Q 152.25 271.43 151.40 201.26
  A 0.91 0.91 0.0 0 1 152.31 200.34
  L 202.70 200.38
  A 0.32 0.31 -90.0 0 1 203.01 200.70
  L 203.03 342.02
  Q 203.03 342.65 203.65 342.66
  L 207.18 342.76
  A 0.98 0.97 -89.1 0 0 208.18 341.78
  L 208.20 201.18
  Q 208.20 200.32 209.07 200.32
  L 259.28 200.37
  A 1.41 1.40 -90.0 0 1 260.68 201.78
  L 260.63 341.40
  Q 260.63 342.41 261.65 342.47
  L 264.28 342.63
  A 1.34 1.34 0.0 0 0 265.70 341.30
  Q 266.30 274.00 265.76 201.71
  A 1.36 1.36 0.0 0 1 267.12 200.34
  L 317.16 200.34
  Q 317.75 200.34 317.75 200.93
  L 317.75 341.83
  Q 317.75 342.42 318.33 342.41
  L 322.17 342.37
  Q 322.70 342.36 322.70 341.83
  L 322.70 200.90
  Q 322.70 200.34 323.26 200.34
  L 373.95 200.34
  Q 374.56 200.34 374.56 200.95
  L 374.57 341.62
  Q 374.57 342.48 375.43 342.47
  L 378.66 342.43
  Q 379.49 342.41 379.49 341.59
  L 379.50 200.73
  A 0.39 0.39 0.0 0 1 379.89 200.34
  L 430.88 200.34
  Q 431.25 200.34 431.25 200.70
  L 431.25 341.85
  Q 431.25 342.69 432.10 342.69
  L 435.73 342.69
  Q 436.15 342.69 436.15 342.27
  L 436.16 201.28
  Q 436.16 201.08 435.98 200.97
  Q 435.76 200.83 435.88 200.54
  A 0.30 0.30 0.0 0 1 436.16 200.34
  L 488.02 200.34
  A 0.93 0.93 0.0 0 1 488.95 201.27
  L 488.87 341.59
  Q 488.87 342.55 489.83 342.58
  L 493.27 342.71
  Q 494.34 342.75 494.34 341.67
  L 494.26 201.29
  A 0.95 0.95 0.0 0 1 495.21 200.34
  L 544.51 200.38
  A 0.88 0.88 0.0 0 1 545.39 201.26
  L 545.57 341.53
  Q 545.57 342.48 546.52 342.47
  L 550.09 342.45
  Q 550.99 342.44 550.99 341.55
  L 550.96 201.20
  A 0.85 0.84 90.0 0 1 551.80 200.35
  L 602.26 200.38
  A 0.99 0.99 0.0 0 1 603.25 201.37
  Q 602.79 270.16 603.32 341.35
  A 1.19 1.19 0.0 0 0 604.51 342.53
  L 607.73 342.52
  A 1.00 0.99 90.0 0 0 608.72 341.52
  L 608.76 201.27
  A 0.98 0.97 -90.0 0 1 609.73 200.29
  L 659.23 200.37
  A 0.37 0.37 0.0 0 1 659.60 200.74
  L 659.79 341.31
  Q 659.79 342.34 660.81 342.46
  L 663.63 342.81
  A 1.21 1.21 0.0 0 0 664.98 341.61
  L 665.07 201.56
  Q 665.07 200.31 666.32 200.32
  L 719.99 200.40
  A 1.14 1.13 -0.2 0 0 721.13 199.26
  L 721.11 161.59
  A 0.52 0.52 0.0 0 0 720.59 161.07
  L 665.65 161.00
  A 0.61 0.60 0.0 0 1 665.04 160.40
  L 665.02 19.30
  Q 665.02 18.73 664.44 18.73
  Q 660.49 18.76 660.48 18.76
  Q 659.69 18.77 659.69 19.55
  Q 659.67 90.08 659.63 160.61
  A 0.41 0.41 0.0 0 1 659.22 161.02
  L 609.89 161.00
  A 1.12 1.12 0.0 0 1 608.77 159.89
  L 608.68 20.21
  Q 608.68 18.75 607.21 18.75
  L 604.49 18.76
  Q 603.24 18.76 603.24 20.01
  L 603.03 160.49
  A 0.52 0.51 0.0 0 1 602.51 161.00
  L 552.27 161.00
  Q 551.04 161.00 551.03 159.77
  L 550.85 19.81
  Q 550.85 18.77 549.81 18.78
  L 546.52 18.78
  Q 545.58 18.78 545.58 19.73
  L 545.39 160.56
  Q 545.39 161.01 544.94 161.01
  L 494.71 161.00
  A 0.38 0.37 0.0 0 1 494.33 160.63
  L 494.22 19.74
  A 1.00 1.00 0.0 0 0 493.23 18.74
  L 490.03 18.72
  Q 489.02 18.71 489.02 19.72
  L 488.85 160.33
  A 0.68 0.68 0.0 0 1 488.17 161.01
  L 436.56 160.94
  A 0.39 0.39 0.0 0 1 436.17 160.55
  L 436.18 18.84
  Q 436.18 18.61 435.94 18.61
  L 431.45 18.62
  Q 431.25 18.62 431.25 18.82
  L 431.25 160.33
  Q 431.25 160.91 430.67 160.90
  L 379.56 160.74
  A 0.17 0.17 0.0 0 1 379.40 160.63
  Q 379.29 160.34 379.40 160.15
  Q 379.50 160.00 379.50 159.82
  Q 379.50 89.81 379.50 19.23
  Q 379.50 18.46 378.73 18.47
  L 375.18 18.47
  Q 374.59 18.47 374.59 19.07
  L 374.58 159.97
  Q 374.58 160.13 374.72 160.20
  Q 374.88 160.28 375.05 160.36
  Q 375.97 160.79 374.95 160.78
  Z"
/>
<path fill="#000000" d="
  M 375.05 160.36
  Q 374.88 160.28 374.72 160.20
  Q 374.58 160.13 374.58 159.97
  L 374.59 19.07
  Q 374.59 18.47 375.18 18.47
  L 378.73 18.47
  Q 379.50 18.46 379.50 19.23
  Q 379.50 89.81 379.50 159.82
  Q 379.50 160.00 379.40 160.15
  Q 379.29 160.34 379.40 160.63
  A 0.17 0.17 0.0 0 0 379.56 160.74
  L 430.67 160.90
  Q 431.25 160.91 431.25 160.33
  L 431.25 18.82
  Q 431.25 18.62 431.45 18.62
  L 435.94 18.61
  Q 436.18 18.61 436.18 18.84
  L 436.17 160.55
  A 0.39 0.39 0.0 0 0 436.56 160.94
  L 488.17 161.01
  A 0.68 0.68 0.0 0 0 488.85 160.33
  L 489.02 19.72
  Q 489.02 18.71 490.03 18.72
  L 493.23 18.74
  A 1.00 1.00 0.0 0 1 494.22 19.74
  L 494.33 160.63
  A 0.38 0.37 -0.0 0 0 494.71 161.00
  L 544.94 161.01
  Q 545.39 161.01 545.39 160.56
  L 545.58 19.73
  Q 545.58 18.78 546.52 18.78
  L 549.81 18.78
  Q 550.85 18.77 550.85 19.81
  L 551.03 159.77
  Q 551.04 161.00 552.27 161.00
  L 602.51 161.00
  A 0.52 0.51 0.0 0 0 603.03 160.49
  L 603.24 20.01
  Q 603.24 18.76 604.49 18.76
  L 607.21 18.75
  Q 608.68 18.75 608.68 20.21
  L 608.77 159.89
  A 1.12 1.12 0.0 0 0 609.89 161.00
  L 659.22 161.02
  A 0.41 0.41 0.0 0 0 659.63 160.61
  Q 659.67 90.08 659.69 19.55
  Q 659.69 18.77 660.48 18.76
  Q 660.49 18.76 664.44 18.73
  Q 665.02 18.73 665.02 19.30
  L 665.04 160.40
  A 0.61 0.60 -0.0 0 0 665.65 161.00
  L 720.59 161.07
  A 0.52 0.52 0.0 0 1 721.11 161.59
  L 721.13 199.26
  A 1.14 1.13 -0.2 0 1 719.99 200.40
  L 666.32 200.32
  Q 665.07 200.31 665.07 201.56
  L 664.98 341.61
  A 1.21 1.21 0.0 0 1 663.63 342.81
  L 660.81 342.46
  Q 659.79 342.34 659.79 341.31
  L 659.60 200.74
  A 0.37 0.37 0.0 0 0 659.23 200.37
  L 609.73 200.29
  A 0.98 0.97 90.0 0 0 608.76 201.27
  L 608.72 341.52
  A 1.00 0.99 -90.0 0 1 607.73 342.52
  L 604.51 342.53
  A 1.19 1.19 0.0 0 1 603.32 341.35
  Q 602.79 270.16 603.25 201.37
  A 0.99 0.99 0.0 0 0 602.26 200.38
  L 551.80 200.35
  A 0.85 0.84 -90.0 0 0 550.96 201.20
  L 550.99 341.55
  Q 550.99 342.44 550.09 342.45
  L 546.52 342.47
  Q 545.57 342.48 545.57 341.53
  L 545.39 201.26
  A 0.88 0.88 0.0 0 0 544.51 200.38
  L 495.21 200.34
  A 0.95 0.95 0.0 0 0 494.26 201.29
  L 494.34 341.67
  Q 494.34 342.75 493.27 342.71
  L 489.83 342.58
  Q 488.87 342.55 488.87 341.59
  L 488.95 201.27
  A 0.93 0.93 0.0 0 0 488.02 200.34
  L 436.16 200.34
  A 0.30 0.30 0.0 0 0 435.88 200.54
  Q 435.76 200.83 435.98 200.97
  Q 436.16 201.08 436.16 201.28
  L 436.15 342.27
  Q 436.15 342.69 435.73 342.69
  L 432.10 342.69
  Q 431.25 342.69 431.25 341.85
  L 431.25 200.70
  Q 431.25 200.34 430.88 200.34
  L 379.89 200.34
  A 0.39 0.39 0.0 0 0 379.50 200.73
  L 379.49 341.59
  Q 379.49 342.41 378.66 342.43
  L 375.43 342.47
  Q 374.57 342.48 374.57 341.62
  L 374.56 200.95
  Q 374.56 200.34 373.95 200.34
  L 323.26 200.34
  Q 322.70 200.34 322.70 200.90
  L 322.70 341.83
  Q 322.70 342.36 322.17 342.37
  L 318.33 342.41
  Q 317.75 342.42 317.75 341.83
  L 317.75 200.93
  Q 317.75 200.34 317.16 200.34
  L 267.12 200.34
  A 1.36 1.36 0.0 0 0 265.76 201.71
  Q 266.30 274.00 265.70 341.30
  A 1.34 1.34 0.0 0 1 264.28 342.63
  L 261.65 342.47
  Q 260.63 342.41 260.63 341.40
  L 260.68 201.78
  A 1.41 1.40 90.0 0 0 259.28 200.37
  L 209.07 200.32
  Q 208.20 200.32 208.20 201.18
  L 208.18 341.78
  A 0.98 0.97 -89.1 0 1 207.18 342.76
  L 203.65 342.66
  Q 203.03 342.65 203.03 342.02
  L 203.01 200.70
  A 0.32 0.31 90.0 0 0 202.70 200.38
  L 152.31 200.34
  A 0.91 0.91 0.0 0 0 151.40 201.26
  Q 152.25 271.43 151.10 341.82
  A 0.60 0.60 0.0 0 1 150.48 342.41
  L 147.24 342.30
  Q 146.75 342.28 146.74 341.79
  Q 145.82 271.53 146.58 201.14
  A 0.79 0.79 0.0 0 0 145.79 200.34
  L 94.95 200.34
  A 1.02 1.02 0.0 0 0 93.93 201.36
  Q 94.22 259.47 93.63 316.81
  Q 93.50 329.39 93.06 341.27
  Q 93.02 342.34 91.95 342.38
  L 90.77 342.41
  A 1.14 1.14 0.0 0 1 89.59 341.26
  C 89.69 325.05 88.79 308.22 88.77 291.35
  Q 88.73 248.60 88.84 201.38
  A 1.12 1.11 89.7 0 0 87.72 200.26
  L 33.47 200.52
  A 0.55 0.55 0.0 0 1 32.92 199.97
  L 32.80 161.89
  A 0.94 0.93 -0.0 0 1 33.74 160.96
  L 88.03 161.06
  Q 88.76 161.06 88.76 160.33
  C 88.70 113.19 88.57 66.59 89.48 19.74
  Q 89.49 19.20 89.97 18.93
  Q 90.60 18.59 91.39 18.77
  Q 91.75 18.85 92.11 18.75
  Q 92.83 18.55 93.25 19.07
  Q 93.47 19.34 93.47 19.67
  Q 93.86 90.61 94.07 160.35
  A 0.67 0.67 0.0 0 0 94.74 161.02
  L 145.97 161.02
  A 0.49 0.48 -0.6 0 0 146.46 160.53
  Q 145.82 92.42 146.93 19.46
  Q 146.93 19.08 147.31 19.06
  L 150.82 18.89
  Q 151.26 18.87 151.26 19.31
  L 151.83 160.55
  A 0.46 0.46 0.0 0 0 152.30 161.01
  L 202.24 161.00
  A 0.74 0.74 0.0 0 0 202.98 160.26
  L 203.11 19.97
  Q 203.11 18.79 204.28 18.78
  L 206.76 18.76
  Q 208.02 18.75 208.03 20.01
  L 208.27 160.26
  Q 208.27 161.00 209.01 161.00
  L 259.75 161.00
  A 0.75 0.75 0.0 0 0 260.50 160.25
  L 260.87 20.14
  Q 260.87 18.89 262.11 18.98
  L 264.47 19.14
  Q 265.54 19.22 265.45 20.29
  Q 265.07 24.84 265.16 28.67
  C 265.40 38.22 265.96 47.96 265.96 57.54
  Q 266.02 107.59 265.97 159.55
  Q 265.97 160.18 266.59 160.18
  L 317.21 160.58
  Q 317.76 160.59 317.76 160.04
  L 317.76 18.91
  Q 317.76 18.33 318.34 18.32
  L 322.06 18.29
  Q 322.71 18.28 322.71 18.93
  Q 322.71 89.10 322.54 159.50
  Q 322.54 159.77 322.53 160.04
  Q 322.52 160.57 323.05 160.57
  L 374.95 160.78
  Q 375.97 160.79 375.05 160.36
  Z
  M 715.94 166.60
  A 0.36 0.36 0.0 0 0 715.58 166.24
  L 38.78 166.24
  A 0.36 0.36 0.0 0 0 38.42 166.60
  L 38.42 194.74
  A 0.36 0.36 0.0 0 0 38.78 195.10
  L 715.58 195.10
  A 0.36 0.36 0.0 0 0 715.94 194.74
  L 715.94 166.60
  Z"
/>
<rect fill="#ffffff" x="38.42" y="166.24" width="677.52" height="28.86" rx="0.36"/>
</svg>
