<svg xmlns="http://www.w3.org/2000/svg" viewBox="0 0 210 184"><g xmlns="http://www.w3.org/2000/svg" transform="matrix(0 -1 1 0 -0 184)"><g stroke-width="2.00" fill="none" stroke-linecap="butt"><path stroke="#808080" vector-effect="non-scaling-stroke" d="   M 184.00 72.87   Q 183.66 64.09 183.69 55.29   C 183.75 40.80 183.40 27.27 183.74 13.25   Q 183.97 3.65 174.90 1.13   Q 171.94 0.30 170.25 0.30   Q 96.20 0.26 14.25 0.30   Q 2.18 0.31 0.00 12.51" /><path stroke="#808080" vector-effect="non-scaling-stroke" d="   M 184.00 135.53   Q 183.46 165.00 183.73 194.46   Q 183.78 200.70 182.85 202.93   C 180.51 208.54 175.55 209.17 170.14 210.00" /><path stroke="#808080" vector-effect="non-scaling-stroke" d="   M 13.22 210.00   Q 10.83 209.50 8.52 208.92   C 2.56 207.43 1.38 203.21 0.00 197.96" /><path stroke="#808080" vector-effect="non-scaling-stroke" d="   M 14.75 4.05   C 8.52 4.04 3.55 8.73 3.54 15.21   Q 3.50 40.63 3.56 66.54   Q 3.56 67.50 4.52 67.50   L 179.78 67.50   Q 180.72 67.50 180.73 66.56   Q 181.03 36.42 180.87 18.10   C 180.80 9.92 178.46 4.03 168.97 4.04   Q 94.44 4.11 14.75 4.05" /><path stroke="#808080" vector-effect="non-scaling-stroke" d="   M 180.93 72.05   A 0.26 0.26 0.0 0 0 180.67 71.79   L 3.81 71.79   A 0.26 0.26 0.0 0 0 3.55 72.05   L 3.55 97.67   A 0.26 0.26 0.0 0 0 3.81 97.93   L 180.67 97.93   A 0.26 0.26 0.0 0 0 180.93 97.67   L 180.93 72.05" /><path stroke="#808080" vector-effect="non-scaling-stroke" d="   M 180.86 102.27   A 0.31 0.31 0.0 0 0 180.55 101.96   L 4.03 101.96   A 0.31 0.31 0.0 0 0 3.72 102.27   L 3.72 107.95   A 0.31 0.31 0.0 0 0 4.03 108.26   L 180.55 108.26   A 0.31 0.31 0.0 0 0 180.86 107.95   L 180.86 102.27" /><path stroke="#808080" vector-effect="non-scaling-stroke" d="   M 180.89 112.84   A 0.26 0.26 0.0 0 0 180.63 112.58   L 3.81 112.58   A 0.26 0.26 0.0 0 0 3.55 112.84   L 3.55 138.48   A 0.26 0.26 0.0 0 0 3.81 138.74   L 180.63 138.74   A 0.26 0.26 0.0 0 0 180.89 138.48   L 180.89 112.84" /><path stroke="#808080" vector-effect="non-scaling-stroke" d="   M 180.23 142.85   L 4.17 142.85   A 0.73 0.73 0.0 0 0 3.44 143.58   L 3.44 194.12   A 12.79 12.63 -0.0 0 0 16.23 206.75   L 168.17 206.75   A 12.79 12.63 0.0 0 0 180.96 194.12   L 180.96 143.58   A 0.73 0.73 0.0 0 0 180.23 142.85" /></g><path fill="#ffffff" d="   M 0.00 0.00   L 184.00 0.00   L 184.00 72.87   Q 183.66 64.09 183.69 55.29   C 183.75 40.80 183.40 27.27 183.74 13.25   Q 183.97 3.65 174.90 1.13   Q 171.94 0.30 170.25 0.30   Q 96.20 0.26 14.25 0.30   Q 2.18 0.31 0.00 12.51   L 0.00 0.00   Z" /><path fill="#000000" d="   M 184.00 72.87   L 184.00 135.53   Q 183.46 165.00 183.73 194.46   Q 183.78 200.70 182.85 202.93   C 180.51 208.54 175.55 209.17 170.14 210.00   L 13.22 210.00   Q 10.83 209.50 8.52 208.92   C 2.56 207.43 1.38 203.21 0.00 197.96   L 0.00 12.51   Q 2.18 0.31 14.25 0.30   Q 96.20 0.26 170.25 0.30   Q 171.94 0.30 174.90 1.13   Q 183.97 3.65 183.74 13.25   C 183.40 27.27 183.75 40.80 183.69 55.29   Q 183.66 64.09 184.00 72.87   Z   M 14.75 4.05   C 8.52 4.04 3.55 8.73 3.54 15.21   Q 3.50 40.63 3.56 66.54   Q 3.56 67.50 4.52 67.50   L 179.78 67.50   Q 180.72 67.50 180.73 66.56   Q 181.03 36.42 180.87 18.10   C 180.80 9.92 178.46 4.03 168.97 4.04   Q 94.44 4.11 14.75 4.05   Z   M 180.93 72.05   A 0.26 0.26 0.0 0 0 180.67 71.79   L 3.81 71.79   A 0.26 0.26 0.0 0 0 3.55 72.05   L 3.55 97.67   A 0.26 0.26 0.0 0 0 3.81 97.93   L 180.67 97.93   A 0.26 0.26 0.0 0 0 180.93 97.67   L 180.93 72.05   Z   M 180.86 102.27   A 0.31 0.31 0.0 0 0 180.55 101.96   L 4.03 101.96   A 0.31 0.31 0.0 0 0 3.72 102.27   L 3.72 107.95   A 0.31 0.31 0.0 0 0 4.03 108.26   L 180.55 108.26   A 0.31 0.31 0.0 0 0 180.86 107.95   L 180.86 102.27   Z   M 180.89 112.84   A 0.26 0.26 0.0 0 0 180.63 112.58   L 3.81 112.58   A 0.26 0.26 0.0 0 0 3.55 112.84   L 3.55 138.48   A 0.26 0.26 0.0 0 0 3.81 138.74   L 180.63 138.74   A 0.26 0.26 0.0 0 0 180.89 138.48   L 180.89 112.84   Z   M 180.23 142.85   L 4.17 142.85   A 0.73 0.73 0.0 0 0 3.44 143.58   L 3.44 194.12   A 12.79 12.63 -0.0 0 0 16.23 206.75   L 168.17 206.75   A 12.79 12.63 0.0 0 0 180.96 194.12   L 180.96 143.58   A 0.73 0.73 0.0 0 0 180.23 142.85   Z" /><path fill="#ffffff" d="   M 3.54 15.21   C 3.55 8.73 8.52 4.04 14.75 4.05   Q 94.44 4.11 168.97 4.04   C 178.46 4.03 180.80 9.92 180.87 18.10   Q 181.03 36.42 180.73 66.56   Q 180.72 67.50 179.78 67.50   L 4.52 67.50   Q 3.56 67.50 3.56 66.54   Q 3.50 40.63 3.54 15.21   Z" /><rect fill="#ffffff" x="3.55" y="71.79" width="177.38" height="26.14" rx="0.26" /><rect fill="#ffffff" x="3.72" y="101.96" width="177.14" height="6.30" rx="0.31" /><rect fill="#ffffff" x="3.55" y="112.58" width="177.34" height="26.16" rx="0.26" /><path fill="#ffffff" d="   M 184.00 135.53   L 184.00 210.00   L 170.14 210.00   C 175.55 209.17 180.51 208.54 182.85 202.93   Q 183.78 200.70 183.73 194.46   Q 183.46 165.00 184.00 135.53   Z" /><path fill="#ffffff" d="   M 180.23 142.85   A 0.73 0.73 0.0 0 1 180.96 143.58   L 180.96 194.12   A 12.79 12.63 0.0 0 1 168.17 206.75   L 16.23 206.75   A 12.79 12.63 -0.0 0 1 3.44 194.12   L 3.44 143.58   A 0.73 0.73 0.0 0 1 4.17 142.85   L 180.23 142.85   Z" /><path fill="#ffffff" d="   M 0.00 197.96   C 1.38 203.21 2.56 207.43 8.52 208.92   Q 10.83 209.50 13.22 210.00   L 0.00 210.00   L 0.00 197.96   Z" /></g></svg>