<?xml version="1.0" encoding="UTF-8" standalone="no"?>
<!DOCTYPE svg PUBLIC "-//W3C//DTD SVG 1.1//EN" "http://www.w3.org/Graphics/SVG/1.1/DTD/svg11.dtd">
<svg xmlns="http://www.w3.org/2000/svg" version="1.1" viewBox="0.00 0.00 106.00 242.00">
<g stroke-width="2.00" fill="none" stroke-linecap="butt">
<path stroke="#808080" vector-effect="non-scaling-stroke" d="
  M 44.26 3.70
  A 0.47 0.47 0.0 0 0 43.79 3.23
  L 4.31 3.23
  A 0.47 0.47 0.0 0 0 3.84 3.70
  L 3.84 238.24
  A 0.47 0.47 0.0 0 0 4.31 238.71
  L 43.79 238.71
  A 0.47 0.47 0.0 0 0 44.26 238.24
  L 44.26 3.70"
/>
<path stroke="#808080" vector-effect="non-scaling-stroke" d="
  M 101.89 4.07
  A 0.85 0.85 0.0 0 0 101.04 3.22
  L 62.04 3.29
  A 0.85 0.85 0.0 0 0 61.19 4.14
  L 61.17 237.82
  A 0.85 0.85 0.0 0 0 62.02 238.67
  L 101.07 238.76
  A 0.85 0.85 0.0 0 0 101.92 237.91
  L 101.89 4.07"
/>
<path stroke="#808080" vector-effect="non-scaling-stroke" d="
  M 56.79 4.13
  A 0.61 0.61 0.0 0 0 56.18 3.52
  L 49.36 3.52
  A 0.61 0.61 0.0 0 0 48.75 4.13
  L 48.75 237.59
  A 0.61 0.61 0.0 0 0 49.36 238.20
  L 56.18 238.20
  A 0.61 0.61 0.0 0 0 56.79 237.59
  L 56.79 4.13"
/>
</g>
<path fill="#000000" d="
  M 0.00 0.00
  L 106.00 0.00
  L 106.00 242.00
  L 0.00 242.00
  L 0.00 0.00
  Z
  M 44.26 3.70
  A 0.47 0.47 0.0 0 0 43.79 3.23
  L 4.31 3.23
  A 0.47 0.47 0.0 0 0 3.84 3.70
  L 3.84 238.24
  A 0.47 0.47 0.0 0 0 4.31 238.71
  L 43.79 238.71
  A 0.47 0.47 0.0 0 0 44.26 238.24
  L 44.26 3.70
  Z
  M 101.89 4.07
  A 0.85 0.85 0.0 0 0 101.04 3.22
  L 62.04 3.29
  A 0.85 0.85 0.0 0 0 61.19 4.14
  L 61.17 237.82
  A 0.85 0.85 0.0 0 0 62.02 238.67
  L 101.07 238.76
  A 0.85 0.85 0.0 0 0 101.92 237.91
  L 101.89 4.07
  Z
  M 56.79 4.13
  A 0.61 0.61 0.0 0 0 56.18 3.52
  L 49.36 3.52
  A 0.61 0.61 0.0 0 0 48.75 4.13
  L 48.75 237.59
  A 0.61 0.61 0.0 0 0 49.36 238.20
  L 56.18 238.20
  A 0.61 0.61 0.0 0 0 56.79 237.59
  L 56.79 4.13
  Z"
/>
<rect fill="#ffffff" x="3.84" y="3.23" width="40.42" height="235.48" rx="0.47"/>
<path fill="#ffffff" d="
  M 101.89 4.07
  L 101.92 237.91
  A 0.85 0.85 0.0 0 1 101.07 238.76
  L 62.02 238.67
  A 0.85 0.85 0.0 0 1 61.17 237.82
  L 61.19 4.14
  A 0.85 0.85 0.0 0 1 62.04 3.29
  L 101.04 3.22
  A 0.85 0.85 0.0 0 1 101.89 4.07
  Z"
/>
<rect fill="#ffffff" x="48.75" y="3.52" width="8.04" height="234.68" rx="0.61"/>
</svg>
