<?xml version="1.0" encoding="UTF-8" standalone="no"?>
<!DOCTYPE svg PUBLIC "-//W3C//DTD SVG 1.1//EN" "http://www.w3.org/Graphics/SVG/1.1/DTD/svg11.dtd">
<svg xmlns="http://www.w3.org/2000/svg" version="1.1" viewBox="0.00 0.00 202.00 416.00">
<g stroke-width="2.00" fill="none" stroke-linecap="butt">
<path stroke="#808080" vector-effect="non-scaling-stroke" d="
  M 91.04 84.27
  L 91.03 111.94
  A 0.28 0.28 0.0 0 1 90.75 112.22
  Q 50.54 112.12 14.72 112.24
  Q 13.84 112.24 13.00 112.04
  Q 12.36 111.90 12.34 112.55
  L 12.27 114.26
  Q 12.24 115.03 13.01 115.03
  L 90.54 115.04
  Q 91.05 115.04 91.05 115.55
  L 91.03 143.25
  A 0.85 0.85 0.0 0 1 90.18 144.10
  Q 53.37 143.99 15.06 144.08
  Q 14.14 144.08 13.09 143.96
  Q 12.50 143.88 12.45 144.48
  L 12.33 146.01
  A 0.71 0.70 3.5 0 0 13.01 146.77
  Q 16.68 146.93 20.76 146.95
  Q 52.48 147.10 90.46 146.92
  Q 91.04 146.92 91.04 147.50
  L 91.06 172.29
  A 0.92 0.92 0.0 0 1 90.14 173.21
  Q 60.16 172.99 33.35 173.35
  Q 24.76 173.46 13.26 175.40
  Q 12.32 175.56 12.35 176.52
  L 12.37 177.30
  A 0.76 0.76 0.0 0 0 13.18 178.04
  L 21.92 177.41
  A 0.65 0.64 -1.2 0 1 22.62 178.07
  L 22.02 206.51
  Q 22.00 207.26 21.24 207.25
  L 12.98 207.13
  Q 12.32 207.12 12.31 207.77
  L 12.29 209.55
  Q 12.29 210.32 13.05 210.31
  L 21.34 210.11
  Q 22.09 210.09 22.09 210.84
  L 22.28 237.96
  Q 22.28 238.71 21.53 238.68
  L 13.17 238.30
  Q 12.35 238.26 12.31 239.08
  L 12.24 240.49
  A 0.95 0.94 -88.5 0 0 13.17 241.48
  Q 15.69 241.52 18.50 241.64
  C 21.02 241.74 23.64 242.98 26.52 243.00
  Q 58.86 243.16 90.23 243.10
  Q 91.07 243.10 91.07 243.94
  L 91.04 269.77
  Q 91.04 270.32 90.48 270.32
  L 12.93 270.29
  Q 12.39 270.29 12.37 270.82
  L 12.31 272.68
  Q 12.29 273.33 12.94 273.33
  L 90.54 273.29
  Q 91.04 273.29 91.04 273.79
  L 91.03 301.00
  Q 91.03 301.54 90.50 301.54
  L 12.93 301.66
  Q 12.46 301.67 12.45 302.14
  L 12.44 304.04
  Q 12.44 304.64 13.04 304.64
  L 90.46 304.62
  Q 91.04 304.62 91.04 305.21
  L 91.03 332.95
  Q 91.03 333.54 90.43 333.54
  Q 51.61 333.34 13.14 333.59
  Q 12.42 333.59 12.40 334.31
  L 12.38 335.72
  Q 12.37 336.57 13.22 336.57
  L 90.46 336.61
  Q 91.06 336.61 91.06 337.21
  L 91.03 364.47
  A 0.25 0.25 0.0 0 1 90.78 364.72
  L 13.11 364.82
  Q 12.54 364.82 12.46 365.39
  L 12.25 366.78
  A 0.79 0.79 0.0 0 0 13.03 367.70
  L 90.47 367.77
  Q 91.05 367.77 91.05 368.35
  L 91.02 398.02
  Q 91.02 398.76 91.77 398.76
  L 112.50 398.75
  A 0.26 0.25 0.0 0 0 112.76 398.50
  L 112.80 368.22
  Q 112.80 367.75 113.28 367.75
  L 191.09 367.73
  Q 191.47 367.73 191.47 367.35
  L 191.49 365.25
  A 0.49 0.49 0.0 0 0 191.00 364.76
  L 113.02 364.74
  A 0.23 0.22 0.0 0 1 112.79 364.52
  L 112.80 337.29
  Q 112.80 336.62 113.46 336.62
  L 190.74 336.54
  A 0.77 0.76 89.6 0 0 191.50 335.76
  L 191.48 334.25
  A 0.73 0.73 0.0 0 0 190.75 333.53
  L 113.25 333.45
  A 0.45 0.45 0.0 0 1 112.80 333.00
  L 112.80 305.32
  A 0.65 0.64 90.0 0 1 113.44 304.67
  L 190.94 304.57
  Q 191.45 304.57 191.46 304.06
  L 191.47 302.26
  Q 191.48 301.67 190.89 301.67
  L 113.07 301.54
  A 0.27 0.27 0.0 0 1 112.80 301.27
  L 112.80 273.52
  A 0.19 0.18 90.0 0 1 112.98 273.33
  L 191.00 273.25
  Q 191.50 273.25 191.50 272.75
  L 191.53 270.95
  Q 191.54 270.36 190.95 270.36
  L 113.29 270.28
  A 0.49 0.48 -90.0 0 1 112.81 269.79
  L 112.77 243.55
  Q 112.77 243.08 113.24 243.08
  Q 144.87 243.17 176.22 243.00
  Q 179.64 242.98 182.40 242.15
  Q 186.06 241.04 190.47 241.25
  Q 191.52 241.29 191.51 240.25
  L 191.51 239.74
  Q 191.50 238.73 190.49 238.74
  L 182.81 238.82
  A 1.01 1.00 -0.0 0 1 181.79 237.81
  L 181.98 210.66
  Q 181.98 210.05 182.59 210.07
  L 190.75 210.25
  Q 191.51 210.27 191.50 209.51
  L 191.50 207.81
  Q 191.49 207.13 190.81 207.15
  L 182.54 207.28
  A 0.49 0.49 0.0 0 1 182.04 206.79
  L 181.76 177.93
  Q 181.75 177.35 182.32 177.38
  L 190.42 177.83
  Q 191.48 177.89 191.48 176.83
  L 191.48 176.49
  Q 191.48 175.64 190.63 175.54
  Q 186.69 175.08 183.08 174.52
  C 182.08 174.37 181.40 173.70 180.36 173.73
  C 176.17 173.84 172.10 173.20 167.96 173.19
  Q 139.72 173.16 113.61 173.15
  Q 112.77 173.15 112.78 172.32
  L 112.80 147.53
  Q 112.80 146.98 113.35 146.98
  Q 140.76 147.05 174.40 146.96
  C 179.86 146.94 185.25 146.19 190.66 146.73
  Q 191.23 146.79 191.27 146.21
  L 191.36 144.92
  A 0.70 0.70 0.0 0 0 190.66 144.18
  L 113.33 143.98
  A 0.54 0.53 0.6 0 1 112.80 143.45
  L 112.80 115.51
  Q 112.79 115.07 113.24 115.07
  L 190.75 114.97
  Q 191.47 114.97 191.47 114.25
  L 191.47 112.98
  A 0.74 0.73 0.4 0 0 190.73 112.24
  L 113.24 112.17
  A 0.44 0.43 0.7 0 1 112.81 111.74
  L 112.79 84.30
  Q 112.78 83.87 113.21 83.87
  L 191.22 83.56
  Q 191.43 83.56 191.42 83.35
  L 191.32 81.46
  Q 191.31 81.15 191.01 81.15
  Q 150.42 80.55 113.18 80.90
  A 0.38 0.38 0.0 0 1 112.79 80.52
  L 112.79 52.45
  Q 112.79 51.93 113.30 51.93
  L 191.05 51.62
  Q 191.47 51.62 191.48 51.20
  L 191.48 49.77
  Q 191.48 49.39 191.10 49.38
  Q 174.22 49.08 160.74 49.04
  Q 136.58 48.96 113.29 48.99
  Q 112.76 48.99 112.76 48.46
  L 112.85 18.57
  A 0.53 0.52 -0.0 0 0 112.32 18.05
  L 91.44 18.09
  Q 90.97 18.09 90.97 18.56
  L 91.08 48.42
  A 0.62 0.62 0.0 0 1 90.45 49.05
  Q 63.04 48.94 35.00 49.04
  C 27.76 49.07 20.53 49.70 13.32 49.38
  A 0.81 0.81 0.0 0 0 12.47 50.18
  L 12.47 50.56
  Q 12.46 51.34 13.25 51.37
  Q 17.14 51.53 21.48 51.60
  Q 48.75 52.01 90.41 51.85
  Q 91.04 51.84 91.04 52.48
  L 91.04 80.45
  Q 91.04 80.99 90.50 80.99
  Q 57.25 80.53 16.00 81.03
  Q 14.45 81.05 13.00 80.88
  A 0.45 0.44 4.1 0 0 12.50 81.31
  L 12.46 82.99
  Q 12.45 83.47 12.93 83.48
  Q 52.33 84.09 90.40 83.63
  Q 91.04 83.62 91.04 84.27"
/>
<path stroke="#808080" vector-effect="non-scaling-stroke" d="
  M 109.93 21.24
  A 0.27 0.27 0.0 0 0 109.66 20.97
  L 94.20 20.97
  A 0.27 0.27 0.0 0 0 93.93 21.24
  L 93.93 172.88
  A 0.27 0.27 0.0 0 0 94.20 173.15
  L 109.66 173.15
  A 0.27 0.27 0.0 0 0 109.93 172.88
  L 109.93 21.24"
/>
<path stroke="#808080" vector-effect="non-scaling-stroke" d="
  M 179.10 177.23
  A 1.21 1.21 0.0 0 0 177.89 176.02
  L 26.17 176.02
  A 1.21 1.21 0.0 0 0 24.96 177.23
  L 24.96 201.41
  A 1.21 1.21 0.0 0 0 26.17 202.62
  L 177.89 202.62
  A 1.21 1.21 0.0 0 0 179.10 201.41
  L 179.10 177.23"
/>
<path stroke="#808080" vector-effect="non-scaling-stroke" d="
  M 178.89 206.13
  A 0.73 0.73 0.0 0 0 178.16 205.40
  L 26.08 205.40
  A 0.73 0.73 0.0 0 0 25.35 206.13
  L 25.35 210.03
  A 0.73 0.73 0.0 0 0 26.08 210.76
  L 178.16 210.76
  A 0.73 0.73 0.0 0 0 178.89 210.03
  L 178.89 206.13"
/>
<path stroke="#808080" vector-effect="non-scaling-stroke" d="
  M 179.09 213.97
  A 0.40 0.40 0.0 0 0 178.69 213.57
  L 25.49 213.57
  A 0.40 0.40 0.0 0 0 25.09 213.97
  L 25.09 239.79
  A 0.40 0.40 0.0 0 0 25.49 240.19
  L 178.69 240.19
  A 0.40 0.40 0.0 0 0 179.09 239.79
  L 179.09 213.97"
/>
<path stroke="#808080" vector-effect="non-scaling-stroke" d="
  M 109.92 243.67
  A 0.55 0.55 0.0 0 0 109.37 243.12
  L 94.49 243.12
  A 0.55 0.55 0.0 0 0 93.94 243.67
  L 93.94 395.29
  A 0.55 0.55 0.0 0 0 94.49 395.84
  L 109.37 395.84
  A 0.55 0.55 0.0 0 0 109.92 395.29
  L 109.92 243.67"
/>
</g>
<path fill="#ffffff" d="
  M 0.00 0.00
  L 202.00 0.00
  L 202.00 416.00
  L 0.00 416.00
  L 0.00 0.00
  Z
  M 91.04 84.27
  L 91.03 111.94
  A 0.28 0.28 0.0 0 1 90.75 112.22
  Q 50.54 112.12 14.72 112.24
  Q 13.84 112.24 13.00 112.04
  Q 12.36 111.90 12.34 112.55
  L 12.27 114.26
  Q 12.24 115.03 13.01 115.03
  L 90.54 115.04
  Q 91.05 115.04 91.05 115.55
  L 91.03 143.25
  A 0.85 0.85 0.0 0 1 90.18 144.10
  Q 53.37 143.99 15.06 144.08
  Q 14.14 144.08 13.09 143.96
  Q 12.50 143.88 12.45 144.48
  L 12.33 146.01
  A 0.71 0.70 3.5 0 0 13.01 146.77
  Q 16.68 146.93 20.76 146.95
  Q 52.48 147.10 90.46 146.92
  Q 91.04 146.92 91.04 147.50
  L 91.06 172.29
  A 0.92 0.92 0.0 0 1 90.14 173.21
  Q 60.16 172.99 33.35 173.35
  Q 24.76 173.46 13.26 175.40
  Q 12.32 175.56 12.35 176.52
  L 12.37 177.30
  A 0.76 0.76 0.0 0 0 13.18 178.04
  L 21.92 177.41
  A 0.65 0.64 -1.2 0 1 22.62 178.07
  L 22.02 206.51
  Q 22.00 207.26 21.24 207.25
  L 12.98 207.13
  Q 12.32 207.12 12.31 207.77
  L 12.29 209.55
  Q 12.29 210.32 13.05 210.31
  L 21.34 210.11
  Q 22.09 210.09 22.09 210.84
  L 22.28 237.96
  Q 22.28 238.71 21.53 238.68
  L 13.17 238.30
  Q 12.35 238.26 12.31 239.08
  L 12.24 240.49
  A 0.95 0.94 -88.5 0 0 13.17 241.48
  Q 15.69 241.52 18.50 241.64
  C 21.02 241.74 23.64 242.98 26.52 243.00
  Q 58.86 243.16 90.23 243.10
  Q 91.07 243.10 91.07 243.94
  L 91.04 269.77
  Q 91.04 270.32 90.48 270.32
  L 12.93 270.29
  Q 12.39 270.29 12.37 270.82
  L 12.31 272.68
  Q 12.29 273.33 12.94 273.33
  L 90.54 273.29
  Q 91.04 273.29 91.04 273.79
  L 91.03 301.00
  Q 91.03 301.54 90.50 301.54
  L 12.93 301.66
  Q 12.46 301.67 12.45 302.14
  L 12.44 304.04
  Q 12.44 304.64 13.04 304.64
  L 90.46 304.62
  Q 91.04 304.62 91.04 305.21
  L 91.03 332.95
  Q 91.03 333.54 90.43 333.54
  Q 51.61 333.34 13.14 333.59
  Q 12.42 333.59 12.40 334.31
  L 12.38 335.72
  Q 12.37 336.57 13.22 336.57
  L 90.46 336.61
  Q 91.06 336.61 91.06 337.21
  L 91.03 364.47
  A 0.25 0.25 0.0 0 1 90.78 364.72
  L 13.11 364.82
  Q 12.54 364.82 12.46 365.39
  L 12.25 366.78
  A 0.79 0.79 0.0 0 0 13.03 367.70
  L 90.47 367.77
  Q 91.05 367.77 91.05 368.35
  L 91.02 398.02
  Q 91.02 398.76 91.77 398.76
  L 112.50 398.75
  A 0.26 0.25 0.0 0 0 112.76 398.50
  L 112.80 368.22
  Q 112.80 367.75 113.28 367.75
  L 191.09 367.73
  Q 191.47 367.73 191.47 367.35
  L 191.49 365.25
  A 0.49 0.49 0.0 0 0 191.00 364.76
  L 113.02 364.74
  A 0.23 0.22 0.0 0 1 112.79 364.52
  L 112.80 337.29
  Q 112.80 336.62 113.46 336.62
  L 190.74 336.54
  A 0.77 0.76 89.6 0 0 191.50 335.76
  L 191.48 334.25
  A 0.73 0.73 0.0 0 0 190.75 333.53
  L 113.25 333.45
  A 0.45 0.45 0.0 0 1 112.80 333.00
  L 112.80 305.32
  A 0.65 0.64 90.0 0 1 113.44 304.67
  L 190.94 304.57
  Q 191.45 304.57 191.46 304.06
  L 191.47 302.26
  Q 191.48 301.67 190.89 301.67
  L 113.07 301.54
  A 0.27 0.27 0.0 0 1 112.80 301.27
  L 112.80 273.52
  A 0.19 0.18 90.0 0 1 112.98 273.33
  L 191.00 273.25
  Q 191.50 273.25 191.50 272.75
  L 191.53 270.95
  Q 191.54 270.36 190.95 270.36
  L 113.29 270.28
  A 0.49 0.48 -90.0 0 1 112.81 269.79
  L 112.77 243.55
  Q 112.77 243.08 113.24 243.08
  Q 144.87 243.17 176.22 243.00
  Q 179.64 242.98 182.40 242.15
  Q 186.06 241.04 190.47 241.25
  Q 191.52 241.29 191.51 240.25
  L 191.51 239.74
  Q 191.50 238.73 190.49 238.74
  L 182.81 238.82
  A 1.01 1.00 -0.0 0 1 181.79 237.81
  L 181.98 210.66
  Q 181.98 210.05 182.59 210.07
  L 190.75 210.25
  Q 191.51 210.27 191.50 209.51
  L 191.50 207.81
  Q 191.49 207.13 190.81 207.15
  L 182.54 207.28
  A 0.49 0.49 0.0 0 1 182.04 206.79
  L 181.76 177.93
  Q 181.75 177.35 182.32 177.38
  L 190.42 177.83
  Q 191.48 177.89 191.48 176.83
  L 191.48 176.49
  Q 191.48 175.64 190.63 175.54
  Q 186.69 175.08 183.08 174.52
  C 182.08 174.37 181.40 173.70 180.36 173.73
  C 176.17 173.84 172.10 173.20 167.96 173.19
  Q 139.72 173.16 113.61 173.15
  Q 112.77 173.15 112.78 172.32
  L 112.80 147.53
  Q 112.80 146.98 113.35 146.98
  Q 140.76 147.05 174.40 146.96
  C 179.86 146.94 185.25 146.19 190.66 146.73
  Q 191.23 146.79 191.27 146.21
  L 191.36 144.92
  A 0.70 0.70 0.0 0 0 190.66 144.18
  L 113.33 143.98
  A 0.54 0.53 0.6 0 1 112.80 143.45
  L 112.80 115.51
  Q 112.79 115.07 113.24 115.07
  L 190.75 114.97
  Q 191.47 114.97 191.47 114.25
  L 191.47 112.98
  A 0.74 0.73 0.4 0 0 190.73 112.24
  L 113.24 112.17
  A 0.44 0.43 0.7 0 1 112.81 111.74
  L 112.79 84.30
  Q 112.78 83.87 113.21 83.87
  L 191.22 83.56
  Q 191.43 83.56 191.42 83.35
  L 191.32 81.46
  Q 191.31 81.15 191.01 81.15
  Q 150.42 80.55 113.18 80.90
  A 0.38 0.38 0.0 0 1 112.79 80.52
  L 112.79 52.45
  Q 112.79 51.93 113.30 51.93
  L 191.05 51.62
  Q 191.47 51.62 191.48 51.20
  L 191.48 49.77
  Q 191.48 49.39 191.10 49.38
  Q 174.22 49.08 160.74 49.04
  Q 136.58 48.96 113.29 48.99
  Q 112.76 48.99 112.76 48.46
  L 112.85 18.57
  A 0.53 0.52 -0.0 0 0 112.32 18.05
  L 91.44 18.09
  Q 90.97 18.09 90.97 18.56
  L 91.08 48.42
  A 0.62 0.62 0.0 0 1 90.45 49.05
  Q 63.04 48.94 35.00 49.04
  C 27.76 49.07 20.53 49.70 13.32 49.38
  A 0.81 0.81 0.0 0 0 12.47 50.18
  L 12.47 50.56
  Q 12.46 51.34 13.25 51.37
  Q 17.14 51.53 21.48 51.60
  Q 48.75 52.01 90.41 51.85
  Q 91.04 51.84 91.04 52.48
  L 91.04 80.45
  Q 91.04 80.99 90.50 80.99
  Q 57.25 80.53 16.00 81.03
  Q 14.45 81.05 13.00 80.88
  A 0.45 0.44 4.1 0 0 12.50 81.31
  L 12.46 82.99
  Q 12.45 83.47 12.93 83.48
  Q 52.33 84.09 90.40 83.63
  Q 91.04 83.62 91.04 84.27
  Z"
/>
<path fill="#000000" d="
  M 90.40 83.63
  Q 52.33 84.09 12.93 83.48
  Q 12.45 83.47 12.46 82.99
  L 12.50 81.31
  A 0.45 0.44 4.1 0 1 13.00 80.88
  Q 14.45 81.05 16.00 81.03
  Q 57.25 80.53 90.50 80.99
  Q 91.04 80.99 91.04 80.45
  L 91.04 52.48
  Q 91.04 51.84 90.41 51.85
  Q 48.75 52.01 21.48 51.60
  Q 17.14 51.53 13.25 51.37
  Q 12.46 51.34 12.47 50.56
  L 12.47 50.18
  A 0.81 0.81 0.0 0 1 13.32 49.38
  C 20.53 49.70 27.76 49.07 35.00 49.04
  Q 63.04 48.94 90.45 49.05
  A 0.62 0.62 0.0 0 0 91.08 48.42
  L 90.97 18.56
  Q 90.97 18.09 91.44 18.09
  L 112.32 18.05
  A 0.53 0.52 -0.0 0 1 112.85 18.57
  L 112.76 48.46
  Q 112.76 48.99 113.29 48.99
  Q 136.58 48.96 160.74 49.04
  Q 174.22 49.08 191.10 49.38
  Q 191.48 49.39 191.48 49.77
  L 191.48 51.20
  Q 191.47 51.62 191.05 51.62
  L 113.30 51.93
  Q 112.79 51.93 112.79 52.45
  L 112.79 80.52
  A 0.38 0.38 0.0 0 0 113.18 80.90
  Q 150.42 80.55 191.01 81.15
  Q 191.31 81.15 191.32 81.46
  L 191.42 83.35
  Q 191.43 83.56 191.22 83.56
  L 113.21 83.87
  Q 112.78 83.87 112.79 84.30
  L 112.81 111.74
  A 0.44 0.43 0.7 0 0 113.24 112.17
  L 190.73 112.24
  A 0.74 0.73 0.4 0 1 191.47 112.98
  L 191.47 114.25
  Q 191.47 114.97 190.75 114.97
  L 113.24 115.07
  Q 112.79 115.07 112.80 115.51
  L 112.80 143.45
  A 0.54 0.53 0.6 0 0 113.33 143.98
  L 190.66 144.18
  A 0.70 0.70 0.0 0 1 191.36 144.92
  L 191.27 146.21
  Q 191.23 146.79 190.66 146.73
  C 185.25 146.19 179.86 146.94 174.40 146.96
  Q 140.76 147.05 113.35 146.98
  Q 112.80 146.98 112.80 147.53
  L 112.78 172.32
  Q 112.77 173.15 113.61 173.15
  Q 139.72 173.16 167.96 173.19
  C 172.10 173.20 176.17 173.84 180.36 173.73
  C 181.40 173.70 182.08 174.37 183.08 174.52
  Q 186.69 175.08 190.63 175.54
  Q 191.48 175.64 191.48 176.49
  L 191.48 176.83
  Q 191.48 177.89 190.42 177.83
  L 182.32 177.38
  Q 181.75 177.35 181.76 177.93
  L 182.04 206.79
  A 0.49 0.49 0.0 0 0 182.54 207.28
  L 190.81 207.15
  Q 191.49 207.13 191.50 207.81
  L 191.50 209.51
  Q 191.51 210.27 190.75 210.25
  L 182.59 210.07
  Q 181.98 210.05 181.98 210.66
  L 181.79 237.81
  A 1.01 1.00 -0.0 0 0 182.81 238.82
  L 190.49 238.74
  Q 191.50 238.73 191.51 239.74
  L 191.51 240.25
  Q 191.52 241.29 190.47 241.25
  Q 186.06 241.04 182.40 242.15
  Q 179.64 242.98 176.22 243.00
  Q 144.87 243.17 113.24 243.08
  Q 112.77 243.08 112.77 243.55
  L 112.81 269.79
  A 0.49 0.48 -90.0 0 0 113.29 270.28
  L 190.95 270.36
  Q 191.54 270.36 191.53 270.95
  L 191.50 272.75
  Q 191.50 273.25 191.00 273.25
  L 112.98 273.33
  A 0.19 0.18 -90.0 0 0 112.80 273.52
  L 112.80 301.27
  A 0.27 0.27 0.0 0 0 113.07 301.54
  L 190.89 301.67
  Q 191.48 301.67 191.47 302.26
  L 191.46 304.06
  Q 191.45 304.57 190.94 304.57
  L 113.44 304.67
  A 0.65 0.64 90.0 0 0 112.80 305.32
  L 112.80 333.00
  A 0.45 0.45 0.0 0 0 113.25 333.45
  L 190.75 333.53
  A 0.73 0.73 0.0 0 1 191.48 334.25
  L 191.50 335.76
  A 0.77 0.76 89.6 0 1 190.74 336.54
  L 113.46 336.62
  Q 112.80 336.62 112.80 337.29
  L 112.79 364.52
  A 0.23 0.22 0.0 0 0 113.02 364.74
  L 191.00 364.76
  A 0.49 0.49 0.0 0 1 191.49 365.25
  L 191.47 367.35
  Q 191.47 367.73 191.09 367.73
  L 113.28 367.75
  Q 112.80 367.75 112.80 368.22
  L 112.76 398.50
  A 0.26 0.25 0.0 0 1 112.50 398.75
  L 91.77 398.76
  Q 91.02 398.76 91.02 398.02
  L 91.05 368.35
  Q 91.05 367.77 90.47 367.77
  L 13.03 367.70
  A 0.79 0.79 0.0 0 1 12.25 366.78
  L 12.46 365.39
  Q 12.54 364.82 13.11 364.82
  L 90.78 364.72
  A 0.25 0.25 0.0 0 0 91.03 364.47
  L 91.06 337.21
  Q 91.06 336.61 90.46 336.61
  L 13.22 336.57
  Q 12.37 336.57 12.38 335.72
  L 12.40 334.31
  Q 12.42 333.59 13.14 333.59
  Q 51.61 333.34 90.43 333.54
  Q 91.03 333.54 91.03 332.95
  L 91.04 305.21
  Q 91.04 304.62 90.46 304.62
  L 13.04 304.64
  Q 12.44 304.64 12.44 304.04
  L 12.45 302.14
  Q 12.46 301.67 12.93 301.66
  L 90.50 301.54
  Q 91.03 301.54 91.03 301.00
  L 91.04 273.79
  Q 91.04 273.29 90.54 273.29
  L 12.94 273.33
  Q 12.29 273.33 12.31 272.68
  L 12.37 270.82
  Q 12.39 270.29 12.93 270.29
  L 90.48 270.32
  Q 91.04 270.32 91.04 269.77
  L 91.07 243.94
  Q 91.07 243.10 90.23 243.10
  Q 58.86 243.16 26.52 243.00
  C 23.64 242.98 21.02 241.74 18.50 241.64
  Q 15.69 241.52 13.17 241.48
  A 0.95 0.94 -88.5 0 1 12.24 240.49
  L 12.31 239.08
  Q 12.35 238.26 13.17 238.30
  L 21.53 238.68
  Q 22.28 238.71 22.28 237.96
  L 22.09 210.84
  Q 22.09 210.09 21.34 210.11
  L 13.05 210.31
  Q 12.29 210.32 12.29 209.55
  L 12.31 207.77
  Q 12.32 207.12 12.98 207.13
  L 21.24 207.25
  Q 22.00 207.26 22.02 206.51
  L 22.62 178.07
  A 0.65 0.64 -1.2 0 0 21.92 177.41
  L 13.18 178.04
  A 0.76 0.76 0.0 0 1 12.37 177.30
  L 12.35 176.52
  Q 12.32 175.56 13.26 175.40
  Q 24.76 173.46 33.35 173.35
  Q 60.16 172.99 90.14 173.21
  A 0.92 0.92 0.0 0 0 91.06 172.29
  L 91.04 147.50
  Q 91.04 146.92 90.46 146.92
  Q 52.48 147.10 20.76 146.95
  Q 16.68 146.93 13.01 146.77
  A 0.71 0.70 3.5 0 1 12.33 146.01
  L 12.45 144.48
  Q 12.50 143.88 13.09 143.96
  Q 14.14 144.08 15.06 144.08
  Q 53.37 143.99 90.18 144.10
  A 0.85 0.85 0.0 0 0 91.03 143.25
  L 91.05 115.55
  Q 91.05 115.04 90.54 115.04
  L 13.01 115.03
  Q 12.24 115.03 12.27 114.26
  L 12.34 112.55
  Q 12.36 111.90 13.00 112.04
  Q 13.84 112.24 14.72 112.24
  Q 50.54 112.12 90.75 112.22
  A 0.28 0.28 0.0 0 0 91.03 111.94
  L 91.04 84.27
  Q 91.04 83.62 90.40 83.63
  Z
  M 109.93 21.24
  A 0.27 0.27 0.0 0 0 109.66 20.97
  L 94.20 20.97
  A 0.27 0.27 0.0 0 0 93.93 21.24
  L 93.93 172.88
  A 0.27 0.27 0.0 0 0 94.20 173.15
  L 109.66 173.15
  A 0.27 0.27 0.0 0 0 109.93 172.88
  L 109.93 21.24
  Z
  M 179.10 177.23
  A 1.21 1.21 0.0 0 0 177.89 176.02
  L 26.17 176.02
  A 1.21 1.21 0.0 0 0 24.96 177.23
  L 24.96 201.41
  A 1.21 1.21 0.0 0 0 26.17 202.62
  L 177.89 202.62
  A 1.21 1.21 0.0 0 0 179.10 201.41
  L 179.10 177.23
  Z
  M 178.89 206.13
  A 0.73 0.73 0.0 0 0 178.16 205.40
  L 26.08 205.40
  A 0.73 0.73 0.0 0 0 25.35 206.13
  L 25.35 210.03
  A 0.73 0.73 0.0 0 0 26.08 210.76
  L 178.16 210.76
  A 0.73 0.73 0.0 0 0 178.89 210.03
  L 178.89 206.13
  Z
  M 179.09 213.97
  A 0.40 0.40 0.0 0 0 178.69 213.57
  L 25.49 213.57
  A 0.40 0.40 0.0 0 0 25.09 213.97
  L 25.09 239.79
  A 0.40 0.40 0.0 0 0 25.49 240.19
  L 178.69 240.19
  A 0.40 0.40 0.0 0 0 179.09 239.79
  L 179.09 213.97
  Z
  M 109.92 243.67
  A 0.55 0.55 0.0 0 0 109.37 243.12
  L 94.49 243.12
  A 0.55 0.55 0.0 0 0 93.94 243.67
  L 93.94 395.29
  A 0.55 0.55 0.0 0 0 94.49 395.84
  L 109.37 395.84
  A 0.55 0.55 0.0 0 0 109.92 395.29
  L 109.92 243.67
  Z"
/>
<rect fill="#ffffff" x="93.93" y="20.97" width="16.00" height="152.18" rx="0.27"/>
<rect fill="#ffffff" x="24.96" y="176.02" width="154.14" height="26.60" rx="1.21"/>
<rect fill="#ffffff" x="25.35" y="205.40" width="153.54" height="5.36" rx="0.73"/>
<rect fill="#ffffff" x="25.09" y="213.57" width="154.00" height="26.62" rx="0.40"/>
<rect fill="#ffffff" x="93.94" y="243.12" width="15.98" height="152.72" rx="0.55"/>
</svg>
