<?xml version="1.0" encoding="UTF-8" standalone="no"?>
<!DOCTYPE svg PUBLIC "-//W3C//DTD SVG 1.1//EN" "http://www.w3.org/Graphics/SVG/1.1/DTD/svg11.dtd">
<svg xmlns="http://www.w3.org/2000/svg" version="1.1" viewBox="0.00 0.00 460.00 1456.00">
<g stroke-width="2.00" fill="none" stroke-linecap="butt">
<path stroke="#808080" vector-effect="non-scaling-stroke" d="
  M 412.62 75.16
  A 50.12 50.12 0.0 0 0 362.50 25.04
  L 126.30 25.04
  A 50.12 50.12 0.0 0 0 76.18 75.16
  L 76.18 1378.90
  A 50.12 50.12 0.0 0 0 126.30 1429.02
  L 362.50 1429.02
  A 50.12 50.12 0.0 0 0 412.62 1378.90
  L 412.62 75.16"
/>
<path stroke="#808080" vector-effect="non-scaling-stroke" d="
  M 52.5446 232.8274
  A 1.06 1.06 0.0 0 0 51.4809 231.7711
  L 17.7011 231.8890
  A 1.06 1.06 0.0 0 0 16.6448 232.9527
  L 16.6554 235.9926
  A 1.06 1.06 0.0 0 0 17.7191 237.0489
  L 51.4989 236.9310
  A 1.06 1.06 0.0 0 0 52.5552 235.8673
  L 52.5446 232.8274"
/>
<path stroke="#808080" vector-effect="non-scaling-stroke" d="
  M 46.0030 707.7190
  A 10.44 10.44 0.0 0 0 35.5995 697.2426
  L 34.1795 697.2376
  A 10.44 10.44 0.0 0 0 23.7031 707.6411
  L 23.6570 720.8410
  A 10.44 10.44 0.0 0 0 34.0605 731.3174
  L 35.4805 731.3224
  A 10.44 10.44 0.0 0 0 45.9569 720.9189
  L 46.0030 707.7190"
/>
<path stroke="#808080" vector-effect="non-scaling-stroke" d="
  M 39.86 1181.05
  A 1.34 1.34 0.0 0 1 38.88 1180.07
  L 36.49 1170.48
  A 1.34 1.34 0.0 0 0 33.89 1170.49
  L 31.57 1180.10
  A 1.34 1.34 0.0 0 1 30.59 1181.08
  L 21.00 1183.47
  A 1.34 1.34 0.0 0 0 21.01 1186.07
  L 30.62 1188.39
  A 1.34 1.34 0.0 0 1 31.60 1189.37
  L 33.99 1198.96
  A 1.34 1.34 0.0 0 0 36.59 1198.95
  L 38.91 1189.34
  A 1.34 1.34 0.0 0 1 39.89 1188.36
  L 49.48 1185.97
  A 1.34 1.34 0.0 0 0 49.47 1183.37
  L 39.86 1181.05"
/>
<path stroke="#404040" vector-effect="non-scaling-stroke" d="
  M 406.56 74.64
  A 43.49 43.49 0.0 0 0 363.07 31.15
  L 125.51 31.15
  A 43.49 43.49 0.0 0 0 82.02 74.64
  L 82.02 1379.24
  A 43.49 43.49 0.0 0 0 125.51 1422.73
  L 363.07 1422.73
  A 43.49 43.49 0.0 0 0 406.56 1379.24
  L 406.56 74.64"
/>
<path stroke="#c0c0c0" vector-effect="non-scaling-stroke" d="
  M 384.10 39.00
  C 382.46 38.14 380.70 36.99 378.97 36.32
  Q 371.06 33.26 361.99 33.25
  Q 245.90 33.16 126.60 33.24
  Q 116.28 33.25 107.49 37.49
  Q 102.58 39.86 98.38 43.78
  Q 93.94 47.91 91.01 52.25
  Q 86.67 58.68 85.26 66.25
  Q 84.17 72.14 84.17 80.46
  Q 84.42 722.47 84.14 1371.46
  Q 84.13 1384.33 85.77 1390.50
  Q 88.47 1400.73 96.86 1408.96
  Q 108.36 1420.24 125.02 1420.62
  Q 139.74 1420.95 153.09 1421.00
  Q 244.54 1421.35 336.77 1420.99
  Q 350.08 1420.94 364.24 1420.60
  Q 379.63 1420.22 390.91 1409.94
  C 392.78 1408.23 394.21 1406.33 395.86 1404.44
  C 401.39 1398.12 404.16 1388.99 404.34 1380.63
  Q 404.72 1363.07 404.78 1345.73
  Q 405.04 1278.39 404.72 1210.47
  C 404.58 1179.57 404.84 1148.65 404.61 1117.25
  Q 404.54 1107.94 404.66 1097.25
  C 405.01 1066.04 404.22 1033.05 404.71 1000.51
  Q 404.87 989.94 404.77 980.50
  Q 404.42 947.90 404.76 911.75
  Q 404.84 902.95 404.72 891.77
  Q 404.46 866.85 404.79 836.14
  C 404.96 820.46 404.47 799.45 404.67 781.01
  Q 404.98 753.01 404.69 725.02
  C 404.44 701.24 404.94 677.47 404.71 653.68
  C 404.46 627.37 404.89 601.06 404.69 574.75
  C 404.47 546.83 404.90 518.92 404.71 490.99
  Q 404.64 481.19 404.72 471.00
  Q 404.99 434.97 404.59 400.50
  C 404.40 384.36 405.09 362.72 404.78 343.74
  Q 404.44 322.68 404.62 306.99
  Q 404.94 277.45 404.62 250.27
  C 404.39 230.30 404.87 207.70 404.87 186.11
  C 404.87 148.42 405.13 111.16 404.32 73.77
  Q 404.05 61.32 397.45 51.81
  Q 393.87 46.64 387.35 41.20
  Q 385.75 39.87 384.10 39.00"
/>
<path stroke="#808080" vector-effect="non-scaling-stroke" d="
  M 216.08 710.29
  L 215.99 781.77
  Q 215.99 782.28 215.48 782.28
  L 101.24 782.28
  Q 101.00 782.28 101.00 782.51
  L 101.00 788.17
  Q 101.00 788.36 101.19 788.36
  L 215.65 788.36
  A 0.32 0.32 0.0 0 1 215.97 788.69
  L 215.71 865.02
  A 1.49 1.48 -89.8 0 1 214.23 866.50
  L 101.76 866.50
  Q 100.51 866.50 100.51 867.74
  L 100.50 870.48
  Q 100.49 872.22 102.23 872.23
  L 213.26 872.53
  Q 215.49 872.53 215.49 874.76
  L 215.49 944.30
  A 0.93 0.93 0.0 0 1 214.56 945.23
  Q 159.83 945.32 105.68 945.18
  Q 103.73 945.17 101.87 945.00
  A 0.99 0.98 3.3 0 0 100.80 945.95
  L 100.70 950.43
  A 1.27 1.26 88.4 0 0 102.06 951.72
  Q 106.83 951.38 111.34 951.31
  Q 159.59 950.60 213.46 951.29
  A 2.03 2.03 0.0 0 1 215.47 953.32
  L 215.49 1022.61
  A 1.61 1.60 -90.0 0 1 213.89 1024.22
  L 102.00 1024.52
  Q 100.53 1024.53 100.45 1025.99
  Q 100.34 1027.77 100.60 1029.21
  Q 100.78 1030.23 101.81 1030.23
  L 213.52 1030.53
  A 2.00 1.99 0.1 0 1 215.51 1032.52
  L 215.48 1102.51
  A 1.49 1.49 0.0 0 1 213.99 1104.00
  L 101.50 1104.00
  Q 100.74 1104.00 100.74 1104.75
  L 100.73 1109.24
  Q 100.73 1110.00 101.49 1110.00
  L 213.75 1110.00
  A 1.75 1.75 0.0 0 1 215.50 1111.75
  L 215.48 1181.78
  A 1.23 1.22 -89.5 0 1 214.25 1183.00
  Q 155.69 1182.99 111.23 1183.01
  C 108.26 1183.02 105.30 1182.65 102.42 1182.24
  Q 101.18 1182.07 101.03 1183.31
  L 100.50 1187.67
  A 1.18 1.18 0.0 0 0 101.67 1189.00
  L 214.01 1189.00
  A 1.51 1.50 -90.0 0 1 215.51 1190.51
  L 215.44 1241.97
  A 1.28 1.28 0.0 0 0 216.72 1243.25
  L 272.76 1243.25
  A 0.51 0.50 90.0 0 0 273.26 1242.74
  L 273.25 1190.00
  A 1.00 1.00 0.0 0 1 274.25 1189.00
  L 388.00 1189.00
  A 0.96 0.96 0.0 0 0 388.96 1187.97
  L 388.70 1184.30
  Q 388.61 1183.00 387.31 1183.00
  L 274.75 1183.00
  A 1.50 1.50 0.0 0 1 273.25 1181.50
  L 273.25 1112.00
  A 2.00 2.00 0.0 0 1 275.25 1110.00
  L 387.14 1110.00
  Q 388.78 1110.00 388.78 1108.36
  L 388.78 1105.50
  Q 388.78 1103.72 387.00 1103.72
  L 275.39 1104.02
  A 2.13 2.12 89.9 0 1 273.26 1101.89
  L 273.25 1031.48
  A 0.66 0.65 88.2 0 1 273.86 1030.82
  Q 277.10 1030.59 280.39 1030.57
  Q 334.26 1030.32 387.22 1030.20
  A 1.89 1.89 0.0 0 0 389.11 1028.39
  L 389.21 1026.14
  Q 389.29 1024.25 387.39 1024.25
  L 275.25 1024.25
  A 2.00 2.00 0.0 0 1 273.25 1022.25
  L 273.25 952.86
  A 1.88 1.88 0.0 0 1 275.14 950.98
  L 387.71 951.28
  Q 388.70 951.28 388.74 950.29
  L 388.90 946.46
  Q 388.96 945.22 387.71 945.22
  L 275.26 945.52
  A 2.01 2.01 0.0 0 1 273.25 943.51
  L 273.24 873.50
  A 1.01 1.00 -0.0 0 1 274.25 872.50
  L 387.43 872.50
  Q 388.62 872.50 388.74 871.32
  L 389.12 867.75
  Q 389.25 866.50 387.99 866.50
  L 275.72 866.50
  A 2.75 2.75 0.0 0 1 273.02 864.27
  Q 272.62 862.19 272.62 860.27
  Q 272.77 825.89 272.86 788.79
  A 0.36 0.35 0.0 0 1 273.22 788.44
  L 389.00 788.43
  Q 389.19 788.43 389.19 788.25
  L 389.18 782.51
  Q 389.18 782.33 389.01 782.33
  L 273.28 782.33
  A 0.30 0.29 90.0 0 1 272.99 782.03
  L 272.92 710.01
  Q 272.92 709.70 273.24 709.70
  L 388.96 709.69
  Q 389.14 709.69 389.14 709.51
  L 389.16 703.74
  Q 389.16 703.58 388.99 703.58
  L 273.25 703.58
  Q 272.93 703.58 272.93 703.25
  L 273.03 631.24
  A 0.24 0.23 90.0 0 1 273.26 631.00
  L 388.51 631.00
  Q 388.77 631.00 388.77 630.74
  L 388.77 625.25
  A 0.28 0.28 0.0 0 0 388.49 624.97
  L 273.74 624.97
  Q 273.01 624.97 273.01 624.24
  L 273.28 553.24
  A 1.01 1.00 -90.0 0 1 274.27 552.24
  Q 330.84 551.15 387.76 552.24
  Q 388.88 552.26 388.87 551.15
  L 388.83 547.16
  Q 388.82 546.00 387.66 546.00
  L 274.75 546.00
  A 1.50 1.50 0.0 0 1 273.25 544.50
  L 273.25 475.00
  A 1.75 1.75 0.0 0 1 275.00 473.25
  L 386.74 473.25
  Q 388.50 473.25 388.75 471.51
  L 389.04 469.55
  Q 389.37 467.25 387.05 467.25
  L 274.25 467.25
  A 1.00 1.00 0.0 0 1 273.25 466.25
  L 273.25 394.97
  A 1.67 1.67 0.0 0 1 274.92 393.30
  Q 328.71 393.11 382.52 393.37
  Q 385.02 393.38 387.49 393.47
  Q 388.99 393.52 388.91 392.03
  L 388.76 389.08
  A 1.93 1.92 -1.4 0 0 386.83 387.25
  L 274.75 387.25
  A 1.50 1.50 0.0 0 1 273.25 385.75
  L 273.25 316.03
  A 1.54 1.53 -0.0 0 1 274.79 314.50
  Q 327.54 314.46 379.75 314.55
  Q 382.81 314.56 386.42 314.92
  Q 388.75 315.16 388.84 312.82
  L 388.91 310.72
  Q 389.00 308.44 386.71 308.46
  Q 369.92 308.67 354.75 308.65
  Q 316.87 308.62 279.52 308.68
  Q 277.32 308.68 274.81 308.72
  A 1.53 1.53 0.0 0 1 273.25 307.19
  L 273.25 236.25
  A 0.75 0.75 0.0 0 1 274.00 235.50
  L 387.49 235.50
  A 1.66 1.66 0.0 0 0 389.15 233.76
  L 389.05 231.25
  Q 388.98 229.52 387.25 229.52
  L 274.71 229.22
  A 1.50 1.50 0.0 0 1 273.21 227.71
  L 273.33 172.61
  Q 273.33 172.00 272.73 172.00
  L 216.23 172.00
  Q 215.46 172.00 215.46 172.77
  L 215.50 227.98
  A 1.24 1.23 90.0 0 1 214.27 229.22
  L 102.48 229.52
  Q 100.49 229.52 100.48 231.52
  L 100.47 233.48
  Q 100.46 235.50 102.48 235.50
  L 213.75 235.50
  A 1.75 1.75 0.0 0 1 215.50 237.25
  L 215.46 307.77
  A 0.98 0.98 0.0 0 1 214.48 308.75
  L 101.78 308.75
  Q 100.81 308.75 100.80 309.72
  L 100.72 313.73
  Q 100.70 314.50 101.48 314.50
  L 213.48 314.50
  Q 215.47 314.50 215.47 316.48
  L 215.50 386.00
  A 1.25 1.25 0.0 0 1 214.25 387.25
  L 101.70 387.25
  Q 100.65 387.25 100.61 388.30
  L 100.46 392.20
  Q 100.41 393.25 101.46 393.25
  L 213.12 393.25
  Q 215.49 393.25 215.49 395.62
  L 215.49 465.26
  A 2.00 1.99 -0.0 0 1 213.49 467.25
  L 101.75 467.25
  Q 100.50 467.25 100.50 468.50
  L 100.50 472.00
  Q 100.50 473.25 101.75 473.25
  L 213.00 473.25
  Q 215.50 473.25 215.50 475.75
  L 215.46 545.12
  A 0.89 0.89 0.0 0 1 214.57 546.01
  Q 161.27 545.99 108.54 546.00
  C 106.38 546.00 104.27 545.65 102.15 545.52
  Q 100.92 545.45 100.85 546.68
  L 100.58 551.13
  A 1.08 1.07 -88.7 0 0 101.66 552.27
  Q 157.68 551.85 208.77 552.04
  Q 211.47 552.05 214.26 552.57
  A 1.71 1.71 0.0 0 1 215.65 554.15
  C 215.75 555.57 216.05 557.00 216.05 558.40
  Q 216.06 590.51 216.06 624.39
  Q 216.06 624.91 215.53 624.91
  L 100.86 624.91
  A 0.24 0.23 0.0 0 0 100.62 625.14
  L 100.63 630.81
  Q 100.63 630.98 100.80 630.98
  L 215.51 630.98
  Q 216.05 630.98 216.05 631.52
  L 216.08 703.22
  A 0.31 0.30 -90.0 0 1 215.78 703.53
  L 101.23 703.52
  Q 100.98 703.52 100.98 703.77
  L 100.98 709.30
  Q 100.98 709.62 101.30 709.62
  L 215.41 709.62
  Q 216.08 709.62 216.08 710.29"
/>
<path stroke="#c0c0c0" vector-effect="non-scaling-stroke" d="
  M 299.42 1356.99
  C 299.36 1357.46 299.06 1357.95 299.03 1358.49
  Q 298.21 1373.44 310.79 1380.82
  Q 310.86 1380.86 310.92 1380.93
  Q 311.02 1381.06 311.09 1381.20
  Q 311.27 1381.54 311.65 1381.52
  C 312.98 1381.45 313.75 1382.26 315.02 1382.51
  Q 326.46 1384.85 334.79 1376.30
  C 335.76 1375.30 335.93 1374.20 336.84 1373.20
  Q 337.83 1372.10 338.41 1370.74
  C 341.88 1362.59 341.17 1351.23 334.04 1344.90
  C 332.44 1343.48 331.08 1341.70 329.12 1340.75
  Q 319.45 1336.07 310.07 1340.88
  C 307.49 1342.20 306.03 1344.02 304.04 1345.90
  C 302.98 1346.90 303.04 1348.32 301.80 1349.14
  Q 301.34 1349.45 301.47 1349.99
  Q 301.61 1350.58 301.07 1350.93
  A 1.08 1.01 -9.4 0 0 300.64 1351.49
  Q 299.74 1354.31 299.42 1356.99"
/>
<path stroke="#c0c0c0" vector-effect="non-scaling-stroke" d="
  M 193.49 1348.19
  Q 194.27 1348.48 195.13 1348.58
  Q 203.11 1349.46 210.48 1349.59
  Q 213.96 1349.66 215.26 1345.72
  Q 216.55 1341.82 213.85 1339.79
  A 1.58 1.55 64.0 0 0 212.98 1339.48
  Q 200.06 1338.90 186.76 1339.68
  Q 185.82 1339.74 185.11 1340.39
  Q 184.14 1341.28 184.10 1342.71
  Q 183.66 1359.92 183.93 1377.39
  Q 183.95 1378.83 184.21 1380.26
  A 1.37 1.34 -76.4 0 0 184.71 1381.10
  Q 186.08 1382.16 188.00 1381.99
  Q 199.42 1381.02 211.23 1381.39
  Q 214.15 1381.49 216.22 1379.32
  Q 216.66 1378.86 216.89 1379.45
  C 217.30 1380.54 217.90 1381.36 219.15 1381.52
  Q 222.88 1382.02 226.08 1381.52
  A 1.72 1.72 0.0 0 0 227.53 1380.02
  C 227.70 1378.63 227.85 1377.44 227.60 1376.02
  C 226.90 1372.07 227.23 1368.17 226.63 1364.23
  Q 226.58 1363.89 226.85 1363.68
  Q 227.00 1363.56 227.18 1363.62
  Q 227.45 1363.71 227.57 1363.98
  Q 228.09 1365.16 228.52 1366.21
  Q 230.53 1371.20 232.19 1376.39
  C 233.66 1380.96 236.41 1383.46 241.51 1381.97
  Q 243.07 1381.51 243.64 1380.26
  Q 246.20 1374.56 248.84 1365.77
  Q 249.15 1364.75 249.68 1364.21
  Q 250.32 1363.57 250.27 1364.47
  L 249.59 1378.33
  A 3.22 3.21 1.2 0 0 252.83 1381.70
  L 258.60 1381.65
  A 2.11 2.11 0.0 0 0 260.70 1379.56
  Q 260.81 1361.17 260.73 1342.30
  C 260.72 1340.53 259.87 1339.60 258.20 1339.27
  Q 252.32 1338.10 247.43 1340.98
  Q 246.99 1341.24 246.77 1341.70
  Q 245.75 1343.81 245.45 1344.99
  Q 242.98 1354.78 239.28 1363.73
  Q 238.68 1365.16 238.33 1363.65
  C 237.75 1361.20 236.48 1359.13 235.69 1356.72
  Q 233.63 1350.50 231.89 1344.23
  C 231.47 1342.74 230.68 1341.12 229.24 1340.41
  Q 224.90 1338.27 219.85 1339.23
  Q 216.78 1339.81 216.78 1342.50
  Q 216.79 1358.01 216.44 1374.53
  A 0.22 0.21 -66.6 0 1 216.08 1374.68
  Q 213.26 1371.78 208.97 1371.75
  Q 201.68 1371.70 194.53 1372.11
  Q 193.58 1372.17 193.62 1371.22
  L 193.83 1365.88
  Q 193.87 1365.00 194.76 1365.03
  L 209.38 1365.53
  Q 213.69 1365.68 213.74 1361.37
  L 213.76 1359.63
  Q 213.81 1354.92 209.11 1355.36
  Q 200.85 1356.15 194.64 1356.10
  A 0.96 0.95 -83.6 0 1 193.72 1354.94
  Q 194.41 1351.71 193.34 1348.33
  Q 193.27 1348.10 193.49 1348.19"
/>
<path stroke="#c0c0c0" vector-effect="non-scaling-stroke" d="
  M 298.70 1357.40
  Q 299.95 1352.79 298.54 1347.21
  C 298.13 1345.57 296.78 1344.77 296.09 1343.24
  A 0.86 0.85 -7.7 0 0 295.44 1342.75
  Q 295.29 1342.73 295.14 1342.68
  Q 294.86 1342.59 294.59 1342.38
  Q 291.71 1340.14 287.99 1339.76
  Q 279.12 1338.85 268.69 1339.24
  C 266.42 1339.33 264.31 1340.27 264.45 1342.96
  Q 265.35 1360.56 264.52 1376.73
  C 264.42 1378.83 264.76 1381.73 267.46 1381.95
  C 270.04 1382.16 276.14 1382.45 276.25 1378.76
  Q 276.39 1373.87 275.95 1368.21
  Q 275.87 1367.22 276.86 1367.24
  Q 283.01 1367.35 289.42 1366.56
  Q 293.00 1366.12 296.13 1363.01
  Q 297.20 1361.94 297.68 1360.61
  Q 298.27 1358.99 298.70 1357.40"
/>
<path stroke="#c0c0c0" vector-effect="non-scaling-stroke" d="
  M 159.68 1355.53
  Q 159.87 1367.21 158.63 1379.26
  A 1.88 1.88 0.0 0 0 160.53 1381.34
  L 167.83 1381.23
  A 2.22 2.22 0.0 0 0 169.99 1378.70
  C 169.54 1375.39 169.05 1372.14 169.06 1368.78
  Q 169.07 1360.13 168.59 1350.82
  Q 168.49 1349.01 170.29 1349.18
  Q 174.48 1349.57 178.80 1348.73
  Q 181.76 1348.15 180.70 1344.22"
/>
<path stroke="#808080" vector-effect="non-scaling-stroke" d="
  M 180.70 1344.22
  L 180.91 1341.89
  A 1.72 1.71 -88.0 0 0 179.18 1340.03
  L 147.35 1340.56
  Q 147.27 1340.56 147.27 1340.63
  Q 146.92 1346.80 147.34 1348.37
  Q 147.38 1348.50 147.51 1348.49
  L 158.85 1348.29
  Q 159.71 1348.27 159.70 1349.12
  L 159.68 1355.53"
/>
<path stroke="#404040" vector-effect="non-scaling-stroke" d="
  M 180.70 1344.22
  L 180.16 1344.92
  Q 179.89 1345.26 179.88 1345.69
  Q 179.84 1347.23 178.24 1347.11
  Q 174.18 1346.80 170.53 1347.36
  Q 169.87 1347.46 169.31 1347.82
  Q 168.80 1348.15 168.21 1348.33
  A 1.02 1.02 0.0 0 0 167.49 1349.36
  Q 167.95 1357.63 167.72 1366.44
  Q 167.56 1372.35 168.44 1377.74
  Q 168.78 1379.78 166.71 1379.86
  L 161.84 1380.06
  Q 159.68 1380.14 159.68 1377.98
  L 159.68 1355.53"
/>
<path stroke="#404040" vector-effect="non-scaling-stroke" d="
  M 221.52 1229.53
  Q 222.46 1232.67 221.39 1236.68
  A 0.67 0.67 0.0 0 0 222.04 1237.52
  L 266.53 1237.23
  Q 267.11 1237.22 267.12 1236.65
  L 267.36 1228.77"
/>
<path stroke="#808080" vector-effect="non-scaling-stroke" d="
  M 267.36 1228.77
  L 267.08 179.06
  Q 267.08 178.29 266.31 178.29
  L 222.66 178.19
  A 1.14 1.13 -90.0 0 0 221.53 179.33
  L 221.52 1229.53"
/>
<path stroke="#c0c0c0" vector-effect="non-scaling-stroke" d="
  M 267.36 1228.77
  Q 266.26 1229.23 265.64 1229.79
  C 264.62 1230.73 265.02 1233.16 265.03 1234.46
  A 0.51 0.51 0.0 0 1 264.52 1234.98
  L 224.52 1235.33
  A 0.78 0.77 -1.9 0 1 223.73 1234.60
  Q 223.62 1232.39 223.47 1230.00
  Q 223.43 1229.28 221.52 1229.53"
/>
<path stroke="#808080" vector-effect="non-scaling-stroke" d="
  M 34.7900 727.6200
  A 13.30 6.46 90.0 0 0 41.2500 714.3200
  A 13.30 6.46 90.0 0 0 34.7900 701.0200
  A 13.30 6.46 90.0 0 0 28.3300 714.3200
  A 13.30 6.46 90.0 0 0 34.7900 727.6200"
/>
<path stroke="#404040" vector-effect="non-scaling-stroke" d="
  M 303.35 1351.45
  Q 302.37 1352.95 301.93 1354.80
  Q 299.66 1364.42 304.48 1372.08
  Q 307.42 1376.75 312.74 1379.36
  C 319.43 1382.65 327.05 1380.29 332.72 1375.35
  C 333.86 1374.35 333.97 1373.16 334.96 1372.09
  Q 335.96 1370.99 336.48 1369.65
  C 339.41 1362.01 338.85 1353.19 333.27 1347.08
  Q 330.90 1344.49 329.03 1343.33
  C 321.18 1338.50 312.30 1340.37 306.01 1346.91
  C 304.93 1348.04 304.90 1349.45 303.57 1350.36
  Q 303.47 1350.43 303.42 1350.55
  Q 303.35 1350.72 303.42 1350.89
  Q 303.53 1351.19 303.35 1351.45"
/>
<path stroke="#404040" vector-effect="non-scaling-stroke" d="
  M 185.22 1344.96
  Q 185.17 1344.82 185.22 1344.68
  Q 185.24 1344.63 185.19 1344.60
  Q 185.14 1344.57 185.12 1344.63
  Q 185.10 1344.67 185.10 1344.72
  Q 185.30 1359.16 185.17 1374.00
  Q 185.15 1376.27 185.34 1378.64
  A 1.58 1.58 0.0 0 0 186.88 1380.10
  Q 198.95 1380.41 210.25 1379.79
  Q 212.91 1379.65 214.61 1377.66
  Q 214.94 1377.28 214.71 1376.84
  Q 213.53 1374.48 211.39 1374.21
  Q 201.75 1372.97 193.02 1373.60
  A 0.72 0.72 0.0 0 1 192.26 1372.75
  Q 193.00 1368.82 192.20 1364.47
  A 0.94 0.93 -87.1 0 1 193.38 1363.40
  Q 194.79 1363.81 196.16 1363.76
  Q 202.90 1363.55 210.15 1363.26
  Q 211.43 1363.20 211.46 1361.92
  L 211.53 1358.63
  A 0.98 0.98 0.0 0 0 210.64 1357.63
  Q 200.90 1356.82 193.04 1357.87
  A 0.66 0.66 0.0 0 1 192.31 1357.07
  Q 193.35 1352.22 192.83 1347.69
  Q 192.76 1347.12 193.33 1347.13
  L 209.82 1347.33
  Q 212.05 1347.36 212.91 1345.30
  L 213.41 1344.09
  Q 214.48 1341.52 211.70 1341.44
  L 186.30 1340.76
  A 0.77 0.76 3.1 0 0 185.51 1341.46
  Q 185.37 1343.13 185.41 1344.93
  Q 185.42 1345.55 185.22 1344.96"
/>
<path stroke="#404040" vector-effect="non-scaling-stroke" d="
  M 252.90 1353.82
  L 251.87 1378.05
  Q 251.79 1379.80 253.55 1379.79
  L 256.88 1379.78
  Q 258.78 1379.77 258.76 1377.87
  L 258.42 1343.16
  A 1.89 1.88 -85.8 0 0 256.84 1341.32
  Q 253.36 1340.76 249.59 1342.25
  Q 249.19 1342.41 248.91 1342.75
  Q 248.11 1343.73 247.81 1344.85
  Q 245.39 1354.01 242.71 1360.94
  Q 241.08 1365.17 239.55 1369.28
  Q 238.99 1370.76 238.37 1369.31
  Q 233.10 1357.16 229.60 1344.20
  C 228.72 1340.94 222.77 1341.03 220.19 1341.36
  A 1.43 1.42 86.7 0 0 218.96 1342.75
  L 218.59 1377.28
  Q 218.57 1379.25 220.53 1379.42
  L 223.95 1379.73
  Q 225.97 1379.90 225.64 1377.91
  Q 225.10 1374.68 224.92 1371.56
  Q 224.43 1362.88 224.43 1354.77
  Q 224.43 1354.29 224.63 1353.86
  Q 225.27 1352.50 225.75 1353.92
  C 226.62 1356.51 227.91 1358.74 228.94 1361.34
  Q 232.62 1370.70 235.07 1377.66
  C 236.24 1381.00 241.15 1381.16 242.46 1377.74
  Q 243.86 1374.09 246.01 1367.38
  Q 246.56 1365.69 247.22 1364.22
  Q 247.91 1362.69 248.64 1361.12
  Q 249.47 1359.36 250.16 1357.35
  Q 250.86 1355.28 252.19 1353.56
  Q 252.96 1352.57 252.90 1353.82"
/>
<path stroke="#404040" vector-effect="non-scaling-stroke" d="
  M 295.64 1359.35
  Q 297.45 1355.30 296.95 1350.29
  C 296.31 1343.76 289.96 1341.76 284.14 1341.52
  Q 275.56 1341.17 267.85 1341.58
  A 1.23 1.22 -2.8 0 0 266.68 1342.86
  C 267.21 1354.57 267.41 1365.58 266.57 1377.22
  Q 266.34 1380.38 269.49 1380.07
  L 271.75 1379.85
  Q 274.33 1379.60 274.21 1377.01
  L 273.71 1366.73
  A 1.69 1.68 -0.5 0 1 275.45 1364.97
  Q 281.74 1365.21 288.08 1364.59
  Q 292.23 1364.17 294.84 1361.09
  C 295.27 1360.58 295.37 1359.96 295.64 1359.35"
/>
<path stroke="#808080" vector-effect="non-scaling-stroke" d="
  M 319.6959 1375.4500
  A 14.85 12.26 89.9 0 0 331.9300 1360.5786
  A 14.85 12.26 89.9 0 0 319.6441 1345.7500
  A 14.85 12.26 89.9 0 0 307.4100 1360.6214
  A 14.85 12.26 89.9 0 0 319.6959 1375.4500"
/>
<path stroke="#808080" vector-effect="non-scaling-stroke" d="
  M 273.65 1349.51
  L 273.67 1356.57
  A 3.13 3.13 0.0 0 0 276.80 1359.70
  L 284.01 1359.69
  A 6.66 6.49 -0.1 0 0 290.66 1353.19
  L 290.66 1352.85
  A 6.66 6.49 -0.1 0 0 283.99 1346.37
  L 276.78 1346.38
  A 3.13 3.13 0.0 0 0 273.65 1349.51"
/>
</g>
<path fill="#ffffff" d="
  M 0.00 0.00
  L 460.00 0.00
  L 460.00 1456.00
  L 0.00 1456.00
  L 0.00 0.00
  Z
  M 412.62 75.16
  A 50.12 50.12 0.0 0 0 362.50 25.04
  L 126.30 25.04
  A 50.12 50.12 0.0 0 0 76.18 75.16
  L 76.18 1378.90
  A 50.12 50.12 0.0 0 0 126.30 1429.02
  L 362.50 1429.02
  A 50.12 50.12 0.0 0 0 412.62 1378.90
  L 412.62 75.16
  Z
  M 52.5446 232.8274
  A 1.06 1.06 0.0 0 0 51.4809 231.7711
  L 17.7011 231.8890
  A 1.06 1.06 0.0 0 0 16.6448 232.9527
  L 16.6554 235.9926
  A 1.06 1.06 0.0 0 0 17.7191 237.0489
  L 51.4989 236.9310
  A 1.06 1.06 0.0 0 0 52.5552 235.8673
  L 52.5446 232.8274
  Z
  M 46.0030 707.7190
  A 10.44 10.44 0.0 0 0 35.5995 697.2426
  L 34.1795 697.2376
  A 10.44 10.44 0.0 0 0 23.7031 707.6411
  L 23.6570 720.8410
  A 10.44 10.44 0.0 0 0 34.0605 731.3174
  L 35.4805 731.3224
  A 10.44 10.44 0.0 0 0 45.9569 720.9189
  L 46.0030 707.7190
  Z
  M 39.86 1181.05
  A 1.34 1.34 0.0 0 1 38.88 1180.07
  L 36.49 1170.48
  A 1.34 1.34 0.0 0 0 33.89 1170.49
  L 31.57 1180.10
  A 1.34 1.34 0.0 0 1 30.59 1181.08
  L 21.00 1183.47
  A 1.34 1.34 0.0 0 0 21.01 1186.07
  L 30.62 1188.39
  A 1.34 1.34 0.0 0 1 31.60 1189.37
  L 33.99 1198.96
  A 1.34 1.34 0.0 0 0 36.59 1198.95
  L 38.91 1189.34
  A 1.34 1.34 0.0 0 1 39.89 1188.36
  L 49.48 1185.97
  A 1.34 1.34 0.0 0 0 49.47 1183.37
  L 39.86 1181.05
  Z"
/>
<path fill="#000000" d="
  M 412.62 1378.90
  A 50.12 50.12 0.0 0 1 362.50 1429.02
  L 126.30 1429.02
  A 50.12 50.12 0.0 0 1 76.18 1378.90
  L 76.18 75.16
  A 50.12 50.12 0.0 0 1 126.30 25.04
  L 362.50 25.04
  A 50.12 50.12 0.0 0 1 412.62 75.16
  L 412.62 1378.90
  Z
  M 406.56 74.64
  A 43.49 43.49 0.0 0 0 363.07 31.15
  L 125.51 31.15
  A 43.49 43.49 0.0 0 0 82.02 74.64
  L 82.02 1379.24
  A 43.49 43.49 0.0 0 0 125.51 1422.73
  L 363.07 1422.73
  A 43.49 43.49 0.0 0 0 406.56 1379.24
  L 406.56 74.64
  Z"
/>
<path fill="#808080" d="
  M 406.56 1379.24
  A 43.49 43.49 0.0 0 1 363.07 1422.73
  L 125.51 1422.73
  A 43.49 43.49 0.0 0 1 82.02 1379.24
  L 82.02 74.64
  A 43.49 43.49 0.0 0 1 125.51 31.15
  L 363.07 31.15
  A 43.49 43.49 0.0 0 1 406.56 74.64
  L 406.56 1379.24
  Z
  M 384.10 39.00
  C 382.46 38.14 380.70 36.99 378.97 36.32
  Q 371.06 33.26 361.99 33.25
  Q 245.90 33.16 126.60 33.24
  Q 116.28 33.25 107.49 37.49
  Q 102.58 39.86 98.38 43.78
  Q 93.94 47.91 91.01 52.25
  Q 86.67 58.68 85.26 66.25
  Q 84.17 72.14 84.17 80.46
  Q 84.42 722.47 84.14 1371.46
  Q 84.13 1384.33 85.77 1390.50
  Q 88.47 1400.73 96.86 1408.96
  Q 108.36 1420.24 125.02 1420.62
  Q 139.74 1420.95 153.09 1421.00
  Q 244.54 1421.35 336.77 1420.99
  Q 350.08 1420.94 364.24 1420.60
  Q 379.63 1420.22 390.91 1409.94
  C 392.78 1408.23 394.21 1406.33 395.86 1404.44
  C 401.39 1398.12 404.16 1388.99 404.34 1380.63
  Q 404.72 1363.07 404.78 1345.73
  Q 405.04 1278.39 404.72 1210.47
  C 404.58 1179.57 404.84 1148.65 404.61 1117.25
  Q 404.54 1107.94 404.66 1097.25
  C 405.01 1066.04 404.22 1033.05 404.71 1000.51
  Q 404.87 989.94 404.77 980.50
  Q 404.42 947.90 404.76 911.75
  Q 404.84 902.95 404.72 891.77
  Q 404.46 866.85 404.79 836.14
  C 404.96 820.46 404.47 799.45 404.67 781.01
  Q 404.98 753.01 404.69 725.02
  C 404.44 701.24 404.94 677.47 404.71 653.68
  C 404.46 627.37 404.89 601.06 404.69 574.75
  C 404.47 546.83 404.90 518.92 404.71 490.99
  Q 404.64 481.19 404.72 471.00
  Q 404.99 434.97 404.59 400.50
  C 404.40 384.36 405.09 362.72 404.78 343.74
  Q 404.44 322.68 404.62 306.99
  Q 404.94 277.45 404.62 250.27
  C 404.39 230.30 404.87 207.70 404.87 186.11
  C 404.87 148.42 405.13 111.16 404.32 73.77
  Q 404.05 61.32 397.45 51.81
  Q 393.87 46.64 387.35 41.20
  Q 385.75 39.87 384.10 39.00
  Z"
/>
<path fill="#ffffff" d="
  M 378.97 36.32
  C 380.70 36.99 382.46 38.14 384.10 39.00
  Q 385.75 39.87 387.35 41.20
  Q 393.87 46.64 397.45 51.81
  Q 404.05 61.32 404.32 73.77
  C 405.13 111.16 404.87 148.42 404.87 186.11
  C 404.87 207.70 404.39 230.30 404.62 250.27
  Q 404.94 277.45 404.62 306.99
  Q 404.44 322.68 404.78 343.74
  C 405.09 362.72 404.40 384.36 404.59 400.50
  Q 404.99 434.97 404.72 471.00
  Q 404.64 481.19 404.71 490.99
  C 404.90 518.92 404.47 546.83 404.69 574.75
  C 404.89 601.06 404.46 627.37 404.71 653.68
  C 404.94 677.47 404.44 701.24 404.69 725.02
  Q 404.98 753.01 404.67 781.01
  C 404.47 799.45 404.96 820.46 404.79 836.14
  Q 404.46 866.85 404.72 891.77
  Q 404.84 902.95 404.76 911.75
  Q 404.42 947.90 404.77 980.50
  Q 404.87 989.94 404.71 1000.51
  C 404.22 1033.05 405.01 1066.04 404.66 1097.25
  Q 404.54 1107.94 404.61 1117.25
  C 404.84 1148.65 404.58 1179.57 404.72 1210.47
  Q 405.04 1278.39 404.78 1345.73
  Q 404.72 1363.07 404.34 1380.63
  C 404.16 1388.99 401.39 1398.12 395.86 1404.44
  C 394.21 1406.33 392.78 1408.23 390.91 1409.94
  Q 379.63 1420.22 364.24 1420.60
  Q 350.08 1420.94 336.77 1420.99
  Q 244.54 1421.35 153.09 1421.00
  Q 139.74 1420.95 125.02 1420.62
  Q 108.36 1420.24 96.86 1408.96
  Q 88.47 1400.73 85.77 1390.50
  Q 84.13 1384.33 84.14 1371.46
  Q 84.42 722.47 84.17 80.46
  Q 84.17 72.14 85.26 66.25
  Q 86.67 58.68 91.01 52.25
  Q 93.94 47.91 98.38 43.78
  Q 102.58 39.86 107.49 37.49
  Q 116.28 33.25 126.60 33.24
  Q 245.90 33.16 361.99 33.25
  Q 371.06 33.26 378.97 36.32
  Z
  M 216.08 710.29
  L 215.99 781.77
  Q 215.99 782.28 215.48 782.28
  L 101.24 782.28
  Q 101.00 782.28 101.00 782.51
  L 101.00 788.17
  Q 101.00 788.36 101.19 788.36
  L 215.65 788.36
  A 0.32 0.32 0.0 0 1 215.97 788.69
  L 215.71 865.02
  A 1.49 1.48 -89.8 0 1 214.23 866.50
  L 101.76 866.50
  Q 100.51 866.50 100.51 867.74
  L 100.50 870.48
  Q 100.49 872.22 102.23 872.23
  L 213.26 872.53
  Q 215.49 872.53 215.49 874.76
  L 215.49 944.30
  A 0.93 0.93 0.0 0 1 214.56 945.23
  Q 159.83 945.32 105.68 945.18
  Q 103.73 945.17 101.87 945.00
  A 0.99 0.98 3.3 0 0 100.80 945.95
  L 100.70 950.43
  A 1.27 1.26 88.4 0 0 102.06 951.72
  Q 106.83 951.38 111.34 951.31
  Q 159.59 950.60 213.46 951.29
  A 2.03 2.03 0.0 0 1 215.47 953.32
  L 215.49 1022.61
  A 1.61 1.60 -90.0 0 1 213.89 1024.22
  L 102.00 1024.52
  Q 100.53 1024.53 100.45 1025.99
  Q 100.34 1027.77 100.60 1029.21
  Q 100.78 1030.23 101.81 1030.23
  L 213.52 1030.53
  A 2.00 1.99 0.1 0 1 215.51 1032.52
  L 215.48 1102.51
  A 1.49 1.49 0.0 0 1 213.99 1104.00
  L 101.50 1104.00
  Q 100.74 1104.00 100.74 1104.75
  L 100.73 1109.24
  Q 100.73 1110.00 101.49 1110.00
  L 213.75 1110.00
  A 1.75 1.75 0.0 0 1 215.50 1111.75
  L 215.48 1181.78
  A 1.23 1.22 -89.5 0 1 214.25 1183.00
  Q 155.69 1182.99 111.23 1183.01
  C 108.26 1183.02 105.30 1182.65 102.42 1182.24
  Q 101.18 1182.07 101.03 1183.31
  L 100.50 1187.67
  A 1.18 1.18 0.0 0 0 101.67 1189.00
  L 214.01 1189.00
  A 1.51 1.50 -90.0 0 1 215.51 1190.51
  L 215.44 1241.97
  A 1.28 1.28 0.0 0 0 216.72 1243.25
  L 272.76 1243.25
  A 0.51 0.50 90.0 0 0 273.26 1242.74
  L 273.25 1190.00
  A 1.00 1.00 0.0 0 1 274.25 1189.00
  L 388.00 1189.00
  A 0.96 0.96 0.0 0 0 388.96 1187.97
  L 388.70 1184.30
  Q 388.61 1183.00 387.31 1183.00
  L 274.75 1183.00
  A 1.50 1.50 0.0 0 1 273.25 1181.50
  L 273.25 1112.00
  A 2.00 2.00 0.0 0 1 275.25 1110.00
  L 387.14 1110.00
  Q 388.78 1110.00 388.78 1108.36
  L 388.78 1105.50
  Q 388.78 1103.72 387.00 1103.72
  L 275.39 1104.02
  A 2.13 2.12 89.9 0 1 273.26 1101.89
  L 273.25 1031.48
  A 0.66 0.65 88.2 0 1 273.86 1030.82
  Q 277.10 1030.59 280.39 1030.57
  Q 334.26 1030.32 387.22 1030.20
  A 1.89 1.89 0.0 0 0 389.11 1028.39
  L 389.21 1026.14
  Q 389.29 1024.25 387.39 1024.25
  L 275.25 1024.25
  A 2.00 2.00 0.0 0 1 273.25 1022.25
  L 273.25 952.86
  A 1.88 1.88 0.0 0 1 275.14 950.98
  L 387.71 951.28
  Q 388.70 951.28 388.74 950.29
  L 388.90 946.46
  Q 388.96 945.22 387.71 945.22
  L 275.26 945.52
  A 2.01 2.01 0.0 0 1 273.25 943.51
  L 273.24 873.50
  A 1.01 1.00 -0.0 0 1 274.25 872.50
  L 387.43 872.50
  Q 388.62 872.50 388.74 871.32
  L 389.12 867.75
  Q 389.25 866.50 387.99 866.50
  L 275.72 866.50
  A 2.75 2.75 0.0 0 1 273.02 864.27
  Q 272.62 862.19 272.62 860.27
  Q 272.77 825.89 272.86 788.79
  A 0.36 0.35 0.0 0 1 273.22 788.44
  L 389.00 788.43
  Q 389.19 788.43 389.19 788.25
  L 389.18 782.51
  Q 389.18 782.33 389.01 782.33
  L 273.28 782.33
  A 0.30 0.29 90.0 0 1 272.99 782.03
  L 272.92 710.01
  Q 272.92 709.70 273.24 709.70
  L 388.96 709.69
  Q 389.14 709.69 389.14 709.51
  L 389.16 703.74
  Q 389.16 703.58 388.99 703.58
  L 273.25 703.58
  Q 272.93 703.58 272.93 703.25
  L 273.03 631.24
  A 0.24 0.23 90.0 0 1 273.26 631.00
  L 388.51 631.00
  Q 388.77 631.00 388.77 630.74
  L 388.77 625.25
  A 0.28 0.28 0.0 0 0 388.49 624.97
  L 273.74 624.97
  Q 273.01 624.97 273.01 624.24
  L 273.28 553.24
  A 1.01 1.00 -90.0 0 1 274.27 552.24
  Q 330.84 551.15 387.76 552.24
  Q 388.88 552.26 388.87 551.15
  L 388.83 547.16
  Q 388.82 546.00 387.66 546.00
  L 274.75 546.00
  A 1.50 1.50 0.0 0 1 273.25 544.50
  L 273.25 475.00
  A 1.75 1.75 0.0 0 1 275.00 473.25
  L 386.74 473.25
  Q 388.50 473.25 388.75 471.51
  L 389.04 469.55
  Q 389.37 467.25 387.05 467.25
  L 274.25 467.25
  A 1.00 1.00 0.0 0 1 273.25 466.25
  L 273.25 394.97
  A 1.67 1.67 0.0 0 1 274.92 393.30
  Q 328.71 393.11 382.52 393.37
  Q 385.02 393.38 387.49 393.47
  Q 388.99 393.52 388.91 392.03
  L 388.76 389.08
  A 1.93 1.92 -1.4 0 0 386.83 387.25
  L 274.75 387.25
  A 1.50 1.50 0.0 0 1 273.25 385.75
  L 273.25 316.03
  A 1.54 1.53 -0.0 0 1 274.79 314.50
  Q 327.54 314.46 379.75 314.55
  Q 382.81 314.56 386.42 314.92
  Q 388.75 315.16 388.84 312.82
  L 388.91 310.72
  Q 389.00 308.44 386.71 308.46
  Q 369.92 308.67 354.75 308.65
  Q 316.87 308.62 279.52 308.68
  Q 277.32 308.68 274.81 308.72
  A 1.53 1.53 0.0 0 1 273.25 307.19
  L 273.25 236.25
  A 0.75 0.75 0.0 0 1 274.00 235.50
  L 387.49 235.50
  A 1.66 1.66 0.0 0 0 389.15 233.76
  L 389.05 231.25
  Q 388.98 229.52 387.25 229.52
  L 274.71 229.22
  A 1.50 1.50 0.0 0 1 273.21 227.71
  L 273.33 172.61
  Q 273.33 172.00 272.73 172.00
  L 216.23 172.00
  Q 215.46 172.00 215.46 172.77
  L 215.50 227.98
  A 1.24 1.23 90.0 0 1 214.27 229.22
  L 102.48 229.52
  Q 100.49 229.52 100.48 231.52
  L 100.47 233.48
  Q 100.46 235.50 102.48 235.50
  L 213.75 235.50
  A 1.75 1.75 0.0 0 1 215.50 237.25
  L 215.46 307.77
  A 0.98 0.98 0.0 0 1 214.48 308.75
  L 101.78 308.75
  Q 100.81 308.75 100.80 309.72
  L 100.72 313.73
  Q 100.70 314.50 101.48 314.50
  L 213.48 314.50
  Q 215.47 314.50 215.47 316.48
  L 215.50 386.00
  A 1.25 1.25 0.0 0 1 214.25 387.25
  L 101.70 387.25
  Q 100.65 387.25 100.61 388.30
  L 100.46 392.20
  Q 100.41 393.25 101.46 393.25
  L 213.12 393.25
  Q 215.49 393.25 215.49 395.62
  L 215.49 465.26
  A 2.00 1.99 -0.0 0 1 213.49 467.25
  L 101.75 467.25
  Q 100.50 467.25 100.50 468.50
  L 100.50 472.00
  Q 100.50 473.25 101.75 473.25
  L 213.00 473.25
  Q 215.50 473.25 215.50 475.75
  L 215.46 545.12
  A 0.89 0.89 0.0 0 1 214.57 546.01
  Q 161.27 545.99 108.54 546.00
  C 106.38 546.00 104.27 545.65 102.15 545.52
  Q 100.92 545.45 100.85 546.68
  L 100.58 551.13
  A 1.08 1.07 -88.7 0 0 101.66 552.27
  Q 157.68 551.85 208.77 552.04
  Q 211.47 552.05 214.26 552.57
  A 1.71 1.71 0.0 0 1 215.65 554.15
  C 215.75 555.57 216.05 557.00 216.05 558.40
  Q 216.06 590.51 216.06 624.39
  Q 216.06 624.91 215.53 624.91
  L 100.86 624.91
  A 0.24 0.23 0.0 0 0 100.62 625.14
  L 100.63 630.81
  Q 100.63 630.98 100.80 630.98
  L 215.51 630.98
  Q 216.05 630.98 216.05 631.52
  L 216.08 703.22
  A 0.31 0.30 -90.0 0 1 215.78 703.53
  L 101.23 703.52
  Q 100.98 703.52 100.98 703.77
  L 100.98 709.30
  Q 100.98 709.62 101.30 709.62
  L 215.41 709.62
  Q 216.08 709.62 216.08 710.29
  Z
  M 299.42 1356.99
  C 299.36 1357.46 299.06 1357.95 299.03 1358.49
  Q 298.21 1373.44 310.79 1380.82
  Q 310.86 1380.86 310.92 1380.93
  Q 311.02 1381.06 311.09 1381.20
  Q 311.27 1381.54 311.65 1381.52
  C 312.98 1381.45 313.75 1382.26 315.02 1382.51
  Q 326.46 1384.85 334.79 1376.30
  C 335.76 1375.30 335.93 1374.20 336.84 1373.20
  Q 337.83 1372.10 338.41 1370.74
  C 341.88 1362.59 341.17 1351.23 334.04 1344.90
  C 332.44 1343.48 331.08 1341.70 329.12 1340.75
  Q 319.45 1336.07 310.07 1340.88
  C 307.49 1342.20 306.03 1344.02 304.04 1345.90
  C 302.98 1346.90 303.04 1348.32 301.80 1349.14
  Q 301.34 1349.45 301.47 1349.99
  Q 301.61 1350.58 301.07 1350.93
  A 1.08 1.01 -9.4 0 0 300.64 1351.49
  Q 299.74 1354.31 299.42 1356.99
  Z
  M 193.49 1348.19
  Q 194.27 1348.48 195.13 1348.58
  Q 203.11 1349.46 210.48 1349.59
  Q 213.96 1349.66 215.26 1345.72
  Q 216.55 1341.82 213.85 1339.79
  A 1.58 1.55 64.0 0 0 212.98 1339.48
  Q 200.06 1338.90 186.76 1339.68
  Q 185.82 1339.74 185.11 1340.39
  Q 184.14 1341.28 184.10 1342.71
  Q 183.66 1359.92 183.93 1377.39
  Q 183.95 1378.83 184.21 1380.26
  A 1.37 1.34 -76.4 0 0 184.71 1381.10
  Q 186.08 1382.16 188.00 1381.99
  Q 199.42 1381.02 211.23 1381.39
  Q 214.15 1381.49 216.22 1379.32
  Q 216.66 1378.86 216.89 1379.45
  C 217.30 1380.54 217.90 1381.36 219.15 1381.52
  Q 222.88 1382.02 226.08 1381.52
  A 1.72 1.72 0.0 0 0 227.53 1380.02
  C 227.70 1378.63 227.85 1377.44 227.60 1376.02
  C 226.90 1372.07 227.23 1368.17 226.63 1364.23
  Q 226.58 1363.89 226.85 1363.68
  Q 227.00 1363.56 227.18 1363.62
  Q 227.45 1363.71 227.57 1363.98
  Q 228.09 1365.16 228.52 1366.21
  Q 230.53 1371.20 232.19 1376.39
  C 233.66 1380.96 236.41 1383.46 241.51 1381.97
  Q 243.07 1381.51 243.64 1380.26
  Q 246.20 1374.56 248.84 1365.77
  Q 249.15 1364.75 249.68 1364.21
  Q 250.32 1363.57 250.27 1364.47
  L 249.59 1378.33
  A 3.22 3.21 1.2 0 0 252.83 1381.70
  L 258.60 1381.65
  A 2.11 2.11 0.0 0 0 260.70 1379.56
  Q 260.81 1361.17 260.73 1342.30
  C 260.72 1340.53 259.87 1339.60 258.20 1339.27
  Q 252.32 1338.10 247.43 1340.98
  Q 246.99 1341.24 246.77 1341.70
  Q 245.75 1343.81 245.45 1344.99
  Q 242.98 1354.78 239.28 1363.73
  Q 238.68 1365.16 238.33 1363.65
  C 237.75 1361.20 236.48 1359.13 235.69 1356.72
  Q 233.63 1350.50 231.89 1344.23
  C 231.47 1342.74 230.68 1341.12 229.24 1340.41
  Q 224.90 1338.27 219.85 1339.23
  Q 216.78 1339.81 216.78 1342.50
  Q 216.79 1358.01 216.44 1374.53
  A 0.22 0.21 -66.6 0 1 216.08 1374.68
  Q 213.26 1371.78 208.97 1371.75
  Q 201.68 1371.70 194.53 1372.11
  Q 193.58 1372.17 193.62 1371.22
  L 193.83 1365.88
  Q 193.87 1365.00 194.76 1365.03
  L 209.38 1365.53
  Q 213.69 1365.68 213.74 1361.37
  L 213.76 1359.63
  Q 213.81 1354.92 209.11 1355.36
  Q 200.85 1356.15 194.64 1356.10
  A 0.96 0.95 -83.6 0 1 193.72 1354.94
  Q 194.41 1351.71 193.34 1348.33
  Q 193.27 1348.10 193.49 1348.19
  Z
  M 298.70 1357.40
  Q 299.95 1352.79 298.54 1347.21
  C 298.13 1345.57 296.78 1344.77 296.09 1343.24
  A 0.86 0.85 -7.7 0 0 295.44 1342.75
  Q 295.29 1342.73 295.14 1342.68
  Q 294.86 1342.59 294.59 1342.38
  Q 291.71 1340.14 287.99 1339.76
  Q 279.12 1338.85 268.69 1339.24
  C 266.42 1339.33 264.31 1340.27 264.45 1342.96
  Q 265.35 1360.56 264.52 1376.73
  C 264.42 1378.83 264.76 1381.73 267.46 1381.95
  C 270.04 1382.16 276.14 1382.45 276.25 1378.76
  Q 276.39 1373.87 275.95 1368.21
  Q 275.87 1367.22 276.86 1367.24
  Q 283.01 1367.35 289.42 1366.56
  Q 293.00 1366.12 296.13 1363.01
  Q 297.20 1361.94 297.68 1360.61
  Q 298.27 1358.99 298.70 1357.40
  Z
  M 159.68 1355.53
  Q 159.87 1367.21 158.63 1379.26
  A 1.88 1.88 0.0 0 0 160.53 1381.34
  L 167.83 1381.23
  A 2.22 2.22 0.0 0 0 169.99 1378.70
  C 169.54 1375.39 169.05 1372.14 169.06 1368.78
  Q 169.07 1360.13 168.59 1350.82
  Q 168.49 1349.01 170.29 1349.18
  Q 174.48 1349.57 178.80 1348.73
  Q 181.76 1348.15 180.70 1344.22
  L 180.91 1341.89
  A 1.72 1.71 -88.0 0 0 179.18 1340.03
  L 147.35 1340.56
  Q 147.27 1340.56 147.27 1340.63
  Q 146.92 1346.80 147.34 1348.37
  Q 147.38 1348.50 147.51 1348.49
  L 158.85 1348.29
  Q 159.71 1348.27 159.70 1349.12
  L 159.68 1355.53
  Z"
/>
<path fill="#000000" d="
  M 215.41 709.62
  L 101.30 709.62
  Q 100.98 709.62 100.98 709.30
  L 100.98 703.77
  Q 100.98 703.52 101.23 703.52
  L 215.78 703.53
  A 0.31 0.30 -90.0 0 0 216.08 703.22
  L 216.05 631.52
  Q 216.05 630.98 215.51 630.98
  L 100.80 630.98
  Q 100.63 630.98 100.63 630.81
  L 100.62 625.14
  A 0.24 0.23 0.0 0 1 100.86 624.91
  L 215.53 624.91
  Q 216.06 624.91 216.06 624.39
  Q 216.06 590.51 216.05 558.40
  C 216.05 557.00 215.75 555.57 215.65 554.15
  A 1.71 1.71 0.0 0 0 214.26 552.57
  Q 211.47 552.05 208.77 552.04
  Q 157.68 551.85 101.66 552.27
  A 1.08 1.07 -88.7 0 1 100.58 551.13
  L 100.85 546.68
  Q 100.92 545.45 102.15 545.52
  C 104.27 545.65 106.38 546.00 108.54 546.00
  Q 161.27 545.99 214.57 546.01
  A 0.89 0.89 0.0 0 0 215.46 545.12
  L 215.50 475.75
  Q 215.50 473.25 213.00 473.25
  L 101.75 473.25
  Q 100.50 473.25 100.50 472.00
  L 100.50 468.50
  Q 100.50 467.25 101.75 467.25
  L 213.49 467.25
  A 2.00 1.99 0.0 0 0 215.49 465.26
  L 215.49 395.62
  Q 215.49 393.25 213.12 393.25
  L 101.46 393.25
  Q 100.41 393.25 100.46 392.20
  L 100.61 388.30
  Q 100.65 387.25 101.70 387.25
  L 214.25 387.25
  A 1.25 1.25 0.0 0 0 215.50 386.00
  L 215.47 316.48
  Q 215.47 314.50 213.48 314.50
  L 101.48 314.50
  Q 100.70 314.50 100.72 313.73
  L 100.80 309.72
  Q 100.81 308.75 101.78 308.75
  L 214.48 308.75
  A 0.98 0.98 0.0 0 0 215.46 307.77
  L 215.50 237.25
  A 1.75 1.75 0.0 0 0 213.75 235.50
  L 102.48 235.50
  Q 100.46 235.50 100.47 233.48
  L 100.48 231.52
  Q 100.49 229.52 102.48 229.52
  L 214.27 229.22
  A 1.24 1.23 90.0 0 0 215.50 227.98
  L 215.46 172.77
  Q 215.46 172.00 216.23 172.00
  L 272.73 172.00
  Q 273.33 172.00 273.33 172.61
  L 273.21 227.71
  A 1.50 1.50 0.0 0 0 274.71 229.22
  L 387.25 229.52
  Q 388.98 229.52 389.05 231.25
  L 389.15 233.76
  A 1.66 1.66 0.0 0 1 387.49 235.50
  L 274.00 235.50
  A 0.75 0.75 0.0 0 0 273.25 236.25
  L 273.25 307.19
  A 1.53 1.53 0.0 0 0 274.81 308.72
  Q 277.32 308.68 279.52 308.68
  Q 316.87 308.62 354.75 308.65
  Q 369.92 308.67 386.71 308.46
  Q 389.00 308.44 388.91 310.72
  L 388.84 312.82
  Q 388.75 315.16 386.42 314.92
  Q 382.81 314.56 379.75 314.55
  Q 327.54 314.46 274.79 314.50
  A 1.54 1.53 -0.0 0 0 273.25 316.03
  L 273.25 385.75
  A 1.50 1.50 0.0 0 0 274.75 387.25
  L 386.83 387.25
  A 1.93 1.92 -1.4 0 1 388.76 389.08
  L 388.91 392.03
  Q 388.99 393.52 387.49 393.47
  Q 385.02 393.38 382.52 393.37
  Q 328.71 393.11 274.92 393.30
  A 1.67 1.67 0.0 0 0 273.25 394.97
  L 273.25 466.25
  A 1.00 1.00 0.0 0 0 274.25 467.25
  L 387.05 467.25
  Q 389.37 467.25 389.04 469.55
  L 388.75 471.51
  Q 388.50 473.25 386.74 473.25
  L 275.00 473.25
  A 1.75 1.75 0.0 0 0 273.25 475.00
  L 273.25 544.50
  A 1.50 1.50 0.0 0 0 274.75 546.00
  L 387.66 546.00
  Q 388.82 546.00 388.83 547.16
  L 388.87 551.15
  Q 388.88 552.26 387.76 552.24
  Q 330.84 551.15 274.27 552.24
  A 1.01 1.00 -90.0 0 0 273.28 553.24
  L 273.01 624.24
  Q 273.01 624.97 273.74 624.97
  L 388.49 624.97
  A 0.28 0.28 0.0 0 1 388.77 625.25
  L 388.77 630.74
  Q 388.77 631.00 388.51 631.00
  L 273.26 631.00
  A 0.24 0.23 -90.0 0 0 273.03 631.24
  L 272.93 703.25
  Q 272.93 703.58 273.25 703.58
  L 388.99 703.58
  Q 389.16 703.58 389.16 703.74
  L 389.14 709.51
  Q 389.14 709.69 388.96 709.69
  L 273.24 709.70
  Q 272.92 709.70 272.92 710.01
  L 272.99 782.03
  A 0.30 0.29 90.0 0 0 273.28 782.33
  L 389.01 782.33
  Q 389.18 782.33 389.18 782.51
  L 389.19 788.25
  Q 389.19 788.43 389.00 788.43
  L 273.22 788.44
  A 0.36 0.35 0.0 0 0 272.86 788.79
  Q 272.77 825.89 272.62 860.27
  Q 272.62 862.19 273.02 864.27
  A 2.75 2.75 0.0 0 0 275.72 866.50
  L 387.99 866.50
  Q 389.25 866.50 389.12 867.75
  L 388.74 871.32
  Q 388.62 872.50 387.43 872.50
  L 274.25 872.50
  A 1.01 1.00 0.0 0 0 273.24 873.50
  L 273.25 943.51
  A 2.01 2.01 0.0 0 0 275.26 945.52
  L 387.71 945.22
  Q 388.96 945.22 388.90 946.46
  L 388.74 950.29
  Q 388.70 951.28 387.71 951.28
  L 275.14 950.98
  A 1.88 1.88 0.0 0 0 273.25 952.86
  L 273.25 1022.25
  A 2.00 2.00 0.0 0 0 275.25 1024.25
  L 387.39 1024.25
  Q 389.29 1024.25 389.21 1026.14
  L 389.11 1028.39
  A 1.89 1.89 0.0 0 1 387.22 1030.20
  Q 334.26 1030.32 280.39 1030.57
  Q 277.10 1030.59 273.86 1030.82
  A 0.66 0.65 88.2 0 0 273.25 1031.48
  L 273.26 1101.89
  A 2.13 2.12 89.9 0 0 275.39 1104.02
  L 387.00 1103.72
  Q 388.78 1103.72 388.78 1105.50
  L 388.78 1108.36
  Q 388.78 1110.00 387.14 1110.00
  L 275.25 1110.00
  A 2.00 2.00 0.0 0 0 273.25 1112.00
  L 273.25 1181.50
  A 1.50 1.50 0.0 0 0 274.75 1183.00
  L 387.31 1183.00
  Q 388.61 1183.00 388.70 1184.30
  L 388.96 1187.97
  A 0.96 0.96 0.0 0 1 388.00 1189.00
  L 274.25 1189.00
  A 1.00 1.00 0.0 0 0 273.25 1190.00
  L 273.26 1242.74
  A 0.51 0.50 -90.0 0 1 272.76 1243.25
  L 216.72 1243.25
  A 1.28 1.28 0.0 0 1 215.44 1241.97
  L 215.51 1190.51
  A 1.51 1.50 -90.0 0 0 214.01 1189.00
  L 101.67 1189.00
  A 1.18 1.18 0.0 0 1 100.50 1187.67
  L 101.03 1183.31
  Q 101.18 1182.07 102.42 1182.24
  C 105.30 1182.65 108.26 1183.02 111.23 1183.01
  Q 155.69 1182.99 214.25 1183.00
  A 1.23 1.22 -89.5 0 0 215.48 1181.78
  L 215.50 1111.75
  A 1.75 1.75 0.0 0 0 213.75 1110.00
  L 101.49 1110.00
  Q 100.73 1110.00 100.73 1109.24
  L 100.74 1104.75
  Q 100.74 1104.00 101.50 1104.00
  L 213.99 1104.00
  A 1.49 1.49 0.0 0 0 215.48 1102.51
  L 215.51 1032.52
  A 2.00 1.99 0.1 0 0 213.52 1030.53
  L 101.81 1030.23
  Q 100.78 1030.23 100.60 1029.21
  Q 100.34 1027.77 100.45 1025.99
  Q 100.53 1024.53 102.00 1024.52
  L 213.89 1024.22
  A 1.61 1.60 90.0 0 0 215.49 1022.61
  L 215.47 953.32
  A 2.03 2.03 0.0 0 0 213.46 951.29
  Q 159.59 950.60 111.34 951.31
  Q 106.83 951.38 102.06 951.72
  A 1.27 1.26 88.4 0 1 100.70 950.43
  L 100.80 945.95
  A 0.99 0.98 3.3 0 1 101.87 945.00
  Q 103.73 945.17 105.68 945.18
  Q 159.83 945.32 214.56 945.23
  A 0.93 0.93 0.0 0 0 215.49 944.30
  L 215.49 874.76
  Q 215.49 872.53 213.26 872.53
  L 102.23 872.23
  Q 100.49 872.22 100.50 870.48
  L 100.51 867.74
  Q 100.51 866.50 101.76 866.50
  L 214.23 866.50
  A 1.49 1.48 -89.8 0 0 215.71 865.02
  L 215.97 788.69
  A 0.32 0.32 0.0 0 0 215.65 788.36
  L 101.19 788.36
  Q 101.00 788.36 101.00 788.17
  L 101.00 782.51
  Q 101.00 782.28 101.24 782.28
  L 215.48 782.28
  Q 215.99 782.28 215.99 781.77
  L 216.08 710.29
  Q 216.08 709.62 215.41 709.62
  Z
  M 221.52 1229.53
  Q 222.46 1232.67 221.39 1236.68
  A 0.67 0.67 0.0 0 0 222.04 1237.52
  L 266.53 1237.23
  Q 267.11 1237.22 267.12 1236.65
  L 267.36 1228.77
  L 267.08 179.06
  Q 267.08 178.29 266.31 178.29
  L 222.66 178.19
  A 1.14 1.13 -90.0 0 0 221.53 179.33
  L 221.52 1229.53
  Z"
/>
<path fill="#ffffff" d="
  M 267.36 1228.77
  Q 266.26 1229.23 265.64 1229.79
  C 264.62 1230.73 265.02 1233.16 265.03 1234.46
  A 0.51 0.51 0.0 0 1 264.52 1234.98
  L 224.52 1235.33
  A 0.78 0.77 -1.9 0 1 223.73 1234.60
  Q 223.62 1232.39 223.47 1230.00
  Q 223.43 1229.28 221.52 1229.53
  L 221.53 179.33
  A 1.14 1.13 90.0 0 1 222.66 178.19
  L 266.31 178.29
  Q 267.08 178.29 267.08 179.06
  L 267.36 1228.77
  Z"
/>
<rect fill="#000000" x="-17.95" y="-2.58" transform="translate(34.60,234.41) rotate(-0.2)" width="35.90" height="5.16" rx="1.06"/>
<path fill="#000000" d="
  M 45.9569 720.9189
  A 10.44 10.44 0.0 0 1 35.4805 731.3224
  L 34.0605 731.3174
  A 10.44 10.44 0.0 0 1 23.6570 720.8410
  L 23.7031 707.6411
  A 10.44 10.44 0.0 0 1 34.1795 697.2376
  L 35.5995 697.2426
  A 10.44 10.44 0.0 0 1 46.0030 707.7190
  L 45.9569 720.9189
  Z
  M 34.7900 727.6200
  A 13.30 6.46 90.0 0 0 41.2500 714.3200
  A 13.30 6.46 90.0 0 0 34.7900 701.0200
  A 13.30 6.46 90.0 0 0 28.3300 714.3200
  A 13.30 6.46 90.0 0 0 34.7900 727.6200
  Z"
/>
<ellipse fill="#ffffff" cx="0.00" cy="0.00" transform="translate(34.79,714.32) rotate(90.0)" rx="13.30" ry="6.46"/>
<path fill="#000000" d="
  M 39.86 1181.05
  L 49.47 1183.37
  A 1.34 1.34 0.0 0 1 49.48 1185.97
  L 39.89 1188.36
  A 1.34 1.34 0.0 0 0 38.91 1189.34
  L 36.59 1198.95
  A 1.34 1.34 0.0 0 1 33.99 1198.96
  L 31.60 1189.37
  A 1.34 1.34 0.0 0 0 30.62 1188.39
  L 21.01 1186.07
  A 1.34 1.34 0.0 0 1 21.00 1183.47
  L 30.59 1181.08
  A 1.34 1.34 0.0 0 0 31.57 1180.10
  L 33.89 1170.49
  A 1.34 1.34 0.0 0 1 36.49 1170.48
  L 38.88 1180.07
  A 1.34 1.34 0.0 0 0 39.86 1181.05
  Z"
/>
<path fill="#808080" d="
  M 267.36 1228.77
  L 267.12 1236.65
  Q 267.11 1237.22 266.53 1237.23
  L 222.04 1237.52
  A 0.67 0.67 0.0 0 1 221.39 1236.68
  Q 222.46 1232.67 221.52 1229.53
  Q 223.43 1229.28 223.47 1230.00
  Q 223.62 1232.39 223.73 1234.60
  A 0.78 0.77 -1.9 0 0 224.52 1235.33
  L 264.52 1234.98
  A 0.51 0.51 0.0 0 0 265.03 1234.46
  C 265.02 1233.16 264.62 1230.73 265.64 1229.79
  Q 266.26 1229.23 267.36 1228.77
  Z"
/>
<path fill="#808080" d="
  M 299.42 1356.99
  Q 299.74 1354.31 300.64 1351.49
  A 1.08 1.01 -9.4 0 1 301.07 1350.93
  Q 301.61 1350.58 301.47 1349.99
  Q 301.34 1349.45 301.80 1349.14
  C 303.04 1348.32 302.98 1346.90 304.04 1345.90
  C 306.03 1344.02 307.49 1342.20 310.07 1340.88
  Q 319.45 1336.07 329.12 1340.75
  C 331.08 1341.70 332.44 1343.48 334.04 1344.90
  C 341.17 1351.23 341.88 1362.59 338.41 1370.74
  Q 337.83 1372.10 336.84 1373.20
  C 335.93 1374.20 335.76 1375.30 334.79 1376.30
  Q 326.46 1384.85 315.02 1382.51
  C 313.75 1382.26 312.98 1381.45 311.65 1381.52
  Q 311.27 1381.54 311.09 1381.20
  Q 311.02 1381.06 310.92 1380.93
  Q 310.86 1380.86 310.79 1380.82
  Q 298.21 1373.44 299.03 1358.49
  C 299.06 1357.95 299.36 1357.46 299.42 1356.99
  Z
  M 303.35 1351.45
  Q 302.37 1352.95 301.93 1354.80
  Q 299.66 1364.42 304.48 1372.08
  Q 307.42 1376.75 312.74 1379.36
  C 319.43 1382.65 327.05 1380.29 332.72 1375.35
  C 333.86 1374.35 333.97 1373.16 334.96 1372.09
  Q 335.96 1370.99 336.48 1369.65
  C 339.41 1362.01 338.85 1353.19 333.27 1347.08
  Q 330.90 1344.49 329.03 1343.33
  C 321.18 1338.50 312.30 1340.37 306.01 1346.91
  C 304.93 1348.04 304.90 1349.45 303.57 1350.36
  Q 303.47 1350.43 303.42 1350.55
  Q 303.35 1350.72 303.42 1350.89
  Q 303.53 1351.19 303.35 1351.45
  Z"
/>
<path fill="#808080" d="
  M 193.34 1348.33
  Q 194.41 1351.71 193.72 1354.94
  A 0.96 0.95 -83.6 0 0 194.64 1356.10
  Q 200.85 1356.15 209.11 1355.36
  Q 213.81 1354.92 213.76 1359.63
  L 213.74 1361.37
  Q 213.69 1365.68 209.38 1365.53
  L 194.76 1365.03
  Q 193.87 1365.00 193.83 1365.88
  L 193.62 1371.22
  Q 193.58 1372.17 194.53 1372.11
  Q 201.68 1371.70 208.97 1371.75
  Q 213.26 1371.78 216.08 1374.68
  A 0.22 0.21 -66.6 0 0 216.44 1374.53
  Q 216.79 1358.01 216.78 1342.50
  Q 216.78 1339.81 219.85 1339.23
  Q 224.90 1338.27 229.24 1340.41
  C 230.68 1341.12 231.47 1342.74 231.89 1344.23
  Q 233.63 1350.50 235.69 1356.72
  C 236.48 1359.13 237.75 1361.20 238.33 1363.65
  Q 238.68 1365.16 239.28 1363.73
  Q 242.98 1354.78 245.45 1344.99
  Q 245.75 1343.81 246.77 1341.70
  Q 246.99 1341.24 247.43 1340.98
  Q 252.32 1338.10 258.20 1339.27
  C 259.87 1339.60 260.72 1340.53 260.73 1342.30
  Q 260.81 1361.17 260.70 1379.56
  A 2.11 2.11 0.0 0 1 258.60 1381.65
  L 252.83 1381.70
  A 3.22 3.21 1.2 0 1 249.59 1378.33
  L 250.27 1364.47
  Q 250.32 1363.57 249.68 1364.21
  Q 249.15 1364.75 248.84 1365.77
  Q 246.20 1374.56 243.64 1380.26
  Q 243.07 1381.51 241.51 1381.97
  C 236.41 1383.46 233.66 1380.96 232.19 1376.39
  Q 230.53 1371.20 228.52 1366.21
  Q 228.09 1365.16 227.57 1363.98
  Q 227.45 1363.71 227.18 1363.62
  Q 227.00 1363.56 226.85 1363.68
  Q 226.58 1363.89 226.63 1364.23
  C 227.23 1368.17 226.90 1372.07 227.60 1376.02
  C 227.85 1377.44 227.70 1378.63 227.53 1380.02
  A 1.72 1.72 0.0 0 1 226.08 1381.52
  Q 222.88 1382.02 219.15 1381.52
  C 217.90 1381.36 217.30 1380.54 216.89 1379.45
  Q 216.66 1378.86 216.22 1379.32
  Q 214.15 1381.49 211.23 1381.39
  Q 199.42 1381.02 188.00 1381.99
  Q 186.08 1382.16 184.71 1381.10
  A 1.37 1.34 -76.4 0 1 184.21 1380.26
  Q 183.95 1378.83 183.93 1377.39
  Q 183.66 1359.92 184.10 1342.71
  Q 184.14 1341.28 185.11 1340.39
  Q 185.82 1339.74 186.76 1339.68
  Q 200.06 1338.90 212.98 1339.48
  A 1.58 1.55 64.0 0 1 213.85 1339.79
  Q 216.55 1341.82 215.26 1345.72
  Q 213.96 1349.66 210.48 1349.59
  Q 203.11 1349.46 195.13 1348.58
  Q 194.27 1348.48 193.49 1348.19
  Q 193.27 1348.10 193.34 1348.33
  Z
  M 185.22 1344.96
  Q 185.17 1344.82 185.22 1344.68
  Q 185.24 1344.63 185.19 1344.60
  Q 185.14 1344.57 185.12 1344.63
  Q 185.10 1344.67 185.10 1344.72
  Q 185.30 1359.16 185.17 1374.00
  Q 185.15 1376.27 185.34 1378.64
  A 1.58 1.58 0.0 0 0 186.88 1380.10
  Q 198.95 1380.41 210.25 1379.79
  Q 212.91 1379.65 214.61 1377.66
  Q 214.94 1377.28 214.71 1376.84
  Q 213.53 1374.48 211.39 1374.21
  Q 201.75 1372.97 193.02 1373.60
  A 0.72 0.72 0.0 0 1 192.26 1372.75
  Q 193.00 1368.82 192.20 1364.47
  A 0.94 0.93 -87.1 0 1 193.38 1363.40
  Q 194.79 1363.81 196.16 1363.76
  Q 202.90 1363.55 210.15 1363.26
  Q 211.43 1363.20 211.46 1361.92
  L 211.53 1358.63
  A 0.98 0.98 0.0 0 0 210.64 1357.63
  Q 200.90 1356.82 193.04 1357.87
  A 0.66 0.66 0.0 0 1 192.31 1357.07
  Q 193.35 1352.22 192.83 1347.69
  Q 192.76 1347.12 193.33 1347.13
  L 209.82 1347.33
  Q 212.05 1347.36 212.91 1345.30
  L 213.41 1344.09
  Q 214.48 1341.52 211.70 1341.44
  L 186.30 1340.76
  A 0.77 0.76 3.1 0 0 185.51 1341.46
  Q 185.37 1343.13 185.41 1344.93
  Q 185.42 1345.55 185.22 1344.96
  Z
  M 252.90 1353.82
  L 251.87 1378.05
  Q 251.79 1379.80 253.55 1379.79
  L 256.88 1379.78
  Q 258.78 1379.77 258.76 1377.87
  L 258.42 1343.16
  A 1.89 1.88 -85.8 0 0 256.84 1341.32
  Q 253.36 1340.76 249.59 1342.25
  Q 249.19 1342.41 248.91 1342.75
  Q 248.11 1343.73 247.81 1344.85
  Q 245.39 1354.01 242.71 1360.94
  Q 241.08 1365.17 239.55 1369.28
  Q 238.99 1370.76 238.37 1369.31
  Q 233.10 1357.16 229.60 1344.20
  C 228.72 1340.94 222.77 1341.03 220.19 1341.36
  A 1.43 1.42 86.7 0 0 218.96 1342.75
  L 218.59 1377.28
  Q 218.57 1379.25 220.53 1379.42
  L 223.95 1379.73
  Q 225.97 1379.90 225.64 1377.91
  Q 225.10 1374.68 224.92 1371.56
  Q 224.43 1362.88 224.43 1354.77
  Q 224.43 1354.29 224.63 1353.86
  Q 225.27 1352.50 225.75 1353.92
  C 226.62 1356.51 227.91 1358.74 228.94 1361.34
  Q 232.62 1370.70 235.07 1377.66
  C 236.24 1381.00 241.15 1381.16 242.46 1377.74
  Q 243.86 1374.09 246.01 1367.38
  Q 246.56 1365.69 247.22 1364.22
  Q 247.91 1362.69 248.64 1361.12
  Q 249.47 1359.36 250.16 1357.35
  Q 250.86 1355.28 252.19 1353.56
  Q 252.96 1352.57 252.90 1353.82
  Z"
/>
<path fill="#808080" d="
  M 298.70 1357.40
  Q 298.27 1358.99 297.68 1360.61
  Q 297.20 1361.94 296.13 1363.01
  Q 293.00 1366.12 289.42 1366.56
  Q 283.01 1367.35 276.86 1367.24
  Q 275.87 1367.22 275.95 1368.21
  Q 276.39 1373.87 276.25 1378.76
  C 276.14 1382.45 270.04 1382.16 267.46 1381.95
  C 264.76 1381.73 264.42 1378.83 264.52 1376.73
  Q 265.35 1360.56 264.45 1342.96
  C 264.31 1340.27 266.42 1339.33 268.69 1339.24
  Q 279.12 1338.85 287.99 1339.76
  Q 291.71 1340.14 294.59 1342.38
  Q 294.86 1342.59 295.14 1342.68
  Q 295.29 1342.73 295.44 1342.75
  A 0.86 0.85 -7.7 0 1 296.09 1343.24
  C 296.78 1344.77 298.13 1345.57 298.54 1347.21
  Q 299.95 1352.79 298.70 1357.40
  Z
  M 295.64 1359.35
  Q 297.45 1355.30 296.95 1350.29
  C 296.31 1343.76 289.96 1341.76 284.14 1341.52
  Q 275.56 1341.17 267.85 1341.58
  A 1.23 1.22 -2.8 0 0 266.68 1342.86
  C 267.21 1354.57 267.41 1365.58 266.57 1377.22
  Q 266.34 1380.38 269.49 1380.07
  L 271.75 1379.85
  Q 274.33 1379.60 274.21 1377.01
  L 273.71 1366.73
  A 1.69 1.68 -0.5 0 1 275.45 1364.97
  Q 281.74 1365.21 288.08 1364.59
  Q 292.23 1364.17 294.84 1361.09
  C 295.27 1360.58 295.37 1359.96 295.64 1359.35
  Z"
/>
<path fill="#000000" d="
  M 180.70 1344.22
  L 180.16 1344.92
  Q 179.89 1345.26 179.88 1345.69
  Q 179.84 1347.23 178.24 1347.11
  Q 174.18 1346.80 170.53 1347.36
  Q 169.87 1347.46 169.31 1347.82
  Q 168.80 1348.15 168.21 1348.33
  A 1.02 1.02 0.0 0 0 167.49 1349.36
  Q 167.95 1357.63 167.72 1366.44
  Q 167.56 1372.35 168.44 1377.74
  Q 168.78 1379.78 166.71 1379.86
  L 161.84 1380.06
  Q 159.68 1380.14 159.68 1377.98
  L 159.68 1355.53
  L 159.70 1349.12
  Q 159.71 1348.27 158.85 1348.29
  L 147.51 1348.49
  Q 147.38 1348.50 147.34 1348.37
  Q 146.92 1346.80 147.27 1340.63
  Q 147.27 1340.56 147.35 1340.56
  L 179.18 1340.03
  A 1.72 1.71 -88.0 0 1 180.91 1341.89
  L 180.70 1344.22
  Z"
/>
<path fill="#000000" d="
  M 303.42 1350.89
  Q 303.35 1350.72 303.42 1350.55
  Q 303.47 1350.43 303.57 1350.36
  C 304.90 1349.45 304.93 1348.04 306.01 1346.91
  C 312.30 1340.37 321.18 1338.50 329.03 1343.33
  Q 330.90 1344.49 333.27 1347.08
  C 338.85 1353.19 339.41 1362.01 336.48 1369.65
  Q 335.96 1370.99 334.96 1372.09
  C 333.97 1373.16 333.86 1374.35 332.72 1375.35
  C 327.05 1380.29 319.43 1382.65 312.74 1379.36
  Q 307.42 1376.75 304.48 1372.08
  Q 299.66 1364.42 301.93 1354.80
  Q 302.37 1352.95 303.35 1351.45
  Q 303.53 1351.19 303.42 1350.89
  Z
  M 319.6959 1375.4500
  A 14.85 12.26 89.9 0 0 331.9300 1360.5786
  A 14.85 12.26 89.9 0 0 319.6441 1345.7500
  A 14.85 12.26 89.9 0 0 307.4100 1360.6214
  A 14.85 12.26 89.9 0 0 319.6959 1375.4500
  Z"
/>
<path fill="#000000" d="
  M 185.41 1344.93
  Q 185.37 1343.13 185.51 1341.46
  A 0.77 0.76 3.1 0 1 186.30 1340.76
  L 211.70 1341.44
  Q 214.48 1341.52 213.41 1344.09
  L 212.91 1345.30
  Q 212.05 1347.36 209.82 1347.33
  L 193.33 1347.13
  Q 192.76 1347.12 192.83 1347.69
  Q 193.35 1352.22 192.31 1357.07
  A 0.66 0.66 0.0 0 0 193.04 1357.87
  Q 200.90 1356.82 210.64 1357.63
  A 0.98 0.98 0.0 0 1 211.53 1358.63
  L 211.46 1361.92
  Q 211.43 1363.20 210.15 1363.26
  Q 202.90 1363.55 196.16 1363.76
  Q 194.79 1363.81 193.38 1363.40
  A 0.94 0.93 -87.1 0 0 192.20 1364.47
  Q 193.00 1368.82 192.26 1372.75
  A 0.72 0.72 0.0 0 0 193.02 1373.60
  Q 201.75 1372.97 211.39 1374.21
  Q 213.53 1374.48 214.71 1376.84
  Q 214.94 1377.28 214.61 1377.66
  Q 212.91 1379.65 210.25 1379.79
  Q 198.95 1380.41 186.88 1380.10
  A 1.58 1.58 0.0 0 1 185.34 1378.64
  Q 185.15 1376.27 185.17 1374.00
  Q 185.30 1359.16 185.10 1344.72
  Q 185.10 1344.67 185.12 1344.63
  Q 185.14 1344.57 185.19 1344.60
  Q 185.24 1344.63 185.22 1344.68
  Q 185.17 1344.82 185.22 1344.96
  Q 185.42 1345.55 185.41 1344.93
  Z"
/>
<path fill="#000000" d="
  M 252.19 1353.56
  Q 250.86 1355.28 250.16 1357.35
  Q 249.47 1359.36 248.64 1361.12
  Q 247.91 1362.69 247.22 1364.22
  Q 246.56 1365.69 246.01 1367.38
  Q 243.86 1374.09 242.46 1377.74
  C 241.15 1381.16 236.24 1381.00 235.07 1377.66
  Q 232.62 1370.70 228.94 1361.34
  C 227.91 1358.74 226.62 1356.51 225.75 1353.92
  Q 225.27 1352.50 224.63 1353.86
  Q 224.43 1354.29 224.43 1354.77
  Q 224.43 1362.88 224.92 1371.56
  Q 225.10 1374.68 225.64 1377.91
  Q 225.97 1379.90 223.95 1379.73
  L 220.53 1379.42
  Q 218.57 1379.25 218.59 1377.28
  L 218.96 1342.75
  A 1.43 1.42 86.7 0 1 220.19 1341.36
  C 222.77 1341.03 228.72 1340.94 229.60 1344.20
  Q 233.10 1357.16 238.37 1369.31
  Q 238.99 1370.76 239.55 1369.28
  Q 241.08 1365.17 242.71 1360.94
  Q 245.39 1354.01 247.81 1344.85
  Q 248.11 1343.73 248.91 1342.75
  Q 249.19 1342.41 249.59 1342.25
  Q 253.36 1340.76 256.84 1341.32
  A 1.89 1.88 -85.8 0 1 258.42 1343.16
  L 258.76 1377.87
  Q 258.78 1379.77 256.88 1379.78
  L 253.55 1379.79
  Q 251.79 1379.80 251.87 1378.05
  L 252.90 1353.82
  Q 252.96 1352.57 252.19 1353.56
  Z"
/>
<path fill="#000000" d="
  M 295.64 1359.35
  C 295.37 1359.96 295.27 1360.58 294.84 1361.09
  Q 292.23 1364.17 288.08 1364.59
  Q 281.74 1365.21 275.45 1364.97
  A 1.69 1.68 -0.5 0 0 273.71 1366.73
  L 274.21 1377.01
  Q 274.33 1379.60 271.75 1379.85
  L 269.49 1380.07
  Q 266.34 1380.38 266.57 1377.22
  C 267.41 1365.58 267.21 1354.57 266.68 1342.86
  A 1.23 1.22 -2.8 0 1 267.85 1341.58
  Q 275.56 1341.17 284.14 1341.52
  C 289.96 1341.76 296.31 1343.76 296.95 1350.29
  Q 297.45 1355.30 295.64 1359.35
  Z
  M 273.65 1349.51
  L 273.67 1356.57
  A 3.13 3.13 0.0 0 0 276.80 1359.70
  L 284.01 1359.69
  A 6.66 6.49 -0.1 0 0 290.66 1353.19
  L 290.66 1352.85
  A 6.66 6.49 -0.1 0 0 283.99 1346.37
  L 276.78 1346.38
  A 3.13 3.13 0.0 0 0 273.65 1349.51
  Z"
/>
<path fill="#808080" d="
  M 180.70 1344.22
  Q 181.76 1348.15 178.80 1348.73
  Q 174.48 1349.57 170.29 1349.18
  Q 168.49 1349.01 168.59 1350.82
  Q 169.07 1360.13 169.06 1368.78
  C 169.05 1372.14 169.54 1375.39 169.99 1378.70
  A 2.22 2.22 0.0 0 1 167.83 1381.23
  L 160.53 1381.34
  A 1.88 1.88 0.0 0 1 158.63 1379.26
  Q 159.87 1367.21 159.68 1355.53
  L 159.68 1377.98
  Q 159.68 1380.14 161.84 1380.06
  L 166.71 1379.86
  Q 168.78 1379.78 168.44 1377.74
  Q 167.56 1372.35 167.72 1366.44
  Q 167.95 1357.63 167.49 1349.36
  A 1.02 1.02 0.0 0 1 168.21 1348.33
  Q 168.80 1348.15 169.31 1347.82
  Q 169.87 1347.46 170.53 1347.36
  Q 174.18 1346.80 178.24 1347.11
  Q 179.84 1347.23 179.88 1345.69
  Q 179.89 1345.26 180.16 1344.92
  L 180.70 1344.22
  Z"
/>
<ellipse fill="#ffffff" cx="0.00" cy="0.00" transform="translate(319.67,1360.60) rotate(89.9)" rx="14.85" ry="12.26"/>
<path fill="#ffffff" d="
  M 273.65 1349.51
  A 3.13 3.13 0.0 0 1 276.78 1346.38
  L 283.99 1346.37
  A 6.66 6.49 -0.1 0 1 290.66 1352.85
  L 290.66 1353.19
  A 6.66 6.49 -0.1 0 1 284.01 1359.69
  L 276.80 1359.70
  A 3.13 3.13 0.0 0 1 273.67 1356.57
  L 273.65 1349.51
  Z"
/>
</svg>
