<?xml version="1.0" encoding="UTF-8" standalone="no"?>
<!DOCTYPE svg PUBLIC "-//W3C//DTD SVG 1.1//EN" "http://www.w3.org/Graphics/SVG/1.1/DTD/svg11.dtd">
<svg xmlns="http://www.w3.org/2000/svg" version="1.1" viewBox="0.00 0.00 322.00 1020.00">
<g stroke-width="2.00" fill="none" stroke-linecap="butt">
<path stroke="#808080" vector-effect="non-scaling-stroke" d="
  M 288.88 52.32
  A 35.00 35.00 0.0 0 0 253.88 17.32
  L 88.22 17.32
  A 35.00 35.00 0.0 0 0 53.22 52.32
  L 53.22 965.90
  A 35.00 35.00 0.0 0 0 88.22 1000.90
  L 253.88 1000.90
  A 35.00 35.00 0.0 0 0 288.88 965.90
  L 288.88 52.32"
/>
<path stroke="#808080" vector-effect="non-scaling-stroke" d="
  M 36.5481 162.8882
  A 0.72 0.72 0.0 0 0 35.8269 162.1694
  L 12.2669 162.2106
  A 0.72 0.72 0.0 0 0 11.5482 162.9318
  L 11.5519 165.0318
  A 0.72 0.72 0.0 0 0 12.2731 165.7506
  L 35.8331 165.7094
  A 0.72 0.72 0.0 0 0 36.5518 164.9882
  L 36.5481 162.8882"
/>
<path stroke="#808080" vector-effect="non-scaling-stroke" d="
  M 32.0542 495.5409
  A 7.25 7.25 0.0 0 0 24.8422 488.2530
  L 23.7623 488.2473
  A 7.25 7.25 0.0 0 0 16.4744 495.4593
  L 16.4258 504.7391
  A 7.25 7.25 0.0 0 0 23.6378 512.0270
  L 24.7177 512.0327
  A 7.25 7.25 0.0 0 0 32.0056 504.8207
  L 32.0542 495.5409"
/>
<path stroke="#808080" vector-effect="non-scaling-stroke" d="
  M 27.91 827.41
  A 1.32 1.32 0.0 0 1 26.82 826.32
  L 25.82 820.20
  A 1.32 1.32 0.0 0 0 23.21 820.20
  L 22.23 826.33
  A 1.32 1.32 0.0 0 1 21.14 827.42
  L 15.02 828.42
  A 1.32 1.32 0.0 0 0 15.02 831.03
  L 21.15 832.01
  A 1.32 1.32 0.0 0 1 22.24 833.10
  L 23.24 839.22
  A 1.32 1.32 0.0 0 0 25.85 839.22
  L 26.83 833.09
  A 1.32 1.32 0.0 0 1 27.92 832.00
  L 34.04 831.00
  A 1.32 1.32 0.0 0 0 34.04 828.39
  L 27.91 827.41"
/>
<path stroke="#808080" vector-effect="non-scaling-stroke" d="
  M 284.81 52.24
  A 30.75 30.75 0.0 0 0 254.06 21.49
  L 88.04 21.49
  A 30.75 30.75 0.0 0 0 57.29 52.24
  L 57.29 965.92
  A 30.75 30.75 0.0 0 0 88.04 996.67
  L 254.06 996.67
  A 30.75 30.75 0.0 0 0 284.81 965.92
  L 284.81 52.24"
/>
<path stroke="#808080" vector-effect="non-scaling-stroke" d="
  M 75.21 554.77
  Q 76.26 554.75 76.26 555.80
  Q 76.31 570.23 76.27 583.50
  C 76.23 597.17 81.74 602.43 95.27 602.63
  Q 109.99 602.84 149.58 602.88
  Q 151.26 602.88 151.21 604.56
  L 151.20 604.85
  Q 151.14 606.84 149.15 606.84
  L 70.99 606.80
  Q 70.27 606.80 70.26 607.52
  L 70.24 609.78
  A 1.05 1.04 0.8 0 0 71.28 610.84
  L 149.29 611.05
  Q 150.79 611.06 150.79 612.55
  L 150.79 661.24
  A 0.77 0.76 -0.0 0 1 150.02 662.00
  Q 112.57 662.02 74.73 661.98
  C 73.59 661.98 72.46 661.65 71.28 661.69
  Q 70.49 661.73 70.46 662.52
  L 70.37 665.48
  A 0.93 0.92 87.8 0 0 71.39 666.43
  Q 74.48 666.11 77.62 666.10
  Q 111.50 665.93 149.42 666.10
  A 1.36 1.35 0.2 0 1 150.77 667.45
  L 150.80 716.18
  A 1.02 1.02 0.0 0 1 149.78 717.21
  L 71.29 717.37
  Q 70.20 717.37 70.20 718.45
  L 70.19 720.46
  A 1.03 1.03 0.0 0 0 71.21 721.49
  L 149.49 721.65
  A 1.34 1.33 90.0 0 1 150.82 722.99
  L 150.78 772.27
  A 0.80 0.80 0.0 0 1 149.98 773.07
  L 71.04 773.08
  Q 70.40 773.08 70.40 773.71
  L 70.39 776.75
  Q 70.39 777.36 71.00 777.36
  L 149.42 777.29
  Q 150.80 777.29 150.80 778.67
  L 150.78 827.82
  A 0.61 0.61 0.0 0 1 150.17 828.43
  Q 115.69 828.50 76.63 828.43
  Q 74.29 828.42 71.73 828.04
  Q 70.73 827.89 70.60 828.91
  L 70.26 831.66
  Q 70.14 832.68 71.17 832.68
  L 149.52 832.72
  Q 150.82 832.72 150.82 834.02
  L 150.75 869.88
  Q 150.75 870.63 151.50 870.63
  L 190.76 870.77
  Q 191.30 870.77 191.30 870.24
  L 191.26 833.70
  Q 191.26 832.66 192.30 832.66
  L 271.33 832.73
  Q 272.40 832.73 272.32 831.66
  L 272.16 829.35
  Q 272.09 828.42 271.16 828.42
  L 192.50 828.49
  A 1.24 1.23 -90.0 0 1 191.27 827.25
  L 191.26 778.65
  A 1.35 1.34 90.0 0 1 192.60 777.30
  L 271.21 777.32
  A 1.03 1.03 0.0 0 0 272.24 776.29
  L 272.22 774.00
  A 0.97 0.96 -0.3 0 0 271.25 773.05
  L 192.57 773.11
  A 1.28 1.28 0.0 0 1 191.29 771.83
  L 191.26 722.53
  A 0.75 0.75 0.0 0 1 191.98 721.78
  Q 197.01 721.56 202.26 721.57
  Q 236.63 721.61 271.04 721.47
  A 1.42 1.41 0.4 0 0 272.45 720.09
  L 272.48 718.80
  Q 272.52 717.34 271.05 717.34
  L 192.38 717.23
  A 1.11 1.10 89.7 0 1 191.28 716.13
  L 191.27 667.28
  A 1.26 1.26 0.0 0 1 192.53 666.02
  L 271.54 666.06
  Q 272.20 666.06 272.22 665.39
  L 272.29 662.51
  Q 272.31 661.96 271.76 661.96
  L 192.58 662.02
  Q 191.28 662.02 191.28 660.72
  L 191.25 611.75
  A 0.75 0.75 0.0 0 1 192.00 611.00
  L 271.32 610.99
  A 0.85 0.85 0.0 0 0 272.16 610.24
  L 272.43 607.95
  Q 272.57 606.75 271.36 606.75
  L 193.20 606.85
  A 2.21 2.21 0.0 0 1 190.98 604.70
  L 190.97 604.23
  A 1.36 1.35 89.2 0 1 192.31 602.84
  Q 213.65 602.70 243.16 602.87
  C 250.67 602.91 257.38 600.84 260.71 593.64
  Q 262.18 590.47 261.97 579.57
  Q 261.76 567.89 261.99 556.07
  A 1.10 1.09 -89.7 0 1 263.07 554.99
  L 270.68 554.96
  Q 272.56 554.95 272.50 553.07
  L 272.49 552.58
  Q 272.43 550.74 270.58 550.75
  L 263.01 550.81
  A 1.16 1.15 -89.5 0 1 261.85 549.62
  L 263.00 500.49
  A 1.08 1.07 2.8 0 1 264.16 499.44
  L 270.45 499.93
  Q 272.21 500.07 272.25 498.30
  L 272.28 496.65
  Q 272.31 494.98 270.65 495.11
  L 264.05 495.60
  Q 263.46 495.65 263.37 495.07
  Q 262.67 490.62 262.61 485.76
  C 262.50 476.86 262.61 468.58 262.19 459.45
  Q 261.82 451.60 261.82 443.16
  A 1.24 1.24 0.0 0 1 263.03 441.92
  L 271.02 441.78
  Q 272.62 441.75 272.50 440.16
  Q 272.48 439.86 272.47 439.55
  Q 272.40 437.59 270.43 437.62
  L 263.28 437.76
  Q 261.88 437.79 261.86 436.39
  Q 261.76 425.07 262.00 412.33
  C 262.16 403.75 261.10 396.83 252.83 393.20
  Q 249.51 391.74 243.23 391.83
  C 226.07 392.07 208.81 392.28 191.69 391.73
  Q 190.99 391.70 191.04 391.01
  L 191.33 387.14
  Q 191.37 386.58 191.93 386.57
  Q 232.44 386.08 271.19 386.59
  Q 272.31 386.60 272.29 385.49
  L 272.26 383.24
  Q 272.25 382.22 271.24 382.22
  L 192.52 382.27
  Q 191.27 382.27 191.27 381.02
  L 191.26 332.50
  A 1.25 1.24 -90.0 0 1 192.50 331.25
  L 270.93 331.21
  Q 272.07 331.21 272.21 330.08
  L 272.42 328.31
  A 1.12 1.12 0.0 0 0 271.31 327.06
  L 192.16 327.03
  A 0.88 0.88 0.0 0 1 191.28 326.15
  L 191.26 276.44
  A 1.18 1.17 -0.0 0 1 192.44 275.27
  Q 228.14 275.25 265.85 275.26
  Q 268.53 275.26 271.06 275.44
  Q 272.36 275.53 272.30 274.24
  L 272.20 272.21
  A 1.23 1.23 0.0 0 0 270.97 271.03
  L 192.26 271.01
  A 1.00 0.99 0.3 0 1 191.26 270.01
  L 191.27 221.29
  A 1.23 1.23 0.0 0 1 192.50 220.06
  Q 229.86 220.05 267.01 220.03
  C 268.33 220.03 269.62 220.37 270.92 220.44
  A 1.25 1.25 0.0 0 0 272.25 219.22
  L 272.29 217.26
  Q 272.32 215.85 270.91 215.86
  Q 232.54 216.15 196.12 215.91
  Q 194.68 215.90 193.07 216.09
  Q 191.28 216.30 191.28 214.51
  L 191.26 165.50
  A 0.74 0.74 0.0 0 1 192.00 164.76
  L 271.13 164.74
  A 1.33 1.33 0.0 0 0 272.46 163.36
  L 272.40 161.78
  Q 272.35 160.48 271.06 160.48
  L 192.69 160.42
  Q 191.21 160.42 191.22 158.94
  L 191.35 120.46
  A 0.25 0.24 90.0 0 0 191.11 120.21
  L 151.37 120.27
  Q 150.76 120.27 150.76 120.88
  L 150.81 159.04
  Q 150.81 160.39 149.46 160.39
  L 71.49 160.51
  A 1.27 1.27 0.0 0 0 70.23 161.76
  L 70.20 163.30
  Q 70.18 164.67 71.55 164.67
  L 149.68 164.80
  A 1.13 1.13 0.0 0 1 150.81 165.93
  L 150.77 215.37
  A 0.64 0.63 0.0 0 1 150.13 216.00
  L 71.03 215.95
  Q 70.50 215.94 70.48 216.47
  L 70.37 219.49
  Q 70.35 220.08 70.94 220.08
  L 149.58 220.03
  A 1.19 1.18 -0.0 0 1 150.77 221.21
  L 150.82 269.98
  A 1.05 1.05 0.0 0 1 149.77 271.03
  L 71.23 271.02
  Q 70.36 271.02 70.32 271.89
  L 70.20 274.48
  Q 70.16 275.29 70.98 275.29
  L 149.35 275.25
  A 1.44 1.44 0.0 0 1 150.79 276.69
  L 150.79 325.50
  Q 150.80 327.04 149.25 327.04
  L 70.98 327.04
  Q 70.25 327.04 70.25 327.77
  L 70.24 330.50
  Q 70.24 331.25 71.00 331.25
  L 149.26 331.23
  A 1.55 1.54 -90.0 0 1 150.80 332.78
  L 150.77 381.57
  A 0.73 0.73 0.0 0 1 150.03 382.30
  Q 111.54 382.19 74.82 382.28
  C 73.64 382.28 72.50 381.90 71.30 381.96
  Q 70.53 382.01 70.49 382.77
  L 70.30 385.82
  Q 70.25 386.65 71.08 386.64
  Q 106.90 386.32 143.99 386.37
  Q 147.04 386.37 149.83 386.71
  A 1.27 1.26 1.1 0 1 150.93 387.85
  L 151.22 391.18
  Q 151.26 391.67 150.77 391.72
  Q 148.62 391.92 146.26 391.93
  Q 119.35 392.06 93.06 391.86
  Q 88.80 391.83 85.27 393.37
  C 79.42 395.91 76.25 402.00 76.27 408.00
  Q 76.32 422.05 76.25 436.92
  A 0.89 0.89 0.0 0 1 75.30 437.81
  L 71.51 437.58
  Q 70.27 437.50 70.24 438.74
  L 70.20 440.76
  Q 70.18 441.84 71.26 441.82
  L 75.54 441.78
  A 0.76 0.75 89.6 0 1 76.30 442.54
  L 76.21 494.42
  Q 76.21 495.83 74.83 495.58
  L 71.67 495.00
  Q 70.38 494.77 70.42 496.08
  L 70.51 498.95
  A 1.10 1.09 -3.7 0 0 71.71 500.00
  Q 73.04 499.87 74.34 499.46
  Q 76.20 498.87 76.21 500.82
  L 76.30 550.16
  Q 76.30 551.12 75.34 551.07
  L 71.62 550.87
  Q 70.29 550.79 70.28 552.13
  L 70.26 553.92
  Q 70.25 554.85 71.18 554.84
  L 75.21 554.77"
/>
<path stroke="#808080" vector-effect="non-scaling-stroke" d="
  M 224.0071 967.1186
  A 14.12 13.03 89.2 0 0 236.8387 952.8181
  A 14.12 13.03 89.2 0 0 223.6129 938.8814
  A 14.12 13.03 89.2 0 0 210.7813 953.1819
  A 14.12 13.03 89.2 0 0 224.0071 967.1186"
/>
<path stroke="#808080" vector-effect="non-scaling-stroke" d="
  M 117.77 943.50
  L 124.00 943.56
  Q 125.83 943.58 125.97 941.75
  L 126.03 941.02
  Q 126.15 939.40 124.52 939.40
  L 104.25 939.48
  Q 103.63 939.48 103.65 940.18
  L 103.73 943.05
  A 0.56 0.56 0.0 0 0 104.30 943.59
  L 111.19 943.47
  A 1.41 1.41 0.0 0 1 112.63 944.91
  C 112.48 951.63 112.93 958.52 112.07 965.23
  Q 111.94 966.29 113.00 966.26
  L 116.88 966.16
  Q 117.82 966.14 117.71 965.21
  C 117.58 964.06 117.12 962.92 117.13 961.77
  Q 117.22 952.84 116.88 944.43
  Q 116.84 943.49 117.77 943.50"
/>
<path stroke="#808080" vector-effect="non-scaling-stroke" d="
  M 134.39 950.50
  L 134.55 943.76
  A 0.66 0.66 0.0 0 1 135.24 943.11
  L 147.10 943.69
  Q 148.51 943.76 148.94 942.41
  L 149.34 941.19
  Q 149.89 939.47 148.09 939.46
  L 131.05 939.32
  A 0.98 0.98 0.0 0 0 130.06 940.30
  L 130.03 965.83
  Q 130.02 966.48 130.68 966.47
  Q 139.43 966.23 147.51 966.18
  Q 149.12 966.17 150.16 965.09
  Q 150.69 964.54 150.27 963.91
  Q 149.24 962.33 147.16 962.25
  Q 140.85 962.02 135.26 962.19
  Q 134.25 962.22 134.27 961.21
  L 134.39 955.50
  Q 134.41 954.66 135.25 954.67
  L 146.88 954.84
  Q 148.13 954.86 148.08 953.62
  L 148.01 951.82
  Q 147.96 950.68 146.82 950.72
  L 135.00 951.11
  Q 134.37 951.13 134.39 950.50"
/>
<path stroke="#808080" vector-effect="non-scaling-stroke" d="
  M 167.54 959.22
  Q 167.18 960.04 166.83 959.22
  Q 162.95 950.05 160.51 941.07
  Q 160.32 940.40 159.70 940.07
  Q 157.44 938.87 154.25 939.38
  A 1.20 1.19 86.8 0 0 153.24 940.52
  C 152.97 948.61 153.40 956.66 152.87 964.70
  Q 152.78 966.05 154.13 966.13
  L 156.78 966.29
  Q 158.17 966.37 157.97 964.99
  C 157.72 963.37 157.35 961.71 157.32 960.08
  Q 157.21 954.68 157.00 948.45
  A 0.51 0.51 0.0 0 1 157.76 947.99
  Q 157.90 948.07 157.97 948.22
  Q 161.83 956.49 164.31 964.38
  C 165.10 966.91 168.80 967.72 169.70 964.81
  Q 172.35 956.18 176.34 947.86
  Q 176.62 947.27 176.78 947.90
  Q 177.01 948.77 177.00 949.65
  Q 176.88 957.53 176.24 965.36
  A 0.81 0.81 0.0 0 0 177.04 966.24
  L 180.26 966.28
  Q 181.05 966.29 181.05 965.50
  L 180.97 940.39
  A 1.08 1.07 -86.3 0 0 180.05 939.33
  Q 176.73 938.82 174.32 940.23
  Q 173.82 940.52 173.68 941.08
  Q 171.33 950.59 167.54 959.22"
/>
<path stroke="#808080" vector-effect="non-scaling-stroke" d="
  M 192.50 955.95
  C 195.77 956.11 198.92 956.01 202.16 955.64
  C 204.81 955.34 206.91 953.29 207.53 950.75
  Q 210.05 940.31 199.70 939.60
  Q 193.46 939.18 187.43 939.55
  A 0.77 0.76 88.1 0 0 186.71 940.33
  C 186.85 948.57 187.38 956.74 186.58 965.06
  Q 186.43 966.59 187.96 966.49
  L 190.75 966.32
  A 1.26 1.26 0.0 0 0 191.93 965.01
  L 191.62 956.81
  Q 191.59 955.91 192.50 955.95"
/>
<path stroke="#808080" vector-effect="non-scaling-stroke" d="
  M 154.94 391.20
  A 0.74 0.74 0.0 0 0 155.68 391.94
  L 186.39 392.00
  A 0.74 0.74 0.0 0 0 187.13 391.26
  L 187.09 125.34
  A 0.74 0.74 0.0 0 0 186.35 124.60
  L 155.71 124.53
  A 0.74 0.74 0.0 0 0 154.97 125.27
  L 154.94 391.20"
/>
<path stroke="#808080" vector-effect="non-scaling-stroke" d="
  M 256.26 401.32
  C 253.72 396.55 249.55 396.04 244.04 396.04
  Q 168.10 396.05 91.75 396.03
  C 85.72 396.03 80.62 400.62 80.64 406.81
  Q 80.71 435.15 80.71 458.85
  Q 80.71 459.50 81.37 459.50
  L 257.44 459.50
  A 0.51 0.51 0.0 0 0 257.95 458.99
  Q 257.83 433.91 257.96 409.72
  C 257.97 406.80 257.63 403.90 256.26 401.32"
/>
<path stroke="#808080" vector-effect="non-scaling-stroke" d="
  M 257.96 464.53
  A 0.73 0.73 0.0 0 0 257.23 463.80
  L 81.45 463.80
  A 0.73 0.73 0.0 0 0 80.72 464.53
  L 80.72 489.19
  A 0.73 0.73 0.0 0 0 81.45 489.92
  L 257.23 489.92
  A 0.73 0.73 0.0 0 0 257.96 489.19
  L 257.96 464.53"
/>
<path stroke="#808080" vector-effect="non-scaling-stroke" d="
  M 80.82 494.69
  L 80.82 499.53
  A 0.74 0.74 0.0 0 0 81.56 500.27
  L 254.34 500.27
  A 3.76 2.00 -0.0 0 0 258.10 498.27
  L 258.10 495.95
  A 3.76 2.00 0.0 0 0 254.34 493.95
  L 81.56 493.95
  A 0.74 0.74 0.0 0 0 80.82 494.69"
/>
<path stroke="#808080" vector-effect="non-scaling-stroke" d="
  M 257.95 504.90
  A 0.32 0.32 0.0 0 0 257.63 504.58
  L 81.05 504.58
  A 0.32 0.32 0.0 0 0 80.73 504.90
  L 80.73 530.42
  A 0.32 0.32 0.0 0 0 81.05 530.74
  L 257.63 530.74
  A 0.32 0.32 0.0 0 0 257.95 530.42
  L 257.95 504.90"
/>
<path stroke="#808080" vector-effect="non-scaling-stroke" d="
  M 251.28 597.60
  C 255.34 596.07 257.80 591.90 257.83 587.59
  Q 258.01 562.74 257.89 536.86
  Q 257.89 536.29 257.73 535.74
  Q 257.45 534.77 256.45 534.77
  Q 159.02 535.04 83.54 534.67
  Q 82.48 534.66 81.36 534.62
  Q 80.83 534.61 80.81 535.13
  Q 80.48 544.66 80.60 553.14
  C 80.75 564.18 80.52 574.96 80.61 585.64
  C 80.66 592.00 82.77 597.49 90.16 598.18
  Q 95.65 598.69 100.28 598.68
  Q 158.37 598.63 216.00 598.65
  Q 229.95 598.66 244.06 598.48
  Q 249.11 598.42 251.28 597.60"
/>
<path stroke="#808080" vector-effect="non-scaling-stroke" d="
  M 154.97 866.27
  A 0.34 0.34 0.0 0 0 155.31 866.61
  L 186.75 866.50
  A 0.34 0.34 0.0 0 0 187.09 866.16
  L 187.13 603.29
  A 0.34 0.34 0.0 0 0 186.79 602.95
  L 155.28 602.94
  A 0.34 0.34 0.0 0 0 154.94 603.28
  L 154.97 866.27"
/>
<path stroke="#808080" vector-effect="non-scaling-stroke" d="
  M 24.2200 509.3700
  A 9.23 4.46 90.0 0 0 28.6800 500.1400
  A 9.23 4.46 90.0 0 0 24.2200 490.9100
  A 9.23 4.46 90.0 0 0 19.7600 500.1400
  A 9.23 4.46 90.0 0 0 24.2200 509.3700"
/>
<path stroke="#808080" vector-effect="non-scaling-stroke" d="
  M 223.7720 963.2300
  A 10.32 8.51 90.1 0 0 232.3000 952.9249
  A 10.32 8.51 90.1 0 0 223.8080 942.5900
  A 10.32 8.51 90.1 0 0 215.2800 952.8951
  A 10.32 8.51 90.1 0 0 223.7720 963.2300"
/>
<path stroke="#808080" vector-effect="non-scaling-stroke" d="
  M 191.66 944.74
  L 191.64 950.38
  A 1.79 1.79 0.0 0 0 193.42 952.18
  L 198.83 952.21
  A 4.42 3.72 0.3 0 0 203.27 948.51
  L 203.27 946.73
  A 4.42 3.72 0.3 0 0 198.87 942.99
  L 193.46 942.96
  A 1.79 1.79 0.0 0 0 191.66 944.74"
/>
</g>
<path fill="#ffffff" d="
  M 0.00 0.00
  L 322.00 0.00
  L 322.00 1020.00
  L 0.00 1020.00
  L 0.00 0.00
  Z
  M 288.88 52.32
  A 35.00 35.00 0.0 0 0 253.88 17.32
  L 88.22 17.32
  A 35.00 35.00 0.0 0 0 53.22 52.32
  L 53.22 965.90
  A 35.00 35.00 0.0 0 0 88.22 1000.90
  L 253.88 1000.90
  A 35.00 35.00 0.0 0 0 288.88 965.90
  L 288.88 52.32
  Z
  M 36.5481 162.8882
  A 0.72 0.72 0.0 0 0 35.8269 162.1694
  L 12.2669 162.2106
  A 0.72 0.72 0.0 0 0 11.5482 162.9318
  L 11.5519 165.0318
  A 0.72 0.72 0.0 0 0 12.2731 165.7506
  L 35.8331 165.7094
  A 0.72 0.72 0.0 0 0 36.5518 164.9882
  L 36.5481 162.8882
  Z
  M 32.0542 495.5409
  A 7.25 7.25 0.0 0 0 24.8422 488.2530
  L 23.7623 488.2473
  A 7.25 7.25 0.0 0 0 16.4744 495.4593
  L 16.4258 504.7391
  A 7.25 7.25 0.0 0 0 23.6378 512.0270
  L 24.7177 512.0327
  A 7.25 7.25 0.0 0 0 32.0056 504.8207
  L 32.0542 495.5409
  Z
  M 27.91 827.41
  A 1.32 1.32 0.0 0 1 26.82 826.32
  L 25.82 820.20
  A 1.32 1.32 0.0 0 0 23.21 820.20
  L 22.23 826.33
  A 1.32 1.32 0.0 0 1 21.14 827.42
  L 15.02 828.42
  A 1.32 1.32 0.0 0 0 15.02 831.03
  L 21.15 832.01
  A 1.32 1.32 0.0 0 1 22.24 833.10
  L 23.24 839.22
  A 1.32 1.32 0.0 0 0 25.85 839.22
  L 26.83 833.09
  A 1.32 1.32 0.0 0 1 27.92 832.00
  L 34.04 831.00
  A 1.32 1.32 0.0 0 0 34.04 828.39
  L 27.91 827.41
  Z"
/>
<path fill="#000000" d="
  M 288.88 965.90
  A 35.00 35.00 0.0 0 1 253.88 1000.90
  L 88.22 1000.90
  A 35.00 35.00 0.0 0 1 53.22 965.90
  L 53.22 52.32
  A 35.00 35.00 0.0 0 1 88.22 17.32
  L 253.88 17.32
  A 35.00 35.00 0.0 0 1 288.88 52.32
  L 288.88 965.90
  Z
  M 284.81 52.24
  A 30.75 30.75 0.0 0 0 254.06 21.49
  L 88.04 21.49
  A 30.75 30.75 0.0 0 0 57.29 52.24
  L 57.29 965.92
  A 30.75 30.75 0.0 0 0 88.04 996.67
  L 254.06 996.67
  A 30.75 30.75 0.0 0 0 284.81 965.92
  L 284.81 52.24
  Z"
/>
<path fill="#ffffff" d="
  M 284.81 965.92
  A 30.75 30.75 0.0 0 1 254.06 996.67
  L 88.04 996.67
  A 30.75 30.75 0.0 0 1 57.29 965.92
  L 57.29 52.24
  A 30.75 30.75 0.0 0 1 88.04 21.49
  L 254.06 21.49
  A 30.75 30.75 0.0 0 1 284.81 52.24
  L 284.81 965.92
  Z
  M 75.21 554.77
  Q 76.26 554.75 76.26 555.80
  Q 76.31 570.23 76.27 583.50
  C 76.23 597.17 81.74 602.43 95.27 602.63
  Q 109.99 602.84 149.58 602.88
  Q 151.26 602.88 151.21 604.56
  L 151.20 604.85
  Q 151.14 606.84 149.15 606.84
  L 70.99 606.80
  Q 70.27 606.80 70.26 607.52
  L 70.24 609.78
  A 1.05 1.04 0.8 0 0 71.28 610.84
  L 149.29 611.05
  Q 150.79 611.06 150.79 612.55
  L 150.79 661.24
  A 0.77 0.76 -0.0 0 1 150.02 662.00
  Q 112.57 662.02 74.73 661.98
  C 73.59 661.98 72.46 661.65 71.28 661.69
  Q 70.49 661.73 70.46 662.52
  L 70.37 665.48
  A 0.93 0.92 87.8 0 0 71.39 666.43
  Q 74.48 666.11 77.62 666.10
  Q 111.50 665.93 149.42 666.10
  A 1.36 1.35 0.2 0 1 150.77 667.45
  L 150.80 716.18
  A 1.02 1.02 0.0 0 1 149.78 717.21
  L 71.29 717.37
  Q 70.20 717.37 70.20 718.45
  L 70.19 720.46
  A 1.03 1.03 0.0 0 0 71.21 721.49
  L 149.49 721.65
  A 1.34 1.33 90.0 0 1 150.82 722.99
  L 150.78 772.27
  A 0.80 0.80 0.0 0 1 149.98 773.07
  L 71.04 773.08
  Q 70.40 773.08 70.40 773.71
  L 70.39 776.75
  Q 70.39 777.36 71.00 777.36
  L 149.42 777.29
  Q 150.80 777.29 150.80 778.67
  L 150.78 827.82
  A 0.61 0.61 0.0 0 1 150.17 828.43
  Q 115.69 828.50 76.63 828.43
  Q 74.29 828.42 71.73 828.04
  Q 70.73 827.89 70.60 828.91
  L 70.26 831.66
  Q 70.14 832.68 71.17 832.68
  L 149.52 832.72
  Q 150.82 832.72 150.82 834.02
  L 150.75 869.88
  Q 150.75 870.63 151.50 870.63
  L 190.76 870.77
  Q 191.30 870.77 191.30 870.24
  L 191.26 833.70
  Q 191.26 832.66 192.30 832.66
  L 271.33 832.73
  Q 272.40 832.73 272.32 831.66
  L 272.16 829.35
  Q 272.09 828.42 271.16 828.42
  L 192.50 828.49
  A 1.24 1.23 -90.0 0 1 191.27 827.25
  L 191.26 778.65
  A 1.35 1.34 90.0 0 1 192.60 777.30
  L 271.21 777.32
  A 1.03 1.03 0.0 0 0 272.24 776.29
  L 272.22 774.00
  A 0.97 0.96 -0.3 0 0 271.25 773.05
  L 192.57 773.11
  A 1.28 1.28 0.0 0 1 191.29 771.83
  L 191.26 722.53
  A 0.75 0.75 0.0 0 1 191.98 721.78
  Q 197.01 721.56 202.26 721.57
  Q 236.63 721.61 271.04 721.47
  A 1.42 1.41 0.4 0 0 272.45 720.09
  L 272.48 718.80
  Q 272.52 717.34 271.05 717.34
  L 192.38 717.23
  A 1.11 1.10 89.7 0 1 191.28 716.13
  L 191.27 667.28
  A 1.26 1.26 0.0 0 1 192.53 666.02
  L 271.54 666.06
  Q 272.20 666.06 272.22 665.39
  L 272.29 662.51
  Q 272.31 661.96 271.76 661.96
  L 192.58 662.02
  Q 191.28 662.02 191.28 660.72
  L 191.25 611.75
  A 0.75 0.75 0.0 0 1 192.00 611.00
  L 271.32 610.99
  A 0.85 0.85 0.0 0 0 272.16 610.24
  L 272.43 607.95
  Q 272.57 606.75 271.36 606.75
  L 193.20 606.85
  A 2.21 2.21 0.0 0 1 190.98 604.70
  L 190.97 604.23
  A 1.36 1.35 89.2 0 1 192.31 602.84
  Q 213.65 602.70 243.16 602.87
  C 250.67 602.91 257.38 600.84 260.71 593.64
  Q 262.18 590.47 261.97 579.57
  Q 261.76 567.89 261.99 556.07
  A 1.10 1.09 -89.7 0 1 263.07 554.99
  L 270.68 554.96
  Q 272.56 554.95 272.50 553.07
  L 272.49 552.58
  Q 272.43 550.74 270.58 550.75
  L 263.01 550.81
  A 1.16 1.15 -89.5 0 1 261.85 549.62
  L 263.00 500.49
  A 1.08 1.07 2.8 0 1 264.16 499.44
  L 270.45 499.93
  Q 272.21 500.07 272.25 498.30
  L 272.28 496.65
  Q 272.31 494.98 270.65 495.11
  L 264.05 495.60
  Q 263.46 495.65 263.37 495.07
  Q 262.67 490.62 262.61 485.76
  C 262.50 476.86 262.61 468.58 262.19 459.45
  Q 261.82 451.60 261.82 443.16
  A 1.24 1.24 0.0 0 1 263.03 441.92
  L 271.02 441.78
  Q 272.62 441.75 272.50 440.16
  Q 272.48 439.86 272.47 439.55
  Q 272.40 437.59 270.43 437.62
  L 263.28 437.76
  Q 261.88 437.79 261.86 436.39
  Q 261.76 425.07 262.00 412.33
  C 262.16 403.75 261.10 396.83 252.83 393.20
  Q 249.51 391.74 243.23 391.83
  C 226.07 392.07 208.81 392.28 191.69 391.73
  Q 190.99 391.70 191.04 391.01
  L 191.33 387.14
  Q 191.37 386.58 191.93 386.57
  Q 232.44 386.08 271.19 386.59
  Q 272.31 386.60 272.29 385.49
  L 272.26 383.24
  Q 272.25 382.22 271.24 382.22
  L 192.52 382.27
  Q 191.27 382.27 191.27 381.02
  L 191.26 332.50
  A 1.25 1.24 -90.0 0 1 192.50 331.25
  L 270.93 331.21
  Q 272.07 331.21 272.21 330.08
  L 272.42 328.31
  A 1.12 1.12 0.0 0 0 271.31 327.06
  L 192.16 327.03
  A 0.88 0.88 0.0 0 1 191.28 326.15
  L 191.26 276.44
  A 1.18 1.17 -0.0 0 1 192.44 275.27
  Q 228.14 275.25 265.85 275.26
  Q 268.53 275.26 271.06 275.44
  Q 272.36 275.53 272.30 274.24
  L 272.20 272.21
  A 1.23 1.23 0.0 0 0 270.97 271.03
  L 192.26 271.01
  A 1.00 0.99 0.3 0 1 191.26 270.01
  L 191.27 221.29
  A 1.23 1.23 0.0 0 1 192.50 220.06
  Q 229.86 220.05 267.01 220.03
  C 268.33 220.03 269.62 220.37 270.92 220.44
  A 1.25 1.25 0.0 0 0 272.25 219.22
  L 272.29 217.26
  Q 272.32 215.85 270.91 215.86
  Q 232.54 216.15 196.12 215.91
  Q 194.68 215.90 193.07 216.09
  Q 191.28 216.30 191.28 214.51
  L 191.26 165.50
  A 0.74 0.74 0.0 0 1 192.00 164.76
  L 271.13 164.74
  A 1.33 1.33 0.0 0 0 272.46 163.36
  L 272.40 161.78
  Q 272.35 160.48 271.06 160.48
  L 192.69 160.42
  Q 191.21 160.42 191.22 158.94
  L 191.35 120.46
  A 0.25 0.24 90.0 0 0 191.11 120.21
  L 151.37 120.27
  Q 150.76 120.27 150.76 120.88
  L 150.81 159.04
  Q 150.81 160.39 149.46 160.39
  L 71.49 160.51
  A 1.27 1.27 0.0 0 0 70.23 161.76
  L 70.20 163.30
  Q 70.18 164.67 71.55 164.67
  L 149.68 164.80
  A 1.13 1.13 0.0 0 1 150.81 165.93
  L 150.77 215.37
  A 0.64 0.63 0.0 0 1 150.13 216.00
  L 71.03 215.95
  Q 70.50 215.94 70.48 216.47
  L 70.37 219.49
  Q 70.35 220.08 70.94 220.08
  L 149.58 220.03
  A 1.19 1.18 -0.0 0 1 150.77 221.21
  L 150.82 269.98
  A 1.05 1.05 0.0 0 1 149.77 271.03
  L 71.23 271.02
  Q 70.36 271.02 70.32 271.89
  L 70.20 274.48
  Q 70.16 275.29 70.98 275.29
  L 149.35 275.25
  A 1.44 1.44 0.0 0 1 150.79 276.69
  L 150.79 325.50
  Q 150.80 327.04 149.25 327.04
  L 70.98 327.04
  Q 70.25 327.04 70.25 327.77
  L 70.24 330.50
  Q 70.24 331.25 71.00 331.25
  L 149.26 331.23
  A 1.55 1.54 -90.0 0 1 150.80 332.78
  L 150.77 381.57
  A 0.73 0.73 0.0 0 1 150.03 382.30
  Q 111.54 382.19 74.82 382.28
  C 73.64 382.28 72.50 381.90 71.30 381.96
  Q 70.53 382.01 70.49 382.77
  L 70.30 385.82
  Q 70.25 386.65 71.08 386.64
  Q 106.90 386.32 143.99 386.37
  Q 147.04 386.37 149.83 386.71
  A 1.27 1.26 1.1 0 1 150.93 387.85
  L 151.22 391.18
  Q 151.26 391.67 150.77 391.72
  Q 148.62 391.92 146.26 391.93
  Q 119.35 392.06 93.06 391.86
  Q 88.80 391.83 85.27 393.37
  C 79.42 395.91 76.25 402.00 76.27 408.00
  Q 76.32 422.05 76.25 436.92
  A 0.89 0.89 0.0 0 1 75.30 437.81
  L 71.51 437.58
  Q 70.27 437.50 70.24 438.74
  L 70.20 440.76
  Q 70.18 441.84 71.26 441.82
  L 75.54 441.78
  A 0.76 0.75 89.6 0 1 76.30 442.54
  L 76.21 494.42
  Q 76.21 495.83 74.83 495.58
  L 71.67 495.00
  Q 70.38 494.77 70.42 496.08
  L 70.51 498.95
  A 1.10 1.09 -3.7 0 0 71.71 500.00
  Q 73.04 499.87 74.34 499.46
  Q 76.20 498.87 76.21 500.82
  L 76.30 550.16
  Q 76.30 551.12 75.34 551.07
  L 71.62 550.87
  Q 70.29 550.79 70.28 552.13
  L 70.26 553.92
  Q 70.25 554.85 71.18 554.84
  L 75.21 554.77
  Z
  M 224.0071 967.1186
  A 14.12 13.03 89.2 0 0 236.8387 952.8181
  A 14.12 13.03 89.2 0 0 223.6129 938.8814
  A 14.12 13.03 89.2 0 0 210.7813 953.1819
  A 14.12 13.03 89.2 0 0 224.0071 967.1186
  Z
  M 117.77 943.50
  L 124.00 943.56
  Q 125.83 943.58 125.97 941.75
  L 126.03 941.02
  Q 126.15 939.40 124.52 939.40
  L 104.25 939.48
  Q 103.63 939.48 103.65 940.18
  L 103.73 943.05
  A 0.56 0.56 0.0 0 0 104.30 943.59
  L 111.19 943.47
  A 1.41 1.41 0.0 0 1 112.63 944.91
  C 112.48 951.63 112.93 958.52 112.07 965.23
  Q 111.94 966.29 113.00 966.26
  L 116.88 966.16
  Q 117.82 966.14 117.71 965.21
  C 117.58 964.06 117.12 962.92 117.13 961.77
  Q 117.22 952.84 116.88 944.43
  Q 116.84 943.49 117.77 943.50
  Z
  M 134.39 950.50
  L 134.55 943.76
  A 0.66 0.66 0.0 0 1 135.24 943.11
  L 147.10 943.69
  Q 148.51 943.76 148.94 942.41
  L 149.34 941.19
  Q 149.89 939.47 148.09 939.46
  L 131.05 939.32
  A 0.98 0.98 0.0 0 0 130.06 940.30
  L 130.03 965.83
  Q 130.02 966.48 130.68 966.47
  Q 139.43 966.23 147.51 966.18
  Q 149.12 966.17 150.16 965.09
  Q 150.69 964.54 150.27 963.91
  Q 149.24 962.33 147.16 962.25
  Q 140.85 962.02 135.26 962.19
  Q 134.25 962.22 134.27 961.21
  L 134.39 955.50
  Q 134.41 954.66 135.25 954.67
  L 146.88 954.84
  Q 148.13 954.86 148.08 953.62
  L 148.01 951.82
  Q 147.96 950.68 146.82 950.72
  L 135.00 951.11
  Q 134.37 951.13 134.39 950.50
  Z
  M 167.54 959.22
  Q 167.18 960.04 166.83 959.22
  Q 162.95 950.05 160.51 941.07
  Q 160.32 940.40 159.70 940.07
  Q 157.44 938.87 154.25 939.38
  A 1.20 1.19 86.8 0 0 153.24 940.52
  C 152.97 948.61 153.40 956.66 152.87 964.70
  Q 152.78 966.05 154.13 966.13
  L 156.78 966.29
  Q 158.17 966.37 157.97 964.99
  C 157.72 963.37 157.35 961.71 157.32 960.08
  Q 157.21 954.68 157.00 948.45
  A 0.51 0.51 0.0 0 1 157.76 947.99
  Q 157.90 948.07 157.97 948.22
  Q 161.83 956.49 164.31 964.38
  C 165.10 966.91 168.80 967.72 169.70 964.81
  Q 172.35 956.18 176.34 947.86
  Q 176.62 947.27 176.78 947.90
  Q 177.01 948.77 177.00 949.65
  Q 176.88 957.53 176.24 965.36
  A 0.81 0.81 0.0 0 0 177.04 966.24
  L 180.26 966.28
  Q 181.05 966.29 181.05 965.50
  L 180.97 940.39
  A 1.08 1.07 -86.3 0 0 180.05 939.33
  Q 176.73 938.82 174.32 940.23
  Q 173.82 940.52 173.68 941.08
  Q 171.33 950.59 167.54 959.22
  Z
  M 192.50 955.95
  C 195.77 956.11 198.92 956.01 202.16 955.64
  C 204.81 955.34 206.91 953.29 207.53 950.75
  Q 210.05 940.31 199.70 939.60
  Q 193.46 939.18 187.43 939.55
  A 0.77 0.76 88.1 0 0 186.71 940.33
  C 186.85 948.57 187.38 956.74 186.58 965.06
  Q 186.43 966.59 187.96 966.49
  L 190.75 966.32
  A 1.26 1.26 0.0 0 0 191.93 965.01
  L 191.62 956.81
  Q 191.59 955.91 192.50 955.95
  Z"
/>
<path fill="#000000" d="
  M 75.21 554.77
  L 71.18 554.84
  Q 70.25 554.85 70.26 553.92
  L 70.28 552.13
  Q 70.29 550.79 71.62 550.87
  L 75.34 551.07
  Q 76.30 551.12 76.30 550.16
  L 76.21 500.82
  Q 76.20 498.87 74.34 499.46
  Q 73.04 499.87 71.71 500.00
  A 1.10 1.09 -3.7 0 1 70.51 498.95
  L 70.42 496.08
  Q 70.38 494.77 71.67 495.00
  L 74.83 495.58
  Q 76.21 495.83 76.21 494.42
  L 76.30 442.54
  A 0.76 0.75 89.6 0 0 75.54 441.78
  L 71.26 441.82
  Q 70.18 441.84 70.20 440.76
  L 70.24 438.74
  Q 70.27 437.50 71.51 437.58
  L 75.30 437.81
  A 0.89 0.89 0.0 0 0 76.25 436.92
  Q 76.32 422.05 76.27 408.00
  C 76.25 402.00 79.42 395.91 85.27 393.37
  Q 88.80 391.83 93.06 391.86
  Q 119.35 392.06 146.26 391.93
  Q 148.62 391.92 150.77 391.72
  Q 151.26 391.67 151.22 391.18
  L 150.93 387.85
  A 1.27 1.26 1.1 0 0 149.83 386.71
  Q 147.04 386.37 143.99 386.37
  Q 106.90 386.32 71.08 386.64
  Q 70.25 386.65 70.30 385.82
  L 70.49 382.77
  Q 70.53 382.01 71.30 381.96
  C 72.50 381.90 73.64 382.28 74.82 382.28
  Q 111.54 382.19 150.03 382.30
  A 0.73 0.73 0.0 0 0 150.77 381.57
  L 150.80 332.78
  A 1.55 1.54 90.0 0 0 149.26 331.23
  L 71.00 331.25
  Q 70.24 331.25 70.24 330.50
  L 70.25 327.77
  Q 70.25 327.04 70.98 327.04
  L 149.25 327.04
  Q 150.80 327.04 150.79 325.50
  L 150.79 276.69
  A 1.44 1.44 0.0 0 0 149.35 275.25
  L 70.98 275.29
  Q 70.16 275.29 70.20 274.48
  L 70.32 271.89
  Q 70.36 271.02 71.23 271.02
  L 149.77 271.03
  A 1.05 1.05 0.0 0 0 150.82 269.98
  L 150.77 221.21
  A 1.19 1.18 -0.0 0 0 149.58 220.03
  L 70.94 220.08
  Q 70.35 220.08 70.37 219.49
  L 70.48 216.47
  Q 70.50 215.94 71.03 215.95
  L 150.13 216.00
  A 0.64 0.63 0.0 0 0 150.77 215.37
  L 150.81 165.93
  A 1.13 1.13 0.0 0 0 149.68 164.80
  L 71.55 164.67
  Q 70.18 164.67 70.20 163.30
  L 70.23 161.76
  A 1.27 1.27 0.0 0 1 71.49 160.51
  L 149.46 160.39
  Q 150.81 160.39 150.81 159.04
  L 150.76 120.88
  Q 150.76 120.27 151.37 120.27
  L 191.11 120.21
  A 0.25 0.24 -90.0 0 1 191.35 120.46
  L 191.22 158.94
  Q 191.21 160.42 192.69 160.42
  L 271.06 160.48
  Q 272.35 160.48 272.40 161.78
  L 272.46 163.36
  A 1.33 1.33 0.0 0 1 271.13 164.74
  L 192.00 164.76
  A 0.74 0.74 0.0 0 0 191.26 165.50
  L 191.28 214.51
  Q 191.28 216.30 193.07 216.09
  Q 194.68 215.90 196.12 215.91
  Q 232.54 216.15 270.91 215.86
  Q 272.32 215.85 272.29 217.26
  L 272.25 219.22
  A 1.25 1.25 0.0 0 1 270.92 220.44
  C 269.62 220.37 268.33 220.03 267.01 220.03
  Q 229.86 220.05 192.50 220.06
  A 1.23 1.23 0.0 0 0 191.27 221.29
  L 191.26 270.01
  A 1.00 0.99 0.3 0 0 192.26 271.01
  L 270.97 271.03
  A 1.23 1.23 0.0 0 1 272.20 272.21
  L 272.30 274.24
  Q 272.36 275.53 271.06 275.44
  Q 268.53 275.26 265.85 275.26
  Q 228.14 275.25 192.44 275.27
  A 1.18 1.17 0.0 0 0 191.26 276.44
  L 191.28 326.15
  A 0.88 0.88 0.0 0 0 192.16 327.03
  L 271.31 327.06
  A 1.12 1.12 0.0 0 1 272.42 328.31
  L 272.21 330.08
  Q 272.07 331.21 270.93 331.21
  L 192.50 331.25
  A 1.25 1.24 90.0 0 0 191.26 332.50
  L 191.27 381.02
  Q 191.27 382.27 192.52 382.27
  L 271.24 382.22
  Q 272.25 382.22 272.26 383.24
  L 272.29 385.49
  Q 272.31 386.60 271.19 386.59
  Q 232.44 386.08 191.93 386.57
  Q 191.37 386.58 191.33 387.14
  L 191.04 391.01
  Q 190.99 391.70 191.69 391.73
  C 208.81 392.28 226.07 392.07 243.23 391.83
  Q 249.51 391.74 252.83 393.20
  C 261.10 396.83 262.16 403.75 262.00 412.33
  Q 261.76 425.07 261.86 436.39
  Q 261.88 437.79 263.28 437.76
  L 270.43 437.62
  Q 272.40 437.59 272.47 439.55
  Q 272.48 439.86 272.50 440.16
  Q 272.62 441.75 271.02 441.78
  L 263.03 441.92
  A 1.24 1.24 0.0 0 0 261.82 443.16
  Q 261.82 451.60 262.19 459.45
  C 262.61 468.58 262.50 476.86 262.61 485.76
  Q 262.67 490.62 263.37 495.07
  Q 263.46 495.65 264.05 495.60
  L 270.65 495.11
  Q 272.31 494.98 272.28 496.65
  L 272.25 498.30
  Q 272.21 500.07 270.45 499.93
  L 264.16 499.44
  A 1.08 1.07 2.8 0 0 263.00 500.49
  L 261.85 549.62
  A 1.16 1.15 -89.5 0 0 263.01 550.81
  L 270.58 550.75
  Q 272.43 550.74 272.49 552.58
  L 272.50 553.07
  Q 272.56 554.95 270.68 554.96
  L 263.07 554.99
  A 1.10 1.09 -89.7 0 0 261.99 556.07
  Q 261.76 567.89 261.97 579.57
  Q 262.18 590.47 260.71 593.64
  C 257.38 600.84 250.67 602.91 243.16 602.87
  Q 213.65 602.70 192.31 602.84
  A 1.36 1.35 89.2 0 0 190.97 604.23
  L 190.98 604.70
  A 2.21 2.21 0.0 0 0 193.20 606.85
  L 271.36 606.75
  Q 272.57 606.75 272.43 607.95
  L 272.16 610.24
  A 0.85 0.85 0.0 0 1 271.32 610.99
  L 192.00 611.00
  A 0.75 0.75 0.0 0 0 191.25 611.75
  L 191.28 660.72
  Q 191.28 662.02 192.58 662.02
  L 271.76 661.96
  Q 272.31 661.96 272.29 662.51
  L 272.22 665.39
  Q 272.20 666.06 271.54 666.06
  L 192.53 666.02
  A 1.26 1.26 0.0 0 0 191.27 667.28
  L 191.28 716.13
  A 1.11 1.10 89.7 0 0 192.38 717.23
  L 271.05 717.34
  Q 272.52 717.34 272.48 718.80
  L 272.45 720.09
  A 1.42 1.41 0.4 0 1 271.04 721.47
  Q 236.63 721.61 202.26 721.57
  Q 197.01 721.56 191.98 721.78
  A 0.75 0.75 0.0 0 0 191.26 722.53
  L 191.29 771.83
  A 1.28 1.28 0.0 0 0 192.57 773.11
  L 271.25 773.05
  A 0.97 0.96 -0.3 0 1 272.22 774.00
  L 272.24 776.29
  A 1.03 1.03 0.0 0 1 271.21 777.32
  L 192.60 777.30
  A 1.35 1.34 -90.0 0 0 191.26 778.65
  L 191.27 827.25
  A 1.24 1.23 90.0 0 0 192.50 828.49
  L 271.16 828.42
  Q 272.09 828.42 272.16 829.35
  L 272.32 831.66
  Q 272.40 832.73 271.33 832.73
  L 192.30 832.66
  Q 191.26 832.66 191.26 833.70
  L 191.30 870.24
  Q 191.30 870.77 190.76 870.77
  L 151.50 870.63
  Q 150.75 870.63 150.75 869.88
  L 150.82 834.02
  Q 150.82 832.72 149.52 832.72
  L 71.17 832.68
  Q 70.14 832.68 70.26 831.66
  L 70.60 828.91
  Q 70.73 827.89 71.73 828.04
  Q 74.29 828.42 76.63 828.43
  Q 115.69 828.50 150.17 828.43
  A 0.61 0.61 0.0 0 0 150.78 827.82
  L 150.80 778.67
  Q 150.80 777.29 149.42 777.29
  L 71.00 777.36
  Q 70.39 777.36 70.39 776.75
  L 70.40 773.71
  Q 70.40 773.08 71.04 773.08
  L 149.98 773.07
  A 0.80 0.80 0.0 0 0 150.78 772.27
  L 150.82 722.99
  A 1.34 1.33 90.0 0 0 149.49 721.65
  L 71.21 721.49
  A 1.03 1.03 0.0 0 1 70.19 720.46
  L 70.20 718.45
  Q 70.20 717.37 71.29 717.37
  L 149.78 717.21
  A 1.02 1.02 0.0 0 0 150.80 716.18
  L 150.77 667.45
  A 1.36 1.35 0.2 0 0 149.42 666.10
  Q 111.50 665.93 77.62 666.10
  Q 74.48 666.11 71.39 666.43
  A 0.93 0.92 87.8 0 1 70.37 665.48
  L 70.46 662.52
  Q 70.49 661.73 71.28 661.69
  C 72.46 661.65 73.59 661.98 74.73 661.98
  Q 112.57 662.02 150.02 662.00
  A 0.77 0.76 0.0 0 0 150.79 661.24
  L 150.79 612.55
  Q 150.79 611.06 149.29 611.05
  L 71.28 610.84
  A 1.05 1.04 0.8 0 1 70.24 609.78
  L 70.26 607.52
  Q 70.27 606.80 70.99 606.80
  L 149.15 606.84
  Q 151.14 606.84 151.20 604.85
  L 151.21 604.56
  Q 151.26 602.88 149.58 602.88
  Q 109.99 602.84 95.27 602.63
  C 81.74 602.43 76.23 597.17 76.27 583.50
  Q 76.31 570.23 76.26 555.80
  Q 76.26 554.75 75.21 554.77
  Z
  M 154.94 391.20
  A 0.74 0.74 0.0 0 0 155.68 391.94
  L 186.39 392.00
  A 0.74 0.74 0.0 0 0 187.13 391.26
  L 187.09 125.34
  A 0.74 0.74 0.0 0 0 186.35 124.60
  L 155.71 124.53
  A 0.74 0.74 0.0 0 0 154.97 125.27
  L 154.94 391.20
  Z
  M 256.26 401.32
  C 253.72 396.55 249.55 396.04 244.04 396.04
  Q 168.10 396.05 91.75 396.03
  C 85.72 396.03 80.62 400.62 80.64 406.81
  Q 80.71 435.15 80.71 458.85
  Q 80.71 459.50 81.37 459.50
  L 257.44 459.50
  A 0.51 0.51 0.0 0 0 257.95 458.99
  Q 257.83 433.91 257.96 409.72
  C 257.97 406.80 257.63 403.90 256.26 401.32
  Z
  M 257.96 464.53
  A 0.73 0.73 0.0 0 0 257.23 463.80
  L 81.45 463.80
  A 0.73 0.73 0.0 0 0 80.72 464.53
  L 80.72 489.19
  A 0.73 0.73 0.0 0 0 81.45 489.92
  L 257.23 489.92
  A 0.73 0.73 0.0 0 0 257.96 489.19
  L 257.96 464.53
  Z
  M 80.82 494.69
  L 80.82 499.53
  A 0.74 0.74 0.0 0 0 81.56 500.27
  L 254.34 500.27
  A 3.76 2.00 -0.0 0 0 258.10 498.27
  L 258.10 495.95
  A 3.76 2.00 0.0 0 0 254.34 493.95
  L 81.56 493.95
  A 0.74 0.74 0.0 0 0 80.82 494.69
  Z
  M 257.95 504.90
  A 0.32 0.32 0.0 0 0 257.63 504.58
  L 81.05 504.58
  A 0.32 0.32 0.0 0 0 80.73 504.90
  L 80.73 530.42
  A 0.32 0.32 0.0 0 0 81.05 530.74
  L 257.63 530.74
  A 0.32 0.32 0.0 0 0 257.95 530.42
  L 257.95 504.90
  Z
  M 251.28 597.60
  C 255.34 596.07 257.80 591.90 257.83 587.59
  Q 258.01 562.74 257.89 536.86
  Q 257.89 536.29 257.73 535.74
  Q 257.45 534.77 256.45 534.77
  Q 159.02 535.04 83.54 534.67
  Q 82.48 534.66 81.36 534.62
  Q 80.83 534.61 80.81 535.13
  Q 80.48 544.66 80.60 553.14
  C 80.75 564.18 80.52 574.96 80.61 585.64
  C 80.66 592.00 82.77 597.49 90.16 598.18
  Q 95.65 598.69 100.28 598.68
  Q 158.37 598.63 216.00 598.65
  Q 229.95 598.66 244.06 598.48
  Q 249.11 598.42 251.28 597.60
  Z
  M 154.97 866.27
  A 0.34 0.34 0.0 0 0 155.31 866.61
  L 186.75 866.50
  A 0.34 0.34 0.0 0 0 187.09 866.16
  L 187.13 603.29
  A 0.34 0.34 0.0 0 0 186.79 602.95
  L 155.28 602.94
  A 0.34 0.34 0.0 0 0 154.94 603.28
  L 154.97 866.27
  Z"
/>
<path fill="#ffffff" d="
  M 154.94 391.20
  L 154.97 125.27
  A 0.74 0.74 0.0 0 1 155.71 124.53
  L 186.35 124.60
  A 0.74 0.74 0.0 0 1 187.09 125.34
  L 187.13 391.26
  A 0.74 0.74 0.0 0 1 186.39 392.00
  L 155.68 391.94
  A 0.74 0.74 0.0 0 1 154.94 391.20
  Z"
/>
<rect fill="#000000" x="-12.50" y="-1.77" transform="translate(24.05,163.96) rotate(-0.1)" width="25.00" height="3.54" rx="0.72"/>
<path fill="#ffffff" d="
  M 256.26 401.32
  C 257.63 403.90 257.97 406.80 257.96 409.72
  Q 257.83 433.91 257.95 458.99
  A 0.51 0.51 0.0 0 1 257.44 459.50
  L 81.37 459.50
  Q 80.71 459.50 80.71 458.85
  Q 80.71 435.15 80.64 406.81
  C 80.62 400.62 85.72 396.03 91.75 396.03
  Q 168.10 396.05 244.04 396.04
  C 249.55 396.04 253.72 396.55 256.26 401.32
  Z"
/>
<rect fill="#ffffff" x="80.72" y="463.80" width="177.24" height="26.12" rx="0.73"/>
<path fill="#000000" d="
  M 32.0056 504.8207
  A 7.25 7.25 0.0 0 1 24.7177 512.0327
  L 23.6378 512.0270
  A 7.25 7.25 0.0 0 1 16.4258 504.7391
  L 16.4744 495.4593
  A 7.25 7.25 0.0 0 1 23.7623 488.2473
  L 24.8422 488.2530
  A 7.25 7.25 0.0 0 1 32.0542 495.5409
  L 32.0056 504.8207
  Z
  M 24.2200 509.3700
  A 9.23 4.46 90.0 0 0 28.6800 500.1400
  A 9.23 4.46 90.0 0 0 24.2200 490.9100
  A 9.23 4.46 90.0 0 0 19.7600 500.1400
  A 9.23 4.46 90.0 0 0 24.2200 509.3700
  Z"
/>
<ellipse fill="#ffffff" cx="0.00" cy="0.00" transform="translate(24.22,500.14) rotate(90.0)" rx="9.23" ry="4.46"/>
<path fill="#ffffff" d="
  M 80.82 494.69
  A 0.74 0.74 0.0 0 1 81.56 493.95
  L 254.34 493.95
  A 3.76 2.00 -0.0 0 1 258.10 495.95
  L 258.10 498.27
  A 3.76 2.00 -0.0 0 1 254.34 500.27
  L 81.56 500.27
  A 0.74 0.74 0.0 0 1 80.82 499.53
  L 80.82 494.69
  Z"
/>
<rect fill="#ffffff" x="80.73" y="504.58" width="177.22" height="26.16" rx="0.32"/>
<path fill="#ffffff" d="
  M 257.83 587.59
  C 257.80 591.90 255.34 596.07 251.28 597.60
  Q 249.11 598.42 244.06 598.48
  Q 229.95 598.66 216.00 598.65
  Q 158.37 598.63 100.28 598.68
  Q 95.65 598.69 90.16 598.18
  C 82.77 597.49 80.66 592.00 80.61 585.64
  C 80.52 574.96 80.75 564.18 80.60 553.14
  Q 80.48 544.66 80.81 535.13
  Q 80.83 534.61 81.36 534.62
  Q 82.48 534.66 83.54 534.67
  Q 159.02 535.04 256.45 534.77
  Q 257.45 534.77 257.73 535.74
  Q 257.89 536.29 257.89 536.86
  Q 258.01 562.74 257.83 587.59
  Z"
/>
<path fill="#ffffff" d="
  M 154.97 866.27
  L 154.94 603.28
  A 0.34 0.34 0.0 0 1 155.28 602.94
  L 186.79 602.95
  A 0.34 0.34 0.0 0 1 187.13 603.29
  L 187.09 866.16
  A 0.34 0.34 0.0 0 1 186.75 866.50
  L 155.31 866.61
  A 0.34 0.34 0.0 0 1 154.97 866.27
  Z"
/>
<path fill="#000000" d="
  M 27.91 827.41
  L 34.04 828.39
  A 1.32 1.32 0.0 0 1 34.04 831.00
  L 27.92 832.00
  A 1.32 1.32 0.0 0 0 26.83 833.09
  L 25.85 839.22
  A 1.32 1.32 0.0 0 1 23.24 839.22
  L 22.24 833.10
  A 1.32 1.32 0.0 0 0 21.15 832.01
  L 15.02 831.03
  A 1.32 1.32 0.0 0 1 15.02 828.42
  L 21.14 827.42
  A 1.32 1.32 0.0 0 0 22.23 826.33
  L 23.21 820.20
  A 1.32 1.32 0.0 0 1 25.82 820.20
  L 26.82 826.32
  A 1.32 1.32 0.0 0 0 27.91 827.41
  Z"
/>
<path fill="#000000" d="
  M 224.0071 967.1186
  A 14.12 13.03 89.2 0 1 210.7813 953.1819
  A 14.12 13.03 89.2 0 1 223.6129 938.8814
  A 14.12 13.03 89.2 0 1 236.8387 952.8181
  A 14.12 13.03 89.2 0 1 224.0071 967.1186
  Z
  M 223.7720 963.2300
  A 10.32 8.51 90.1 0 0 232.3000 952.9249
  A 10.32 8.51 90.1 0 0 223.8080 942.5900
  A 10.32 8.51 90.1 0 0 215.2800 952.8951
  A 10.32 8.51 90.1 0 0 223.7720 963.2300
  Z"
/>
<path fill="#000000" d="
  M 116.88 944.43
  Q 117.22 952.84 117.13 961.77
  C 117.12 962.92 117.58 964.06 117.71 965.21
  Q 117.82 966.14 116.88 966.16
  L 113.00 966.26
  Q 111.94 966.29 112.07 965.23
  C 112.93 958.52 112.48 951.63 112.63 944.91
  A 1.41 1.41 0.0 0 0 111.19 943.47
  L 104.30 943.59
  A 0.56 0.56 0.0 0 1 103.73 943.05
  L 103.65 940.18
  Q 103.63 939.48 104.25 939.48
  L 124.52 939.40
  Q 126.15 939.40 126.03 941.02
  L 125.97 941.75
  Q 125.83 943.58 124.00 943.56
  L 117.77 943.50
  Q 116.84 943.49 116.88 944.43
  Z"
/>
<path fill="#000000" d="
  M 135.00 951.11
  L 146.82 950.72
  Q 147.96 950.68 148.01 951.82
  L 148.08 953.62
  Q 148.13 954.86 146.88 954.84
  L 135.25 954.67
  Q 134.41 954.66 134.39 955.50
  L 134.27 961.21
  Q 134.25 962.22 135.26 962.19
  Q 140.85 962.02 147.16 962.25
  Q 149.24 962.33 150.27 963.91
  Q 150.69 964.54 150.16 965.09
  Q 149.12 966.17 147.51 966.18
  Q 139.43 966.23 130.68 966.47
  Q 130.02 966.48 130.03 965.83
  L 130.06 940.30
  A 0.98 0.98 0.0 0 1 131.05 939.32
  L 148.09 939.46
  Q 149.89 939.47 149.34 941.19
  L 148.94 942.41
  Q 148.51 943.76 147.10 943.69
  L 135.24 943.11
  A 0.66 0.66 0.0 0 0 134.55 943.76
  L 134.39 950.50
  Q 134.37 951.13 135.00 951.11
  Z"
/>
<path fill="#000000" d="
  M 167.54 959.22
  Q 171.33 950.59 173.68 941.08
  Q 173.82 940.52 174.32 940.23
  Q 176.73 938.82 180.05 939.33
  A 1.08 1.07 -86.3 0 1 180.97 940.39
  L 181.05 965.50
  Q 181.05 966.29 180.26 966.28
  L 177.04 966.24
  A 0.81 0.81 0.0 0 1 176.24 965.36
  Q 176.88 957.53 177.00 949.65
  Q 177.01 948.77 176.78 947.90
  Q 176.62 947.27 176.34 947.86
  Q 172.35 956.18 169.70 964.81
  C 168.80 967.72 165.10 966.91 164.31 964.38
  Q 161.83 956.49 157.97 948.22
  Q 157.90 948.07 157.76 947.99
  A 0.51 0.51 0.0 0 0 157.00 948.45
  Q 157.21 954.68 157.32 960.08
  C 157.35 961.71 157.72 963.37 157.97 964.99
  Q 158.17 966.37 156.78 966.29
  L 154.13 966.13
  Q 152.78 966.05 152.87 964.70
  C 153.40 956.66 152.97 948.61 153.24 940.52
  A 1.20 1.19 86.8 0 1 154.25 939.38
  Q 157.44 938.87 159.70 940.07
  Q 160.32 940.40 160.51 941.07
  Q 162.95 950.05 166.83 959.22
  Q 167.18 960.04 167.54 959.22
  Z"
/>
<path fill="#000000" d="
  M 191.62 956.81
  L 191.93 965.01
  A 1.26 1.26 0.0 0 1 190.75 966.32
  L 187.96 966.49
  Q 186.43 966.59 186.58 965.06
  C 187.38 956.74 186.85 948.57 186.71 940.33
  A 0.77 0.76 88.1 0 1 187.43 939.55
  Q 193.46 939.18 199.70 939.60
  Q 210.05 940.31 207.53 950.75
  C 206.91 953.29 204.81 955.34 202.16 955.64
  C 198.92 956.01 195.77 956.11 192.50 955.95
  Q 191.59 955.91 191.62 956.81
  Z
  M 191.66 944.74
  L 191.64 950.38
  A 1.79 1.79 0.0 0 0 193.42 952.18
  L 198.83 952.21
  A 4.42 3.72 0.3 0 0 203.27 948.51
  L 203.27 946.73
  A 4.42 3.72 0.3 0 0 198.87 942.99
  L 193.46 942.96
  A 1.79 1.79 0.0 0 0 191.66 944.74
  Z"
/>
<ellipse fill="#ffffff" cx="0.00" cy="0.00" transform="translate(223.79,952.91) rotate(90.1)" rx="10.32" ry="8.51"/>
<path fill="#ffffff" d="
  M 191.66 944.74
  A 1.79 1.79 0.0 0 1 193.46 942.96
  L 198.87 942.99
  A 4.42 3.72 0.3 0 1 203.27 946.73
  L 203.27 948.51
  A 4.42 3.72 0.3 0 1 198.83 952.21
  L 193.42 952.18
  A 1.79 1.79 0.0 0 1 191.64 950.38
  L 191.66 944.74
  Z"
/>
</svg>
