<?xml version="1.0" encoding="UTF-8" standalone="no"?>
<!DOCTYPE svg PUBLIC "-//W3C//DTD SVG 1.1//EN" "http://www.w3.org/Graphics/SVG/1.1/DTD/svg11.dtd">
<svg xmlns="http://www.w3.org/2000/svg" version="1.1" viewBox="0.00 0.00 1160.00 1138.00">
<g stroke-width="2.00" fill="none" stroke-linecap="butt">
<path stroke="#8d8c8c" vector-effect="non-scaling-stroke" d="
  M 585.63 171.95
  Q 463.29 174.26 362.19 241.15
  C 289.07 289.53 231.84 362.81 202.63 445.37
  C 157.51 572.90 176.98 714.26 255.73 824.01
  Q 305.95 894.01 380.49 938.60
  Q 380.78 938.77 380.61 939.06
  L 317.46 1048.42
  Q 317.37 1048.57 317.53 1048.67
  L 325.17 1053.09
  Q 325.35 1053.20 325.46 1053.02
  L 388.63 943.68
  A 0.28 0.27 28.9 0 1 389.00 943.58
  Q 490.80 1000.12 607.17 995.97
  C 672.92 993.62 736.97 975.02 794.15 942.73
  A 0.38 0.37 -29.0 0 1 794.66 942.87
  L 856.02 1049.19
  Q 856.11 1049.36 856.28 1049.26
  L 863.92 1044.81
  Q 864.08 1044.71 863.99 1044.55
  L 802.73 938.49
  Q 802.39 937.90 802.97 937.55
  C 811.61 932.29 820.31 926.77 828.48 920.94
  Q 924.51 852.37 970.90 743.99
  C 988.11 703.78 998.46 659.81 1001.67 617.54
  Q 1011.83 483.76 942.28 368.53
  Q 937.19 360.08 931.27 351.58
  Q 864.13 254.99 758.47 207.51
  Q 683.17 173.68 596.00 171.97
  Q 595.49 171.96 595.49 171.45
  L 595.49 35.01
  Q 595.49 34.84 595.33 34.84
  L 586.45 34.81
  Q 586.25 34.81 586.25 35.01
  L 586.25 171.31
  Q 586.25 171.93 585.63 171.95"
/>
<path stroke="#8d8c8c" vector-effect="non-scaling-stroke" d="
  M 366.26 143.28
  A 29.91 29.91 0.0 0 0 336.35 113.37
  A 29.91 29.91 0.0 0 0 306.44 143.28
  A 29.91 29.91 0.0 0 0 336.35 173.19
  A 29.91 29.91 0.0 0 0 366.26 143.28"
/>
<path stroke="#8d8c8c" vector-effect="non-scaling-stroke" d="
  M 875.28 143.28
  A 29.91 29.91 0.0 0 0 845.37 113.37
  A 29.91 29.91 0.0 0 0 815.46 143.28
  A 29.91 29.91 0.0 0 0 845.37 173.19
  A 29.91 29.91 0.0 0 0 875.28 143.28"
/>
<path stroke="#8d8c8c" vector-effect="non-scaling-stroke" d="
  M 179.94 329.61
  A 29.91 29.91 0.0 0 0 150.03 299.70
  A 29.91 29.91 0.0 0 0 120.12 329.61
  A 29.91 29.91 0.0 0 0 150.03 359.52
  A 29.91 29.91 0.0 0 0 179.94 329.61"
/>
<path stroke="#8d8c8c" vector-effect="non-scaling-stroke" d="
  M 1061.61 329.61
  A 29.91 29.91 0.0 0 0 1031.70 299.70
  A 29.91 29.91 0.0 0 0 1001.79 329.61
  A 29.91 29.91 0.0 0 0 1031.70 359.52
  A 29.91 29.91 0.0 0 0 1061.61 329.61"
/>
<path stroke="#8d8c8c" vector-effect="non-scaling-stroke" d="
  M 111.72 584.12
  A 29.88 29.88 0.0 0 0 81.84 554.24
  A 29.88 29.88 0.0 0 0 51.96 584.12
  A 29.88 29.88 0.0 0 0 81.84 614.00
  A 29.88 29.88 0.0 0 0 111.72 584.12"
/>
<path stroke="#8d8c8c" vector-effect="non-scaling-stroke" d="
  M 1129.78 584.12
  A 29.88 29.88 0.0 0 0 1099.90 554.24
  A 29.88 29.88 0.0 0 0 1070.02 584.12
  A 29.88 29.88 0.0 0 0 1099.90 614.00
  A 29.88 29.88 0.0 0 0 1129.78 584.12"
/>
<path stroke="#8d8c8c" vector-effect="non-scaling-stroke" d="
  M 179.93 838.65
  A 29.91 29.91 0.0 0 0 150.02 808.74
  A 29.91 29.91 0.0 0 0 120.11 838.65
  A 29.91 29.91 0.0 0 0 150.02 868.56
  A 29.91 29.91 0.0 0 0 179.93 838.65"
/>
<path stroke="#8d8c8c" vector-effect="non-scaling-stroke" d="
  M 1061.62 838.65
  A 29.91 29.91 0.0 0 0 1031.71 808.74
  A 29.91 29.91 0.0 0 0 1001.80 838.65
  A 29.91 29.91 0.0 0 0 1031.71 868.56
  A 29.91 29.91 0.0 0 0 1061.62 838.65"
/>
<path stroke="#8d8c8c" vector-effect="non-scaling-stroke" d="
  M 993.83 584.13
  A 402.97 402.97 0.0 0 0 590.86 181.16
  A 402.97 402.97 0.0 0 0 187.89 584.13
  A 402.97 402.97 0.0 0 0 590.86 987.10
  A 402.97 402.97 0.0 0 0 993.83 584.13"
/>
<path stroke="#8d8c8c" vector-effect="non-scaling-stroke" d="
  M 560.85 848.86
  C 572.82 825.85 604.99 824.53 619.17 846.07
  C 621.10 849.00 622.64 852.49 625.04 855.02
  Q 634.66 865.15 648.84 862.28
  Q 663.17 859.39 679.22 854.29
  Q 694.04 849.58 696.91 834.79
  C 697.73 830.54 696.81 825.87 697.69 821.47
  Q 701.64 801.59 720.20 794.89
  C 730.28 791.24 741.41 793.17 750.73 799.24
  C 759.47 804.94 771.21 804.00 779.09 797.20
  C 785.97 791.26 792.26 784.91 799.26 777.54
  Q 804.41 772.11 806.16 769.13
  Q 812.20 758.86 807.88 747.66
  C 806.65 744.45 804.33 741.77 803.02 738.66
  Q 794.95 719.52 806.92 703.67
  C 813.25 695.28 824.29 689.85 835.26 690.51
  C 843.54 691.00 851.52 687.79 856.46 681.39
  Q 860.09 676.69 862.84 666.69
  Q 865.11 658.44 867.47 649.24
  Q 869.55 641.15 869.62 636.57
  Q 869.80 625.25 860.99 617.70
  C 858.10 615.22 854.22 613.63 851.07 611.23
  C 831.97 596.71 832.96 567.84 853.77 555.17
  C 856.78 553.34 859.96 551.79 862.42 549.30
  Q 871.76 539.81 869.10 526.65
  Q 867.06 516.62 863.74 504.59
  Q 860.98 494.59 858.85 490.60
  C 854.03 481.53 845.24 477.22 835.08 477.74
  Q 831.76 477.90 828.35 477.31
  C 805.85 473.42 793.41 450.20 803.18 429.27
  C 804.81 425.78 807.27 422.81 808.48 419.05
  C 810.92 411.51 809.63 403.00 804.64 396.76
  C 799.50 390.34 793.35 384.50 787.37 378.63
  Q 779.12 370.53 774.56 368.08
  Q 765.77 363.36 755.50 366.69
  C 751.66 367.93 748.69 370.67 745.03 372.16
  Q 725.75 379.99 709.85 367.68
  Q 699.98 360.04 697.58 346.06
  C 696.85 341.76 697.59 337.25 696.76 332.88
  Q 695.10 324.19 688.22 318.64
  C 683.74 315.03 677.73 313.42 672.22 311.83
  Q 664.32 309.55 655.86 307.47
  Q 644.82 304.74 639.67 305.50
  C 631.36 306.73 625.78 311.12 621.67 318.14
  C 615.31 329.02 607.02 336.01 594.53 337.36
  C 581.65 338.75 569.68 332.93 562.53 322.16
  C 560.53 319.14 559.04 315.73 556.52 313.09
  Q 546.87 303.00 532.61 306.02
  Q 521.39 308.40 509.31 311.82
  Q 500.92 314.20 497.25 316.18
  C 488.02 321.15 484.29 329.61 484.46 340.00
  C 484.65 352.02 479.63 362.39 469.80 369.25
  C 458.73 376.99 443.43 377.16 431.97 369.55
  C 425.33 365.14 417.29 364.03 409.93 366.78
  Q 404.55 368.78 398.67 374.48
  Q 390.13 382.75 381.69 391.47
  Q 375.61 397.76 373.52 403.36
  C 370.68 411.01 372.13 418.62 376.40 425.42
  C 389.99 447.08 377.16 474.04 352.10 477.50
  C 349.66 477.84 347.23 477.76 344.73 477.75
  C 332.01 477.72 323.86 485.33 320.22 497.25
  Q 316.40 509.74 313.28 523.36
  Q 311.44 531.41 312.40 536.39
  C 313.90 544.21 318.77 550.32 325.80 553.93
  Q 330.29 556.23 333.49 559.38
  Q 348.25 573.89 342.95 593.63
  Q 340.24 603.70 330.96 611.00
  C 327.36 613.83 322.86 615.49 319.58 618.71
  Q 310.12 628.05 312.57 641.07
  Q 314.51 651.36 318.77 666.37
  Q 320.90 673.86 322.96 677.80
  Q 328.27 687.92 340.01 690.11
  C 344.36 690.93 348.80 690.14 353.22 690.94
  Q 369.90 693.94 377.72 708.12
  C 384.10 719.68 383.00 732.51 375.83 743.91
  Q 369.40 754.14 373.77 765.77
  Q 375.46 770.28 381.81 776.94
  Q 394.14 789.86 402.29 796.83
  Q 412.95 805.93 426.46 801.47
  C 430.08 800.28 433.12 797.65 436.69 796.13
  C 459.75 786.29 484.45 802.09 484.43 827.24
  C 484.42 836.18 486.03 843.30 493.24 849.43
  Q 497.39 852.96 507.54 855.90
  Q 522.37 860.18 533.19 862.33
  C 545.17 864.70 555.29 859.54 560.85 848.86"
/>
<path stroke="#8d8c8c" vector-effect="non-scaling-stroke" d="
  M 586.67 584.08
  A 0.42 0.41 0.0 0 1 586.25 583.67
  L 586.25 356.49
  Q 586.25 355.90 585.68 355.83
  Q 558.05 352.21 544.36 327.68
  C 543.37 325.89 540.79 324.86 539.09 323.90
  Q 538.59 323.61 538.02 323.73
  Q 521.90 327.01 507.12 331.85
  A 1.51 1.50 -80.8 0 0 506.36 332.40
  L 503.24 336.75
  Q 502.89 337.23 502.92 337.82
  C 504.56 381.44 459.31 408.17 421.92 385.03
  Q 417.74 382.45 413.80 385.82
  Q 405.28 393.10 393.15 406.37
  Q 391.69 407.97 390.97 410.05
  Q 390.15 412.38 391.40 414.44
  Q 398.16 425.56 399.68 435.80
  C 402.35 453.75 396.14 471.26 382.66 483.07
  Q 366.99 496.79 344.71 496.20
  Q 343.87 496.18 343.21 496.70
  C 341.75 497.86 339.02 499.10 338.40 501.06
  Q 333.39 516.68 330.49 531.29
  Q 330.37 531.89 330.68 532.43
  C 331.83 534.46 332.75 536.80 334.94 537.99
  C 352.00 547.23 362.67 564.54 362.74 583.91
  C 362.81 603.38 352.08 621.12 334.92 630.26
  C 332.72 631.43 331.84 633.80 330.67 635.83
  Q 330.35 636.38 330.48 637.00
  Q 333.77 653.19 338.58 667.83
  Q 338.75 668.33 339.17 668.64
  L 343.44 671.76
  Q 343.88 672.08 344.43 672.07
  C 387.96 670.61 414.71 714.98 392.02 752.71
  Q 391.06 754.30 390.77 755.88
  Q 390.28 758.57 392.45 761.06
  Q 400.70 770.55 413.40 782.12
  Q 414.99 783.58 416.98 784.10
  Q 419.52 784.77 421.68 783.43
  C 438.33 773.05 458.22 771.40 475.28 780.82
  C 494.07 791.19 503.45 809.30 502.97 830.56
  A 1.59 1.59 0.0 0 0 503.32 831.61
  C 504.57 833.21 505.87 836.01 507.90 836.65
  Q 523.61 841.66 538.12 844.50
  A 1.31 1.30 35.5 0 0 539.04 844.35
  C 540.85 843.32 543.38 842.33 544.45 840.42
  Q 554.12 823.19 570.54 816.43
  Q 591.54 807.79 612.24 816.88
  Q 627.61 823.63 636.87 839.67
  C 638.33 842.20 640.23 843.08 642.59 844.32
  Q 643.15 844.61 643.76 844.49
  Q 659.41 841.35 674.55 836.44
  Q 675.08 836.26 675.41 835.81
  L 678.54 831.51
  A 1.29 1.29 0.0 0 0 678.78 830.73
  Q 678.67 825.50 679.23 820.97
  C 683.89 782.77 725.25 762.59 758.47 782.48
  Q 760.43 783.65 762.45 784.14
  Q 765.09 784.77 767.43 782.80
  Q 776.34 775.30 788.51 761.95
  Q 790.03 760.29 790.78 758.10
  Q 791.60 755.73 790.10 753.35
  C 776.50 731.82 778.93 705.13 797.04 687.13
  Q 812.69 671.58 837.18 672.02
  Q 837.85 672.03 838.39 671.64
  L 842.40 668.73
  Q 842.89 668.38 843.08 667.80
  Q 847.94 653.08 851.24 637.10
  A 1.80 1.78 -54.2 0 0 851.04 635.84
  C 849.94 633.95 848.97 631.48 846.95 630.38
  C 809.94 610.38 809.62 557.83 846.86 537.95
  C 848.97 536.82 850.07 534.24 851.10 532.28
  Q 851.36 531.78 851.25 531.23
  Q 848.06 515.55 843.12 500.46
  Q 842.95 499.96 842.53 499.65
  L 838.45 496.60
  Q 837.97 496.25 837.38 496.26
  Q 808.11 496.75 791.60 474.87
  C 780.31 459.92 778.52 440.52 785.70 423.19
  Q 787.20 419.57 789.29 416.41
  Q 790.63 414.37 790.97 412.32
  Q 791.40 409.64 789.46 407.41
  Q 780.39 397.06 768.70 386.48
  Q 767.03 384.97 764.93 384.22
  Q 762.62 383.40 760.56 384.66
  Q 749.53 391.38 739.13 392.94
  C 720.90 395.67 703.14 389.17 691.30 375.21
  Q 678.17 359.73 678.78 337.83
  Q 678.79 337.26 678.46 336.79
  L 675.44 332.55
  A 1.99 1.93 -8.2 0 0 674.46 331.84
  Q 659.53 326.91 643.79 323.74
  Q 643.14 323.61 642.57 323.94
  C 640.73 325.00 638.46 325.82 637.38 327.74
  Q 623.59 352.26 596.06 355.83
  Q 595.49 355.90 595.49 356.48
  L 595.49 583.68
  Q 595.49 584.10 595.07 584.10
  L 586.67 584.08"
/>
</g>
<path fill="#ffffff" d="
  M 0.00 0.00
  L 1160.00 0.00
  L 1160.00 1138.00
  L 0.00 1138.00
  L 0.00 0.00
  Z
  M 585.63 171.95
  Q 463.29 174.26 362.19 241.15
  C 289.07 289.53 231.84 362.81 202.63 445.37
  C 157.51 572.90 176.98 714.26 255.73 824.01
  Q 305.95 894.01 380.49 938.60
  Q 380.78 938.77 380.61 939.06
  L 317.46 1048.42
  Q 317.37 1048.57 317.53 1048.67
  L 325.17 1053.09
  Q 325.35 1053.20 325.46 1053.02
  L 388.63 943.68
  A 0.28 0.27 28.9 0 1 389.00 943.58
  Q 490.80 1000.12 607.17 995.97
  C 672.92 993.62 736.97 975.02 794.15 942.73
  A 0.38 0.37 -29.0 0 1 794.66 942.87
  L 856.02 1049.19
  Q 856.11 1049.36 856.28 1049.26
  L 863.92 1044.81
  Q 864.08 1044.71 863.99 1044.55
  L 802.73 938.49
  Q 802.39 937.90 802.97 937.55
  C 811.61 932.29 820.31 926.77 828.48 920.94
  Q 924.51 852.37 970.90 743.99
  C 988.11 703.78 998.46 659.81 1001.67 617.54
  Q 1011.83 483.76 942.28 368.53
  Q 937.19 360.08 931.27 351.58
  Q 864.13 254.99 758.47 207.51
  Q 683.17 173.68 596.00 171.97
  Q 595.49 171.96 595.49 171.45
  L 595.49 35.01
  Q 595.49 34.84 595.33 34.84
  L 586.45 34.81
  Q 586.25 34.81 586.25 35.01
  L 586.25 171.31
  Q 586.25 171.93 585.63 171.95
  Z
  M 366.26 143.28
  A 29.91 29.91 0.0 0 0 336.35 113.37
  A 29.91 29.91 0.0 0 0 306.44 143.28
  A 29.91 29.91 0.0 0 0 336.35 173.19
  A 29.91 29.91 0.0 0 0 366.26 143.28
  Z
  M 875.28 143.28
  A 29.91 29.91 0.0 0 0 845.37 113.37
  A 29.91 29.91 0.0 0 0 815.46 143.28
  A 29.91 29.91 0.0 0 0 845.37 173.19
  A 29.91 29.91 0.0 0 0 875.28 143.28
  Z
  M 179.94 329.61
  A 29.91 29.91 0.0 0 0 150.03 299.70
  A 29.91 29.91 0.0 0 0 120.12 329.61
  A 29.91 29.91 0.0 0 0 150.03 359.52
  A 29.91 29.91 0.0 0 0 179.94 329.61
  Z
  M 1061.61 329.61
  A 29.91 29.91 0.0 0 0 1031.70 299.70
  A 29.91 29.91 0.0 0 0 1001.79 329.61
  A 29.91 29.91 0.0 0 0 1031.70 359.52
  A 29.91 29.91 0.0 0 0 1061.61 329.61
  Z
  M 111.72 584.12
  A 29.88 29.88 0.0 0 0 81.84 554.24
  A 29.88 29.88 0.0 0 0 51.96 584.12
  A 29.88 29.88 0.0 0 0 81.84 614.00
  A 29.88 29.88 0.0 0 0 111.72 584.12
  Z
  M 1129.78 584.12
  A 29.88 29.88 0.0 0 0 1099.90 554.24
  A 29.88 29.88 0.0 0 0 1070.02 584.12
  A 29.88 29.88 0.0 0 0 1099.90 614.00
  A 29.88 29.88 0.0 0 0 1129.78 584.12
  Z
  M 179.93 838.65
  A 29.91 29.91 0.0 0 0 150.02 808.74
  A 29.91 29.91 0.0 0 0 120.11 838.65
  A 29.91 29.91 0.0 0 0 150.02 868.56
  A 29.91 29.91 0.0 0 0 179.93 838.65
  Z
  M 1061.62 838.65
  A 29.91 29.91 0.0 0 0 1031.71 808.74
  A 29.91 29.91 0.0 0 0 1001.80 838.65
  A 29.91 29.91 0.0 0 0 1031.71 868.56
  A 29.91 29.91 0.0 0 0 1061.62 838.65
  Z"
/>
<path fill="#1a1919" d="
  M 586.25 171.31
  L 586.25 35.01
  Q 586.25 34.81 586.45 34.81
  L 595.33 34.84
  Q 595.49 34.84 595.49 35.01
  L 595.49 171.45
  Q 595.49 171.96 596.00 171.97
  Q 683.17 173.68 758.47 207.51
  Q 864.13 254.99 931.27 351.58
  Q 937.19 360.08 942.28 368.53
  Q 1011.83 483.76 1001.67 617.54
  C 998.46 659.81 988.11 703.78 970.90 743.99
  Q 924.51 852.37 828.48 920.94
  C 820.31 926.77 811.61 932.29 802.97 937.55
  Q 802.39 937.90 802.73 938.49
  L 863.99 1044.55
  Q 864.08 1044.71 863.92 1044.81
  L 856.28 1049.26
  Q 856.11 1049.36 856.02 1049.19
  L 794.66 942.87
  A 0.38 0.37 -29.0 0 0 794.15 942.73
  C 736.97 975.02 672.92 993.62 607.17 995.97
  Q 490.80 1000.12 389.00 943.58
  A 0.28 0.27 28.9 0 0 388.63 943.68
  L 325.46 1053.02
  Q 325.35 1053.20 325.17 1053.09
  L 317.53 1048.67
  Q 317.37 1048.57 317.46 1048.42
  L 380.61 939.06
  Q 380.78 938.77 380.49 938.60
  Q 305.95 894.01 255.73 824.01
  C 176.98 714.26 157.51 572.90 202.63 445.37
  C 231.84 362.81 289.07 289.53 362.19 241.15
  Q 463.29 174.26 585.63 171.95
  Q 586.25 171.93 586.25 171.31
  Z
  M 993.83 584.13
  A 402.97 402.97 0.0 0 0 590.86 181.16
  A 402.97 402.97 0.0 0 0 187.89 584.13
  A 402.97 402.97 0.0 0 0 590.86 987.10
  A 402.97 402.97 0.0 0 0 993.83 584.13
  Z"
/>
<circle fill="#1a1919" cx="336.35" cy="143.28" r="29.91"/>
<circle fill="#1a1919" cx="845.37" cy="143.28" r="29.91"/>
<path fill="#ffffff" d="
  M 993.83 584.13
  A 402.97 402.97 0.0 0 1 590.86 987.10
  A 402.97 402.97 0.0 0 1 187.89 584.13
  A 402.97 402.97 0.0 0 1 590.86 181.16
  A 402.97 402.97 0.0 0 1 993.83 584.13
  Z
  M 560.85 848.86
  C 572.82 825.85 604.99 824.53 619.17 846.07
  C 621.10 849.00 622.64 852.49 625.04 855.02
  Q 634.66 865.15 648.84 862.28
  Q 663.17 859.39 679.22 854.29
  Q 694.04 849.58 696.91 834.79
  C 697.73 830.54 696.81 825.87 697.69 821.47
  Q 701.64 801.59 720.20 794.89
  C 730.28 791.24 741.41 793.17 750.73 799.24
  C 759.47 804.94 771.21 804.00 779.09 797.20
  C 785.97 791.26 792.26 784.91 799.26 777.54
  Q 804.41 772.11 806.16 769.13
  Q 812.20 758.86 807.88 747.66
  C 806.65 744.45 804.33 741.77 803.02 738.66
  Q 794.95 719.52 806.92 703.67
  C 813.25 695.28 824.29 689.85 835.26 690.51
  C 843.54 691.00 851.52 687.79 856.46 681.39
  Q 860.09 676.69 862.84 666.69
  Q 865.11 658.44 867.47 649.24
  Q 869.55 641.15 869.62 636.57
  Q 869.80 625.25 860.99 617.70
  C 858.10 615.22 854.22 613.63 851.07 611.23
  C 831.97 596.71 832.96 567.84 853.77 555.17
  C 856.78 553.34 859.96 551.79 862.42 549.30
  Q 871.76 539.81 869.10 526.65
  Q 867.06 516.62 863.74 504.59
  Q 860.98 494.59 858.85 490.60
  C 854.03 481.53 845.24 477.22 835.08 477.74
  Q 831.76 477.90 828.35 477.31
  C 805.85 473.42 793.41 450.20 803.18 429.27
  C 804.81 425.78 807.27 422.81 808.48 419.05
  C 810.92 411.51 809.63 403.00 804.64 396.76
  C 799.50 390.34 793.35 384.50 787.37 378.63
  Q 779.12 370.53 774.56 368.08
  Q 765.77 363.36 755.50 366.69
  C 751.66 367.93 748.69 370.67 745.03 372.16
  Q 725.75 379.99 709.85 367.68
  Q 699.98 360.04 697.58 346.06
  C 696.85 341.76 697.59 337.25 696.76 332.88
  Q 695.10 324.19 688.22 318.64
  C 683.74 315.03 677.73 313.42 672.22 311.83
  Q 664.32 309.55 655.86 307.47
  Q 644.82 304.74 639.67 305.50
  C 631.36 306.73 625.78 311.12 621.67 318.14
  C 615.31 329.02 607.02 336.01 594.53 337.36
  C 581.65 338.75 569.68 332.93 562.53 322.16
  C 560.53 319.14 559.04 315.73 556.52 313.09
  Q 546.87 303.00 532.61 306.02
  Q 521.39 308.40 509.31 311.82
  Q 500.92 314.20 497.25 316.18
  C 488.02 321.15 484.29 329.61 484.46 340.00
  C 484.65 352.02 479.63 362.39 469.80 369.25
  C 458.73 376.99 443.43 377.16 431.97 369.55
  C 425.33 365.14 417.29 364.03 409.93 366.78
  Q 404.55 368.78 398.67 374.48
  Q 390.13 382.75 381.69 391.47
  Q 375.61 397.76 373.52 403.36
  C 370.68 411.01 372.13 418.62 376.40 425.42
  C 389.99 447.08 377.16 474.04 352.10 477.50
  C 349.66 477.84 347.23 477.76 344.73 477.75
  C 332.01 477.72 323.86 485.33 320.22 497.25
  Q 316.40 509.74 313.28 523.36
  Q 311.44 531.41 312.40 536.39
  C 313.90 544.21 318.77 550.32 325.80 553.93
  Q 330.29 556.23 333.49 559.38
  Q 348.25 573.89 342.95 593.63
  Q 340.24 603.70 330.96 611.00
  C 327.36 613.83 322.86 615.49 319.58 618.71
  Q 310.12 628.05 312.57 641.07
  Q 314.51 651.36 318.77 666.37
  Q 320.90 673.86 322.96 677.80
  Q 328.27 687.92 340.01 690.11
  C 344.36 690.93 348.80 690.14 353.22 690.94
  Q 369.90 693.94 377.72 708.12
  C 384.10 719.68 383.00 732.51 375.83 743.91
  Q 369.40 754.14 373.77 765.77
  Q 375.46 770.28 381.81 776.94
  Q 394.14 789.86 402.29 796.83
  Q 412.95 805.93 426.46 801.47
  C 430.08 800.28 433.12 797.65 436.69 796.13
  C 459.75 786.29 484.45 802.09 484.43 827.24
  C 484.42 836.18 486.03 843.30 493.24 849.43
  Q 497.39 852.96 507.54 855.90
  Q 522.37 860.18 533.19 862.33
  C 545.17 864.70 555.29 859.54 560.85 848.86
  Z"
/>
<circle fill="#1a1919" cx="150.03" cy="329.61" r="29.91"/>
<circle fill="#1a1919" cx="1031.70" cy="329.61" r="29.91"/>
<path fill="#1a1919" d="
  M 619.17 846.07
  C 604.99 824.53 572.82 825.85 560.85 848.86
  C 555.29 859.54 545.17 864.70 533.19 862.33
  Q 522.37 860.18 507.54 855.90
  Q 497.39 852.96 493.24 849.43
  C 486.03 843.30 484.42 836.18 484.43 827.24
  C 484.45 802.09 459.75 786.29 436.69 796.13
  C 433.12 797.65 430.08 800.28 426.46 801.47
  Q 412.95 805.93 402.29 796.83
  Q 394.14 789.86 381.81 776.94
  Q 375.46 770.28 373.77 765.77
  Q 369.40 754.14 375.83 743.91
  C 383.00 732.51 384.10 719.68 377.72 708.12
  Q 369.90 693.94 353.22 690.94
  C 348.80 690.14 344.36 690.93 340.01 690.11
  Q 328.27 687.92 322.96 677.80
  Q 320.90 673.86 318.77 666.37
  Q 314.51 651.36 312.57 641.07
  Q 310.12 628.05 319.58 618.71
  C 322.86 615.49 327.36 613.83 330.96 611.00
  Q 340.24 603.70 342.95 593.63
  Q 348.25 573.89 333.49 559.38
  Q 330.29 556.23 325.80 553.93
  C 318.77 550.32 313.90 544.21 312.40 536.39
  Q 311.44 531.41 313.28 523.36
  Q 316.40 509.74 320.22 497.25
  C 323.86 485.33 332.01 477.72 344.73 477.75
  C 347.23 477.76 349.66 477.84 352.10 477.50
  C 377.16 474.04 389.99 447.08 376.40 425.42
  C 372.13 418.62 370.68 411.01 373.52 403.36
  Q 375.61 397.76 381.69 391.47
  Q 390.13 382.75 398.67 374.48
  Q 404.55 368.78 409.93 366.78
  C 417.29 364.03 425.33 365.14 431.97 369.55
  C 443.43 377.16 458.73 376.99 469.80 369.25
  C 479.63 362.39 484.65 352.02 484.46 340.00
  C 484.29 329.61 488.02 321.15 497.25 316.18
  Q 500.92 314.20 509.31 311.82
  Q 521.39 308.40 532.61 306.02
  Q 546.87 303.00 556.52 313.09
  C 559.04 315.73 560.53 319.14 562.53 322.16
  C 569.68 332.93 581.65 338.75 594.53 337.36
  C 607.02 336.01 615.31 329.02 621.67 318.14
  C 625.78 311.12 631.36 306.73 639.67 305.50
  Q 644.82 304.74 655.86 307.47
  Q 664.32 309.55 672.22 311.83
  C 677.73 313.42 683.74 315.03 688.22 318.64
  Q 695.10 324.19 696.76 332.88
  C 697.59 337.25 696.85 341.76 697.58 346.06
  Q 699.98 360.04 709.85 367.68
  Q 725.75 379.99 745.03 372.16
  C 748.69 370.67 751.66 367.93 755.50 366.69
  Q 765.77 363.36 774.56 368.08
  Q 779.12 370.53 787.37 378.63
  C 793.35 384.50 799.50 390.34 804.64 396.76
  C 809.63 403.00 810.92 411.51 808.48 419.05
  C 807.27 422.81 804.81 425.78 803.18 429.27
  C 793.41 450.20 805.85 473.42 828.35 477.31
  Q 831.76 477.90 835.08 477.74
  C 845.24 477.22 854.03 481.53 858.85 490.60
  Q 860.98 494.59 863.74 504.59
  Q 867.06 516.62 869.10 526.65
  Q 871.76 539.81 862.42 549.30
  C 859.96 551.79 856.78 553.34 853.77 555.17
  C 832.96 567.84 831.97 596.71 851.07 611.23
  C 854.22 613.63 858.10 615.22 860.99 617.70
  Q 869.80 625.25 869.62 636.57
  Q 869.55 641.15 867.47 649.24
  Q 865.11 658.44 862.84 666.69
  Q 860.09 676.69 856.46 681.39
  C 851.52 687.79 843.54 691.00 835.26 690.51
  C 824.29 689.85 813.25 695.28 806.92 703.67
  Q 794.95 719.52 803.02 738.66
  C 804.33 741.77 806.65 744.45 807.88 747.66
  Q 812.20 758.86 806.16 769.13
  Q 804.41 772.11 799.26 777.54
  C 792.26 784.91 785.97 791.26 779.09 797.20
  C 771.21 804.00 759.47 804.94 750.73 799.24
  C 741.41 793.17 730.28 791.24 720.20 794.89
  Q 701.64 801.59 697.69 821.47
  C 696.81 825.87 697.73 830.54 696.91 834.79
  Q 694.04 849.58 679.22 854.29
  Q 663.17 859.39 648.84 862.28
  Q 634.66 865.15 625.04 855.02
  C 622.64 852.49 621.10 849.00 619.17 846.07
  Z
  M 586.67 584.08
  A 0.42 0.41 0.0 0 1 586.25 583.67
  L 586.25 356.49
  Q 586.25 355.90 585.68 355.83
  Q 558.05 352.21 544.36 327.68
  C 543.37 325.89 540.79 324.86 539.09 323.90
  Q 538.59 323.61 538.02 323.73
  Q 521.90 327.01 507.12 331.85
  A 1.51 1.50 -80.8 0 0 506.36 332.40
  L 503.24 336.75
  Q 502.89 337.23 502.92 337.82
  C 504.56 381.44 459.31 408.17 421.92 385.03
  Q 417.74 382.45 413.80 385.82
  Q 405.28 393.10 393.15 406.37
  Q 391.69 407.97 390.97 410.05
  Q 390.15 412.38 391.40 414.44
  Q 398.16 425.56 399.68 435.80
  C 402.35 453.75 396.14 471.26 382.66 483.07
  Q 366.99 496.79 344.71 496.20
  Q 343.87 496.18 343.21 496.70
  C 341.75 497.86 339.02 499.10 338.40 501.06
  Q 333.39 516.68 330.49 531.29
  Q 330.37 531.89 330.68 532.43
  C 331.83 534.46 332.75 536.80 334.94 537.99
  C 352.00 547.23 362.67 564.54 362.74 583.91
  C 362.81 603.38 352.08 621.12 334.92 630.26
  C 332.72 631.43 331.84 633.80 330.67 635.83
  Q 330.35 636.38 330.48 637.00
  Q 333.77 653.19 338.58 667.83
  Q 338.75 668.33 339.17 668.64
  L 343.44 671.76
  Q 343.88 672.08 344.43 672.07
  C 387.96 670.61 414.71 714.98 392.02 752.71
  Q 391.06 754.30 390.77 755.88
  Q 390.28 758.57 392.45 761.06
  Q 400.70 770.55 413.40 782.12
  Q 414.99 783.58 416.98 784.10
  Q 419.52 784.77 421.68 783.43
  C 438.33 773.05 458.22 771.40 475.28 780.82
  C 494.07 791.19 503.45 809.30 502.97 830.56
  A 1.59 1.59 0.0 0 0 503.32 831.61
  C 504.57 833.21 505.87 836.01 507.90 836.65
  Q 523.61 841.66 538.12 844.50
  A 1.31 1.30 35.5 0 0 539.04 844.35
  C 540.85 843.32 543.38 842.33 544.45 840.42
  Q 554.12 823.19 570.54 816.43
  Q 591.54 807.79 612.24 816.88
  Q 627.61 823.63 636.87 839.67
  C 638.33 842.20 640.23 843.08 642.59 844.32
  Q 643.15 844.61 643.76 844.49
  Q 659.41 841.35 674.55 836.44
  Q 675.08 836.26 675.41 835.81
  L 678.54 831.51
  A 1.29 1.29 0.0 0 0 678.78 830.73
  Q 678.67 825.50 679.23 820.97
  C 683.89 782.77 725.25 762.59 758.47 782.48
  Q 760.43 783.65 762.45 784.14
  Q 765.09 784.77 767.43 782.80
  Q 776.34 775.30 788.51 761.95
  Q 790.03 760.29 790.78 758.10
  Q 791.60 755.73 790.10 753.35
  C 776.50 731.82 778.93 705.13 797.04 687.13
  Q 812.69 671.58 837.18 672.02
  Q 837.85 672.03 838.39 671.64
  L 842.40 668.73
  Q 842.89 668.38 843.08 667.80
  Q 847.94 653.08 851.24 637.10
  A 1.80 1.78 -54.2 0 0 851.04 635.84
  C 849.94 633.95 848.97 631.48 846.95 630.38
  C 809.94 610.38 809.62 557.83 846.86 537.95
  C 848.97 536.82 850.07 534.24 851.10 532.28
  Q 851.36 531.78 851.25 531.23
  Q 848.06 515.55 843.12 500.46
  Q 842.95 499.96 842.53 499.65
  L 838.45 496.60
  Q 837.97 496.25 837.38 496.26
  Q 808.11 496.75 791.60 474.87
  C 780.31 459.92 778.52 440.52 785.70 423.19
  Q 787.20 419.57 789.29 416.41
  Q 790.63 414.37 790.97 412.32
  Q 791.40 409.64 789.46 407.41
  Q 780.39 397.06 768.70 386.48
  Q 767.03 384.97 764.93 384.22
  Q 762.62 383.40 760.56 384.66
  Q 749.53 391.38 739.13 392.94
  C 720.90 395.67 703.14 389.17 691.30 375.21
  Q 678.17 359.73 678.78 337.83
  Q 678.79 337.26 678.46 336.79
  L 675.44 332.55
  A 1.99 1.93 -8.2 0 0 674.46 331.84
  Q 659.53 326.91 643.79 323.74
  Q 643.14 323.61 642.57 323.94
  C 640.73 325.00 638.46 325.82 637.38 327.74
  Q 623.59 352.26 596.06 355.83
  Q 595.49 355.90 595.49 356.48
  L 595.49 583.68
  Q 595.49 584.10 595.07 584.10
  L 586.67 584.08
  Z"
/>
<path fill="#ffffff" d="
  M 595.49 583.68
  L 595.49 356.48
  Q 595.49 355.90 596.06 355.83
  Q 623.59 352.26 637.38 327.74
  C 638.46 325.82 640.73 325.00 642.57 323.94
  Q 643.14 323.61 643.79 323.74
  Q 659.53 326.91 674.46 331.84
  A 1.99 1.93 -8.2 0 1 675.44 332.55
  L 678.46 336.79
  Q 678.79 337.26 678.78 337.83
  Q 678.17 359.73 691.30 375.21
  C 703.14 389.17 720.90 395.67 739.13 392.94
  Q 749.53 391.38 760.56 384.66
  Q 762.62 383.40 764.93 384.22
  Q 767.03 384.97 768.70 386.48
  Q 780.39 397.06 789.46 407.41
  Q 791.40 409.64 790.97 412.32
  Q 790.63 414.37 789.29 416.41
  Q 787.20 419.57 785.70 423.19
  C 778.52 440.52 780.31 459.92 791.60 474.87
  Q 808.11 496.75 837.38 496.26
  Q 837.97 496.25 838.45 496.60
  L 842.53 499.65
  Q 842.95 499.96 843.12 500.46
  Q 848.06 515.55 851.25 531.23
  Q 851.36 531.78 851.10 532.28
  C 850.07 534.24 848.97 536.82 846.86 537.95
  C 809.62 557.83 809.94 610.38 846.95 630.38
  C 848.97 631.48 849.94 633.95 851.04 635.84
  A 1.80 1.78 -54.2 0 1 851.24 637.10
  Q 847.94 653.08 843.08 667.80
  Q 842.89 668.38 842.40 668.73
  L 838.39 671.64
  Q 837.85 672.03 837.18 672.02
  Q 812.69 671.58 797.04 687.13
  C 778.93 705.13 776.50 731.82 790.10 753.35
  Q 791.60 755.73 790.78 758.10
  Q 790.03 760.29 788.51 761.95
  Q 776.34 775.30 767.43 782.80
  Q 765.09 784.77 762.45 784.14
  Q 760.43 783.65 758.47 782.48
  C 725.25 762.59 683.89 782.77 679.23 820.97
  Q 678.67 825.50 678.78 830.73
  A 1.29 1.29 0.0 0 1 678.54 831.51
  L 675.41 835.81
  Q 675.08 836.26 674.55 836.44
  Q 659.41 841.35 643.76 844.49
  Q 643.15 844.61 642.59 844.32
  C 640.23 843.08 638.33 842.20 636.87 839.67
  Q 627.61 823.63 612.24 816.88
  Q 591.54 807.79 570.54 816.43
  Q 554.12 823.19 544.45 840.42
  C 543.38 842.33 540.85 843.32 539.04 844.35
  A 1.31 1.30 35.5 0 1 538.12 844.50
  Q 523.61 841.66 507.90 836.65
  C 505.87 836.01 504.57 833.21 503.32 831.61
  A 1.59 1.59 0.0 0 1 502.97 830.56
  C 503.45 809.30 494.07 791.19 475.28 780.82
  C 458.22 771.40 438.33 773.05 421.68 783.43
  Q 419.52 784.77 416.98 784.10
  Q 414.99 783.58 413.40 782.12
  Q 400.70 770.55 392.45 761.06
  Q 390.28 758.57 390.77 755.88
  Q 391.06 754.30 392.02 752.71
  C 414.71 714.98 387.96 670.61 344.43 672.07
  Q 343.88 672.08 343.44 671.76
  L 339.17 668.64
  Q 338.75 668.33 338.58 667.83
  Q 333.77 653.19 330.48 637.00
  Q 330.35 636.38 330.67 635.83
  C 331.84 633.80 332.72 631.43 334.92 630.26
  C 352.08 621.12 362.81 603.38 362.74 583.91
  C 362.67 564.54 352.00 547.23 334.94 537.99
  C 332.75 536.80 331.83 534.46 330.68 532.43
  Q 330.37 531.89 330.49 531.29
  Q 333.39 516.68 338.40 501.06
  C 339.02 499.10 341.75 497.86 343.21 496.70
  Q 343.87 496.18 344.71 496.20
  Q 366.99 496.79 382.66 483.07
  C 396.14 471.26 402.35 453.75 399.68 435.80
  Q 398.16 425.56 391.40 414.44
  Q 390.15 412.38 390.97 410.05
  Q 391.69 407.97 393.15 406.37
  Q 405.28 393.10 413.80 385.82
  Q 417.74 382.45 421.92 385.03
  C 459.31 408.17 504.56 381.44 502.92 337.82
  Q 502.89 337.23 503.24 336.75
  L 506.36 332.40
  A 1.51 1.50 -80.8 0 1 507.12 331.85
  Q 521.90 327.01 538.02 323.73
  Q 538.59 323.61 539.09 323.90
  C 540.79 324.86 543.37 325.89 544.36 327.68
  Q 558.05 352.21 585.68 355.83
  Q 586.25 355.90 586.25 356.49
  L 586.25 583.67
  A 0.42 0.41 -0.0 0 0 586.67 584.08
  L 595.07 584.10
  Q 595.49 584.10 595.49 583.68
  Z"
/>
<circle fill="#1a1919" cx="81.84" cy="584.12" r="29.88"/>
<circle fill="#1a1919" cx="1099.90" cy="584.12" r="29.88"/>
<circle fill="#1a1919" cx="150.02" cy="838.65" r="29.91"/>
<circle fill="#1a1919" cx="1031.71" cy="838.65" r="29.91"/>
</svg>
