<?xml version="1.0" encoding="UTF-8" standalone="no"?>
<!DOCTYPE svg PUBLIC "-//W3C//DTD SVG 1.1//EN" "http://www.w3.org/Graphics/SVG/1.1/DTD/svg11.dtd">
<svg xmlns="http://www.w3.org/2000/svg" version="1.1" viewBox="0.00 0.00 242.00 106.00">
<g stroke-width="2.00" fill="none" stroke-linecap="butt">
<path stroke="#808080" vector-effect="non-scaling-stroke" d="
  M 238.74 4.41
  A 0.58 0.58 0.0 0 0 238.16 3.83
  L 3.86 3.83
  A 0.58 0.58 0.0 0 0 3.28 4.41
  L 3.28 43.67
  A 0.58 0.58 0.0 0 0 3.86 44.25
  L 238.16 44.25
  A 0.58 0.58 0.0 0 0 238.74 43.67
  L 238.74 4.41"
/>
<path stroke="#808080" vector-effect="non-scaling-stroke" d="
  M 238.44 49.10
  A 0.33 0.33 0.0 0 0 238.11 48.77
  L 4.09 48.77
  A 0.33 0.33 0.0 0 0 3.76 49.10
  L 3.76 56.52
  A 0.33 0.33 0.0 0 0 4.09 56.85
  L 238.11 56.85
  A 0.33 0.33 0.0 0 0 238.44 56.52
  L 238.44 49.10"
/>
<path stroke="#808080" vector-effect="non-scaling-stroke" d="
  M 238.76 61.48
  A 0.27 0.27 0.0 0 0 238.49 61.21
  L 3.55 61.21
  A 0.27 0.27 0.0 0 0 3.28 61.48
  L 3.28 101.54
  A 0.27 0.27 0.0 0 0 3.55 101.81
  L 238.49 101.81
  A 0.27 0.27 0.0 0 0 238.76 101.54
  L 238.76 61.48"
/>
</g>
<path fill="#000000" d="
  M 0.00 0.00
  L 242.00 0.00
  L 242.00 106.00
  L 0.00 106.00
  L 0.00 0.00
  Z
  M 238.74 4.41
  A 0.58 0.58 0.0 0 0 238.16 3.83
  L 3.86 3.83
  A 0.58 0.58 0.0 0 0 3.28 4.41
  L 3.28 43.67
  A 0.58 0.58 0.0 0 0 3.86 44.25
  L 238.16 44.25
  A 0.58 0.58 0.0 0 0 238.74 43.67
  L 238.74 4.41
  Z
  M 238.44 49.10
  A 0.33 0.33 0.0 0 0 238.11 48.77
  L 4.09 48.77
  A 0.33 0.33 0.0 0 0 3.76 49.10
  L 3.76 56.52
  A 0.33 0.33 0.0 0 0 4.09 56.85
  L 238.11 56.85
  A 0.33 0.33 0.0 0 0 238.44 56.52
  L 238.44 49.10
  Z
  M 238.76 61.48
  A 0.27 0.27 0.0 0 0 238.49 61.21
  L 3.55 61.21
  A 0.27 0.27 0.0 0 0 3.28 61.48
  L 3.28 101.54
  A 0.27 0.27 0.0 0 0 3.55 101.81
  L 238.49 101.81
  A 0.27 0.27 0.0 0 0 238.76 101.54
  L 238.76 61.48
  Z"
/>
<rect fill="#ffffff" x="3.28" y="3.83" width="235.46" height="40.42" rx="0.58"/>
<rect fill="#ffffff" x="3.76" y="48.77" width="234.68" height="8.08" rx="0.33"/>
<rect fill="#ffffff" x="3.28" y="61.21" width="235.48" height="40.60" rx="0.27"/>
</svg>
