<?xml version="1.0" encoding="UTF-8" standalone="no"?>
<!DOCTYPE svg PUBLIC "-//W3C//DTD SVG 1.1//EN" "http://www.w3.org/Graphics/SVG/1.1/DTD/svg11.dtd">
<svg xmlns="http://www.w3.org/2000/svg" version="1.1" viewBox="0.00 0.00 365.00 752.00">
<g stroke-width="2.00" fill="none" stroke-linecap="butt">
<path stroke="#808080" vector-effect="non-scaling-stroke" d="
  M 164.67 436.00
  L 164.66 488.02
  Q 164.66 488.95 163.73 488.95
  L 23.43 488.86
  Q 22.45 488.86 22.42 489.84
  L 22.30 493.49
  Q 22.28 494.33 23.12 494.33
  L 163.96 494.26
  A 0.70 0.70 0.0 0 1 164.66 494.96
  L 164.62 544.51
  A 0.88 0.88 0.0 0 1 163.74 545.39
  L 23.60 545.56
  Q 22.51 545.56 22.52 546.65
  L 22.53 550.01
  Q 22.54 550.99 23.51 550.99
  L 163.81 550.95
  Q 164.66 550.95 164.66 551.81
  L 164.62 602.29
  A 0.94 0.94 0.0 0 1 163.67 603.23
  Q 92.76 602.81 23.85 603.33
  Q 22.48 603.34 22.48 604.71
  L 22.46 607.47
  Q 22.46 608.72 23.72 608.73
  L 163.74 608.76
  A 0.97 0.97 0.0 0 1 164.71 609.74
  L 164.63 658.98
  A 0.61 0.61 0.0 0 1 164.02 659.59
  L 23.77 659.79
  Q 22.80 659.79 22.57 660.74
  Q 22.16 662.48 22.32 663.93
  A 1.18 1.17 -3.0 0 0 23.49 664.98
  L 163.71 665.08
  Q 164.34 665.08 164.55 665.68
  Q 164.71 666.14 164.71 666.64
  Q 164.63 693.17 164.60 719.74
  Q 164.60 721.14 166.00 721.14
  L 203.50 721.11
  A 0.43 0.43 0.0 0 0 203.93 720.68
  L 204.00 665.65
  A 0.60 0.60 0.0 0 1 204.60 665.05
  L 345.48 665.01
  Q 346.21 665.01 346.22 664.27
  L 346.25 660.47
  Q 346.26 659.69 345.47 659.69
  L 204.36 659.62
  A 0.38 0.38 0.0 0 1 203.98 659.24
  L 204.00 609.77
  A 0.99 0.98 90.0 0 1 204.98 608.78
  L 344.79 608.68
  Q 346.25 608.68 346.25 607.21
  L 346.24 604.49
  Q 346.24 603.24 344.99 603.24
  L 204.51 603.02
  A 0.51 0.51 0.0 0 1 204.00 602.51
  L 204.00 552.02
  A 0.98 0.98 0.0 0 1 204.98 551.04
  L 345.44 550.83
  Q 346.21 550.83 346.21 550.06
  L 346.23 546.53
  Q 346.24 545.58 345.28 545.58
  L 204.44 545.39
  Q 204.00 545.39 204.00 544.94
  L 204.00 494.92
  Q 204.00 494.33 204.58 494.33
  L 345.51 494.22
  Q 346.25 494.22 346.25 493.49
  L 346.27 489.78
  Q 346.28 489.02 345.53 489.02
  L 204.79 488.84
  Q 203.99 488.84 203.99 488.04
  L 204.06 436.45
  A 0.28 0.28 0.0 0 1 204.34 436.17
  L 346.19 436.18
  Q 346.37 436.18 346.37 436.00
  L 346.38 431.46
  Q 346.38 431.25 346.16 431.25
  L 204.28 431.26
  A 0.19 0.19 0.0 0 1 204.09 431.07
  L 204.26 380.05
  Q 204.26 379.50 204.81 379.50
  L 346.02 379.50
  Q 346.55 379.50 346.55 378.98
  L 346.56 375.19
  A 0.62 0.61 0.0 0 0 345.94 374.58
  L 205.51 374.58
  Q 205.20 374.58 204.95 374.74
  Q 204.81 374.83 204.64 374.83
  Q 204.21 374.83 204.21 374.40
  L 204.43 322.80
  Q 204.43 322.62 204.56 322.49
  Q 204.77 322.28 204.94 322.46
  Q 205.17 322.71 205.50 322.71
  L 346.25 322.71
  Q 346.70 322.71 346.70 322.25
  L 346.71 318.31
  Q 346.71 317.77 346.16 317.77
  Q 275.87 317.77 205.45 317.77
  Q 205.25 317.77 205.05 317.86
  Q 204.98 317.89 204.93 317.94
  Q 204.48 318.44 204.48 317.77
  Q 204.49 291.36 204.88 266.60
  Q 204.89 265.96 205.54 265.96
  Q 255.21 266.04 308.82 265.95
  Q 315.92 265.94 322.65 265.62
  C 330.31 265.26 337.45 264.87 344.93 265.47
  A 0.83 0.83 0.0 0 0 345.83 264.70
  L 346.02 262.11
  Q 346.12 260.86 344.87 260.86
  L 204.50 260.50
  A 0.50 0.50 0.0 0 1 204.00 260.00
  L 204.00 208.76
  A 0.49 0.49 0.0 0 1 204.49 208.27
  L 344.98 208.03
  Q 346.23 208.03 346.23 206.77
  L 346.22 204.29
  Q 346.22 203.10 345.04 203.10
  L 204.74 202.98
  A 0.74 0.74 0.0 0 1 204.00 202.24
  L 203.98 152.42
  A 0.60 0.59 -0.0 0 1 204.58 151.83
  L 345.57 151.26
  Q 346.13 151.26 346.11 150.70
  L 345.95 147.47
  Q 345.93 146.91 345.37 146.91
  Q 272.84 145.83 204.49 146.45
  A 0.51 0.50 89.4 0 1 203.98 145.94
  L 203.98 94.80
  Q 203.98 94.09 204.70 94.08
  L 345.24 93.52
  Q 346.25 93.51 346.24 92.51
  L 346.23 90.31
  Q 346.23 89.49 345.41 89.47
  C 298.13 88.66 251.42 88.79 204.46 88.75
  A 0.52 0.52 0.0 0 1 203.94 88.23
  L 204.04 33.73
  Q 204.04 32.80 203.11 32.80
  L 165.41 32.91
  A 0.93 0.93 0.0 0 0 164.48 33.84
  L 164.75 87.70
  A 1.17 1.17 0.0 0 1 163.58 88.87
  Q 115.24 88.63 65.00 88.83
  C 51.88 88.88 37.94 89.86 24.08 89.49
  A 1.41 1.40 5.7 0 0 22.66 90.65
  L 22.58 91.14
  Q 22.23 93.15 24.26 93.18
  C 71.24 94.09 117.23 94.12 163.64 93.95
  A 1.02 1.02 0.0 0 1 164.66 94.97
  L 164.66 145.82
  A 0.77 0.77 0.0 0 1 163.88 146.59
  Q 96.07 145.81 28.10 146.71
  C 26.48 146.73 24.89 146.50 23.29 146.46
  A 0.60 0.60 0.0 0 0 22.67 147.03
  L 22.55 150.24
  A 0.83 0.82 1.7 0 0 23.37 151.10
  Q 92.95 152.23 163.74 151.40
  A 0.91 0.91 0.0 0 1 164.66 152.31
  L 164.62 202.70
  A 0.31 0.31 0.0 0 1 164.31 203.01
  L 23.26 203.03
  Q 22.29 203.03 22.29 203.99
  L 22.27 207.37
  A 0.81 0.80 0.3 0 0 23.08 208.18
  L 164.03 208.21
  A 0.66 0.66 0.0 0 1 164.69 208.87
  L 164.62 259.28
  A 1.39 1.39 0.0 0 1 163.22 260.67
  L 23.24 260.62
  Q 22.61 260.62 22.56 261.26
  L 22.36 264.13
  Q 22.26 265.70 23.83 265.72
  Q 93.18 266.31 163.87 265.78
  A 0.77 0.77 0.0 0 1 164.65 266.55
  L 164.66 317.17
  Q 164.66 317.76 164.08 317.76
  L 22.79 317.75
  Q 22.60 317.75 22.61 317.94
  L 22.65 322.50
  Q 22.65 322.69 22.84 322.69
  L 164.05 322.69
  Q 164.66 322.69 164.66 323.30
  L 164.66 373.96
  Q 164.66 374.56 164.07 374.56
  L 23.23 374.56
  A 0.71 0.71 0.0 0 0 22.52 375.27
  L 22.50 378.75
  Q 22.50 379.50 23.25 379.50
  L 164.14 379.50
  Q 164.66 379.50 164.66 380.02
  L 164.66 430.71
  Q 164.66 431.25 164.11 431.25
  L 23.04 431.25
  Q 22.32 431.25 22.32 431.96
  L 22.29 435.60
  Q 22.29 436.15 22.85 436.15
  L 163.77 436.15
  Q 163.92 436.15 164.04 436.06
  L 164.33 435.83
  Q 164.67 435.57 164.67 436.00"
/>
<path stroke="#808080" vector-effect="non-scaling-stroke" d="
  M 198.77 38.69
  A 0.27 0.27 0.0 0 0 198.50 38.42
  L 170.16 38.42
  A 0.27 0.27 0.0 0 0 169.89 38.69
  L 169.89 715.67
  A 0.27 0.27 0.0 0 0 170.16 715.94
  L 198.50 715.94
  A 0.27 0.27 0.0 0 0 198.77 715.67
  L 198.77 38.69"
/>
</g>
<path fill="#ffffff" d="
  M 0.00 0.00
  L 365.00 0.00
  L 365.00 752.00
  L 0.00 752.00
  L 0.00 0.00
  Z
  M 164.67 436.00
  L 164.66 488.02
  Q 164.66 488.95 163.73 488.95
  L 23.43 488.86
  Q 22.45 488.86 22.42 489.84
  L 22.30 493.49
  Q 22.28 494.33 23.12 494.33
  L 163.96 494.26
  A 0.70 0.70 0.0 0 1 164.66 494.96
  L 164.62 544.51
  A 0.88 0.88 0.0 0 1 163.74 545.39
  L 23.60 545.56
  Q 22.51 545.56 22.52 546.65
  L 22.53 550.01
  Q 22.54 550.99 23.51 550.99
  L 163.81 550.95
  Q 164.66 550.95 164.66 551.81
  L 164.62 602.29
  A 0.94 0.94 0.0 0 1 163.67 603.23
  Q 92.76 602.81 23.85 603.33
  Q 22.48 603.34 22.48 604.71
  L 22.46 607.47
  Q 22.46 608.72 23.72 608.73
  L 163.74 608.76
  A 0.97 0.97 0.0 0 1 164.71 609.74
  L 164.63 658.98
  A 0.61 0.61 0.0 0 1 164.02 659.59
  L 23.77 659.79
  Q 22.80 659.79 22.57 660.74
  Q 22.16 662.48 22.32 663.93
  A 1.18 1.17 -3.0 0 0 23.49 664.98
  L 163.71 665.08
  Q 164.34 665.08 164.55 665.68
  Q 164.71 666.14 164.71 666.64
  Q 164.63 693.17 164.60 719.74
  Q 164.60 721.14 166.00 721.14
  L 203.50 721.11
  A 0.43 0.43 0.0 0 0 203.93 720.68
  L 204.00 665.65
  A 0.60 0.60 0.0 0 1 204.60 665.05
  L 345.48 665.01
  Q 346.21 665.01 346.22 664.27
  L 346.25 660.47
  Q 346.26 659.69 345.47 659.69
  L 204.36 659.62
  A 0.38 0.38 0.0 0 1 203.98 659.24
  L 204.00 609.77
  A 0.99 0.98 90.0 0 1 204.98 608.78
  L 344.79 608.68
  Q 346.25 608.68 346.25 607.21
  L 346.24 604.49
  Q 346.24 603.24 344.99 603.24
  L 204.51 603.02
  A 0.51 0.51 0.0 0 1 204.00 602.51
  L 204.00 552.02
  A 0.98 0.98 0.0 0 1 204.98 551.04
  L 345.44 550.83
  Q 346.21 550.83 346.21 550.06
  L 346.23 546.53
  Q 346.24 545.58 345.28 545.58
  L 204.44 545.39
  Q 204.00 545.39 204.00 544.94
  L 204.00 494.92
  Q 204.00 494.33 204.58 494.33
  L 345.51 494.22
  Q 346.25 494.22 346.25 493.49
  L 346.27 489.78
  Q 346.28 489.02 345.53 489.02
  L 204.79 488.84
  Q 203.99 488.84 203.99 488.04
  L 204.06 436.45
  A 0.28 0.28 0.0 0 1 204.34 436.17
  L 346.19 436.18
  Q 346.37 436.18 346.37 436.00
  L 346.38 431.46
  Q 346.38 431.25 346.16 431.25
  L 204.28 431.26
  A 0.19 0.19 0.0 0 1 204.09 431.07
  L 204.26 380.05
  Q 204.26 379.50 204.81 379.50
  L 346.02 379.50
  Q 346.55 379.50 346.55 378.98
  L 346.56 375.19
  A 0.62 0.61 0.0 0 0 345.94 374.58
  L 205.51 374.58
  Q 205.20 374.58 204.95 374.74
  Q 204.81 374.83 204.64 374.83
  Q 204.21 374.83 204.21 374.40
  L 204.43 322.80
  Q 204.43 322.62 204.56 322.49
  Q 204.77 322.28 204.94 322.46
  Q 205.17 322.71 205.50 322.71
  L 346.25 322.71
  Q 346.70 322.71 346.70 322.25
  L 346.71 318.31
  Q 346.71 317.77 346.16 317.77
  Q 275.87 317.77 205.45 317.77
  Q 205.25 317.77 205.05 317.86
  Q 204.98 317.89 204.93 317.94
  Q 204.48 318.44 204.48 317.77
  Q 204.49 291.36 204.88 266.60
  Q 204.89 265.96 205.54 265.96
  Q 255.21 266.04 308.82 265.95
  Q 315.92 265.94 322.65 265.62
  C 330.31 265.26 337.45 264.87 344.93 265.47
  A 0.83 0.83 0.0 0 0 345.83 264.70
  L 346.02 262.11
  Q 346.12 260.86 344.87 260.86
  L 204.50 260.50
  A 0.50 0.50 0.0 0 1 204.00 260.00
  L 204.00 208.76
  A 0.49 0.49 0.0 0 1 204.49 208.27
  L 344.98 208.03
  Q 346.23 208.03 346.23 206.77
  L 346.22 204.29
  Q 346.22 203.10 345.04 203.10
  L 204.74 202.98
  A 0.74 0.74 0.0 0 1 204.00 202.24
  L 203.98 152.42
  A 0.60 0.59 -0.0 0 1 204.58 151.83
  L 345.57 151.26
  Q 346.13 151.26 346.11 150.70
  L 345.95 147.47
  Q 345.93 146.91 345.37 146.91
  Q 272.84 145.83 204.49 146.45
  A 0.51 0.50 89.4 0 1 203.98 145.94
  L 203.98 94.80
  Q 203.98 94.09 204.70 94.08
  L 345.24 93.52
  Q 346.25 93.51 346.24 92.51
  L 346.23 90.31
  Q 346.23 89.49 345.41 89.47
  C 298.13 88.66 251.42 88.79 204.46 88.75
  A 0.52 0.52 0.0 0 1 203.94 88.23
  L 204.04 33.73
  Q 204.04 32.80 203.11 32.80
  L 165.41 32.91
  A 0.93 0.93 0.0 0 0 164.48 33.84
  L 164.75 87.70
  A 1.17 1.17 0.0 0 1 163.58 88.87
  Q 115.24 88.63 65.00 88.83
  C 51.88 88.88 37.94 89.86 24.08 89.49
  A 1.41 1.40 5.7 0 0 22.66 90.65
  L 22.58 91.14
  Q 22.23 93.15 24.26 93.18
  C 71.24 94.09 117.23 94.12 163.64 93.95
  A 1.02 1.02 0.0 0 1 164.66 94.97
  L 164.66 145.82
  A 0.77 0.77 0.0 0 1 163.88 146.59
  Q 96.07 145.81 28.10 146.71
  C 26.48 146.73 24.89 146.50 23.29 146.46
  A 0.60 0.60 0.0 0 0 22.67 147.03
  L 22.55 150.24
  A 0.83 0.82 1.7 0 0 23.37 151.10
  Q 92.95 152.23 163.74 151.40
  A 0.91 0.91 0.0 0 1 164.66 152.31
  L 164.62 202.70
  A 0.31 0.31 0.0 0 1 164.31 203.01
  L 23.26 203.03
  Q 22.29 203.03 22.29 203.99
  L 22.27 207.37
  A 0.81 0.80 0.3 0 0 23.08 208.18
  L 164.03 208.21
  A 0.66 0.66 0.0 0 1 164.69 208.87
  L 164.62 259.28
  A 1.39 1.39 0.0 0 1 163.22 260.67
  L 23.24 260.62
  Q 22.61 260.62 22.56 261.26
  L 22.36 264.13
  Q 22.26 265.70 23.83 265.72
  Q 93.18 266.31 163.87 265.78
  A 0.77 0.77 0.0 0 1 164.65 266.55
  L 164.66 317.17
  Q 164.66 317.76 164.08 317.76
  L 22.79 317.75
  Q 22.60 317.75 22.61 317.94
  L 22.65 322.50
  Q 22.65 322.69 22.84 322.69
  L 164.05 322.69
  Q 164.66 322.69 164.66 323.30
  L 164.66 373.96
  Q 164.66 374.56 164.07 374.56
  L 23.23 374.56
  A 0.71 0.71 0.0 0 0 22.52 375.27
  L 22.50 378.75
  Q 22.50 379.50 23.25 379.50
  L 164.14 379.50
  Q 164.66 379.50 164.66 380.02
  L 164.66 430.71
  Q 164.66 431.25 164.11 431.25
  L 23.04 431.25
  Q 22.32 431.25 22.32 431.96
  L 22.29 435.60
  Q 22.29 436.15 22.85 436.15
  L 163.77 436.15
  Q 163.92 436.15 164.04 436.06
  L 164.33 435.83
  Q 164.67 435.57 164.67 436.00
  Z"
/>
<path fill="#000000" d="
  M 164.33 435.83
  L 164.04 436.06
  Q 163.92 436.15 163.77 436.15
  L 22.85 436.15
  Q 22.29 436.15 22.29 435.60
  L 22.32 431.96
  Q 22.32 431.25 23.04 431.25
  L 164.11 431.25
  Q 164.66 431.25 164.66 430.71
  L 164.66 380.02
  Q 164.66 379.50 164.14 379.50
  L 23.25 379.50
  Q 22.50 379.50 22.50 378.75
  L 22.52 375.27
  A 0.71 0.71 0.0 0 1 23.23 374.56
  L 164.07 374.56
  Q 164.66 374.56 164.66 373.96
  L 164.66 323.30
  Q 164.66 322.69 164.05 322.69
  L 22.84 322.69
  Q 22.65 322.69 22.65 322.50
  L 22.61 317.94
  Q 22.60 317.75 22.79 317.75
  L 164.08 317.76
  Q 164.66 317.76 164.66 317.17
  L 164.65 266.55
  A 0.77 0.77 0.0 0 0 163.87 265.78
  Q 93.18 266.31 23.83 265.72
  Q 22.26 265.70 22.36 264.13
  L 22.56 261.26
  Q 22.61 260.62 23.24 260.62
  L 163.22 260.67
  A 1.39 1.39 0.0 0 0 164.62 259.28
  L 164.69 208.87
  A 0.66 0.66 0.0 0 0 164.03 208.21
  L 23.08 208.18
  A 0.81 0.80 0.3 0 1 22.27 207.37
  L 22.29 203.99
  Q 22.29 203.03 23.26 203.03
  L 164.31 203.01
  A 0.31 0.31 0.0 0 0 164.62 202.70
  L 164.66 152.31
  A 0.91 0.91 0.0 0 0 163.74 151.40
  Q 92.95 152.23 23.37 151.10
  A 0.83 0.82 1.7 0 1 22.55 150.24
  L 22.67 147.03
  A 0.60 0.60 0.0 0 1 23.29 146.46
  C 24.89 146.50 26.48 146.73 28.10 146.71
  Q 96.07 145.81 163.88 146.59
  A 0.77 0.77 0.0 0 0 164.66 145.82
  L 164.66 94.97
  A 1.02 1.02 0.0 0 0 163.64 93.95
  C 117.23 94.12 71.24 94.09 24.26 93.18
  Q 22.23 93.15 22.58 91.14
  L 22.66 90.65
  A 1.41 1.40 5.7 0 1 24.08 89.49
  C 37.94 89.86 51.88 88.88 65.00 88.83
  Q 115.24 88.63 163.58 88.87
  A 1.17 1.17 0.0 0 0 164.75 87.70
  L 164.48 33.84
  A 0.93 0.93 0.0 0 1 165.41 32.91
  L 203.11 32.80
  Q 204.04 32.80 204.04 33.73
  L 203.94 88.23
  A 0.52 0.52 0.0 0 0 204.46 88.75
  C 251.42 88.79 298.13 88.66 345.41 89.47
  Q 346.23 89.49 346.23 90.31
  L 346.24 92.51
  Q 346.25 93.51 345.24 93.52
  L 204.70 94.08
  Q 203.98 94.09 203.98 94.80
  L 203.98 145.94
  A 0.51 0.50 89.4 0 0 204.49 146.45
  Q 272.84 145.83 345.37 146.91
  Q 345.93 146.91 345.95 147.47
  L 346.11 150.70
  Q 346.13 151.26 345.57 151.26
  L 204.58 151.83
  A 0.60 0.59 0.0 0 0 203.98 152.42
  L 204.00 202.24
  A 0.74 0.74 0.0 0 0 204.74 202.98
  L 345.04 203.10
  Q 346.22 203.10 346.22 204.29
  L 346.23 206.77
  Q 346.23 208.03 344.98 208.03
  L 204.49 208.27
  A 0.49 0.49 0.0 0 0 204.00 208.76
  L 204.00 260.00
  A 0.50 0.50 0.0 0 0 204.50 260.50
  L 344.87 260.86
  Q 346.12 260.86 346.02 262.11
  L 345.83 264.70
  A 0.83 0.83 0.0 0 1 344.93 265.47
  C 337.45 264.87 330.31 265.26 322.65 265.62
  Q 315.92 265.94 308.82 265.95
  Q 255.21 266.04 205.54 265.96
  Q 204.89 265.96 204.88 266.60
  Q 204.49 291.36 204.48 317.77
  Q 204.48 318.44 204.93 317.94
  Q 204.98 317.89 205.05 317.86
  Q 205.25 317.77 205.45 317.77
  Q 275.87 317.77 346.16 317.77
  Q 346.71 317.77 346.71 318.31
  L 346.70 322.25
  Q 346.70 322.71 346.25 322.71
  L 205.50 322.71
  Q 205.17 322.71 204.94 322.46
  Q 204.77 322.28 204.56 322.49
  Q 204.43 322.62 204.43 322.80
  L 204.21 374.40
  Q 204.21 374.83 204.64 374.83
  Q 204.81 374.83 204.95 374.74
  Q 205.20 374.58 205.51 374.58
  L 345.94 374.58
  A 0.62 0.61 -0.0 0 1 346.56 375.19
  L 346.55 378.98
  Q 346.55 379.50 346.02 379.50
  L 204.81 379.50
  Q 204.26 379.50 204.26 380.05
  L 204.09 431.07
  A 0.19 0.19 0.0 0 0 204.28 431.26
  L 346.16 431.25
  Q 346.38 431.25 346.38 431.46
  L 346.37 436.00
  Q 346.37 436.18 346.19 436.18
  L 204.34 436.17
  A 0.28 0.28 0.0 0 0 204.06 436.45
  L 203.99 488.04
  Q 203.99 488.84 204.79 488.84
  L 345.53 489.02
  Q 346.28 489.02 346.27 489.78
  L 346.25 493.49
  Q 346.25 494.22 345.51 494.22
  L 204.58 494.33
  Q 204.00 494.33 204.00 494.92
  L 204.00 544.94
  Q 204.00 545.39 204.44 545.39
  L 345.28 545.58
  Q 346.24 545.58 346.23 546.53
  L 346.21 550.06
  Q 346.21 550.83 345.44 550.83
  L 204.98 551.04
  A 0.98 0.98 0.0 0 0 204.00 552.02
  L 204.00 602.51
  A 0.51 0.51 0.0 0 0 204.51 603.02
  L 344.99 603.24
  Q 346.24 603.24 346.24 604.49
  L 346.25 607.21
  Q 346.25 608.68 344.79 608.68
  L 204.98 608.78
  A 0.99 0.98 90.0 0 0 204.00 609.77
  L 203.98 659.24
  A 0.38 0.38 0.0 0 0 204.36 659.62
  L 345.47 659.69
  Q 346.26 659.69 346.25 660.47
  L 346.22 664.27
  Q 346.21 665.01 345.48 665.01
  L 204.60 665.05
  A 0.60 0.60 0.0 0 0 204.00 665.65
  L 203.93 720.68
  A 0.43 0.43 0.0 0 1 203.50 721.11
  L 166.00 721.14
  Q 164.60 721.14 164.60 719.74
  Q 164.63 693.17 164.71 666.64
  Q 164.71 666.14 164.55 665.68
  Q 164.34 665.08 163.71 665.08
  L 23.49 664.98
  A 1.18 1.17 -3.0 0 1 22.32 663.93
  Q 22.16 662.48 22.57 660.74
  Q 22.80 659.79 23.77 659.79
  L 164.02 659.59
  A 0.61 0.61 0.0 0 0 164.63 658.98
  L 164.71 609.74
  A 0.97 0.97 0.0 0 0 163.74 608.76
  L 23.72 608.73
  Q 22.46 608.72 22.46 607.47
  L 22.48 604.71
  Q 22.48 603.34 23.85 603.33
  Q 92.76 602.81 163.67 603.23
  A 0.94 0.94 0.0 0 0 164.62 602.29
  L 164.66 551.81
  Q 164.66 550.95 163.81 550.95
  L 23.51 550.99
  Q 22.54 550.99 22.53 550.01
  L 22.52 546.65
  Q 22.51 545.56 23.60 545.56
  L 163.74 545.39
  A 0.88 0.88 0.0 0 0 164.62 544.51
  L 164.66 494.96
  A 0.70 0.70 0.0 0 0 163.96 494.26
  L 23.12 494.33
  Q 22.28 494.33 22.30 493.49
  L 22.42 489.84
  Q 22.45 488.86 23.43 488.86
  L 163.73 488.95
  Q 164.66 488.95 164.66 488.02
  L 164.67 436.00
  Q 164.67 435.57 164.33 435.83
  Z
  M 198.77 38.69
  A 0.27 0.27 0.0 0 0 198.50 38.42
  L 170.16 38.42
  A 0.27 0.27 0.0 0 0 169.89 38.69
  L 169.89 715.67
  A 0.27 0.27 0.0 0 0 170.16 715.94
  L 198.50 715.94
  A 0.27 0.27 0.0 0 0 198.77 715.67
  L 198.77 38.69
  Z"
/>
<rect fill="#ffffff" x="169.89" y="38.42" width="28.88" height="677.52" rx="0.27"/>
</svg>
