<?xml version="1.0" encoding="UTF-8" standalone="no"?>
<!DOCTYPE svg PUBLIC "-//W3C//DTD SVG 1.1//EN" "http://www.w3.org/Graphics/SVG/1.1/DTD/svg11.dtd">
<svg xmlns="http://www.w3.org/2000/svg" version="1.1" viewBox="0.00 0.00 352.00 378.00">
<g stroke-width="2.00" fill="none" stroke-linecap="butt">
<path stroke="#8d8c8c" vector-effect="non-scaling-stroke" d="
  M 165.69 8.47
  A 0.33 0.33 0.0 0 0 165.38 8.02
  L 162.64 8.02
  A 0.33 0.33 0.0 0 0 162.33 8.23
  L 153.52 31.22
  A 0.33 0.33 0.0 0 0 153.83 31.67
  L 156.57 31.65
  A 0.33 0.33 0.0 0 0 156.88 31.44
  L 165.69 8.47"
/>
<path stroke="#8d8c8c" vector-effect="non-scaling-stroke" d="
  M 237.33 16.76
  Q 234.76 15.82 235.66 13.14
  C 236.17 11.62 238.15 11.26 239.55 11.27
  Q 243.73 11.29 244.31 14.86
  Q 244.37 15.23 244.75 15.23
  L 247.98 15.24
  Q 248.28 15.24 248.29 14.93
  C 248.36 6.96 234.62 5.50 231.97 12.49
  C 230.79 15.60 232.23 19.00 235.46 20.04
  Q 238.46 21.01 241.75 21.75
  C 247.28 22.98 245.36 28.43 240.32 28.43
  Q 235.06 28.44 234.50 23.94
  Q 234.45 23.56 234.07 23.56
  L 231.00 23.59
  Q 230.74 23.59 230.75 23.85
  C 231.15 31.41 238.88 32.93 244.74 30.71
  C 250.89 28.39 250.24 19.99 243.58 18.53
  Q 240.16 17.78 237.33 16.76"
/>
<path stroke="#8d8c8c" vector-effect="non-scaling-stroke" d="
  M 82.81 22.41
  C 86.83 22.73 93.41 23.09 95.09 18.55
  C 97.07 13.19 94.12 8.65 88.12 8.57
  Q 82.92 8.49 78.40 8.55
  A 0.39 0.39 0.0 0 0 78.01 8.94
  L 78.02 30.51
  Q 78.02 31.11 78.62 31.11
  L 81.57 31.11
  Q 82.00 31.11 82.00 30.68
  L 81.99 23.17
  Q 81.99 22.35 82.81 22.41"
/>
<path stroke="#8d8c8c" vector-effect="non-scaling-stroke" d="
  M 114.50 29.90
  Q 114.45 29.08 114.52 28.31
  Q 114.57 27.72 113.98 27.72
  L 103.51 27.73
  Q 103.03 27.73 103.03 27.26
  L 103.03 8.78
  Q 103.03 8.53 102.78 8.53
  L 99.33 8.55
  Q 99.09 8.55 99.09 8.79
  L 99.10 30.52
  Q 99.10 31.10 99.68 31.10
  L 118.22 31.10
  Q 118.70 31.10 118.86 30.65
  L 120.58 25.80
  Q 120.80 25.18 121.46 25.18
  L 129.22 25.16
  Q 129.81 25.16 130.01 25.72
  L 131.79 30.68
  Q 131.95 31.13 132.43 31.13
  L 135.52 31.09
  A 0.45 0.44 -11.0 0 0 135.93 30.49
  L 127.69 9.11
  Q 127.46 8.53 126.83 8.53
  L 123.90 8.54
  Q 123.28 8.54 123.06 9.11
  L 115.05 29.99
  Q 114.58 31.23 114.50 29.90"
/>
<path stroke="#8d8c8c" vector-effect="non-scaling-stroke" d="
  M 144.22 18.21
  A 0.33 0.33 0.0 0 1 143.65 18.21
  L 138.05 8.71
  A 0.33 0.33 0.0 0 0 137.77 8.55
  L 133.93 8.50
  A 0.33 0.33 0.0 0 0 133.65 9.00
  L 141.77 22.14
  A 0.33 0.33 0.0 0 1 141.82 22.31
  L 141.85 30.78
  A 0.33 0.33 0.0 0 0 142.18 31.11
  L 145.44 31.08
  A 0.33 0.33 0.0 0 0 145.77 30.75
  L 145.78 22.40
  A 0.33 0.33 0.0 0 1 145.83 22.23
  L 153.94 9.04
  A 0.33 0.33 0.0 0 0 153.66 8.53
  L 150.00 8.55
  A 0.33 0.33 0.0 0 0 149.72 8.71
  L 144.22 18.21"
/>
<path stroke="#8d8c8c" vector-effect="non-scaling-stroke" d="
  M 173.98 22.46
  C 178.18 22.54 186.15 23.39 186.91 17.15
  Q 187.93 8.72 179.21 8.57
  Q 174.47 8.49 169.99 8.53
  Q 169.48 8.53 169.48 9.04
  L 169.48 30.80
  Q 169.48 31.11 169.80 31.11
  L 173.04 31.09
  Q 173.42 31.09 173.42 30.71
  L 173.42 23.01
  Q 173.42 22.45 173.98 22.46"
/>
<path stroke="#8d8c8c" vector-effect="non-scaling-stroke" d="
  M 191.67 25.37
  A 0.33 0.33 0.0 0 1 191.98 25.15
  L 200.53 25.19
  A 0.33 0.33 0.0 0 1 200.84 25.41
  L 202.82 30.90
  A 0.33 0.33 0.0 0 0 203.13 31.12
  L 206.64 31.09
  A 0.33 0.33 0.0 0 0 206.95 30.64
  L 198.49 8.75
  A 0.33 0.33 0.0 0 0 198.18 8.54
  L 194.46 8.54
  A 0.33 0.33 0.0 0 0 194.15 8.75
  L 185.74 30.66
  A 0.33 0.33 0.0 0 0 186.05 31.11
  L 189.42 31.09
  A 0.33 0.33 0.0 0 0 189.73 30.87
  L 191.67 25.37"
/>
<path stroke="#8d8c8c" vector-effect="non-scaling-stroke" d="
  M 223.58 22.28
  C 223.61 25.03 222.82 27.71 219.63 28.13
  Q 212.93 29.00 212.97 22.47
  Q 213.01 15.36 212.97 8.97
  A 0.44 0.44 0.0 0 0 212.53 8.53
  L 209.44 8.53
  Q 208.99 8.54 209.00 8.98
  Q 209.03 15.87 208.98 22.46
  C 208.95 26.11 210.25 29.48 213.89 30.85
  C 218.06 32.43 223.95 31.84 226.42 27.66
  Q 227.56 25.75 227.55 21.17
  Q 227.54 14.98 227.48 8.79
  Q 227.48 8.53 227.22 8.53
  L 223.96 8.53
  A 0.40 0.40 0.0 0 0 223.56 8.93
  Q 223.51 15.46 223.58 22.28"
/>
<path stroke="#8d8c8c" vector-effect="non-scaling-stroke" d="
  M 256.34 12.35
  A 0.36 0.36 0.0 0 1 256.70 11.99
  L 268.32 11.98
  A 0.36 0.36 0.0 0 0 268.68 11.62
  L 268.66 8.89
  A 0.36 0.36 0.0 0 0 268.30 8.53
  L 252.80 8.53
  A 0.36 0.36 0.0 0 0 252.44 8.89
  L 252.44 30.75
  A 0.36 0.36 0.0 0 0 252.80 31.11
  L 268.50 31.09
  A 0.36 0.36 0.0 0 0 268.86 30.73
  L 268.88 28.09
  A 0.36 0.36 0.0 0 0 268.52 27.73
  L 256.73 27.73
  A 0.36 0.36 0.0 0 1 256.37 27.37
  L 256.35 21.45
  A 0.36 0.36 0.0 0 1 256.71 21.09
  L 267.38 21.08
  A 0.36 0.36 0.0 0 0 267.74 20.72
  L 267.74 18.25
  A 0.36 0.36 0.0 0 0 267.38 17.89
  L 256.73 17.88
  A 0.36 0.36 0.0 0 1 256.37 17.52
  L 256.34 12.35"
/>
<path stroke="#8d8c8c" vector-effect="non-scaling-stroke" d="
  M 340.83 204.89
  A 164.23 164.23 0.0 0 0 176.60 40.66
  A 164.23 164.23 0.0 0 0 12.37 204.89
  A 164.23 164.23 0.0 0 0 176.60 369.12
  A 164.23 164.23 0.0 0 0 340.83 204.89"
/>
<path stroke="#8d8c8c" vector-effect="non-scaling-stroke" d="
  M 82.00 12.02
  L 81.98 18.92
  A 0.28 0.28 0.0 0 0 82.26 19.20
  L 88.21 19.22
  A 3.53 3.51 -89.8 0 0 91.73 15.71
  L 91.73 15.31
  A 3.53 3.51 -89.8 0 0 88.23 11.76
  L 82.28 11.74
  A 0.28 0.28 0.0 0 0 82.00 12.02"
/>
<path stroke="#8d8c8c" vector-effect="non-scaling-stroke" d="
  M 122.02 21.73
  A 0.31 0.31 0.0 0 0 122.32 22.15
  L 128.35 22.16
  A 0.31 0.31 0.0 0 0 128.65 21.75
  L 125.64 13.14
  A 0.31 0.31 0.0 0 0 125.06 13.14
  L 122.02 21.73"
/>
<path stroke="#8d8c8c" vector-effect="non-scaling-stroke" d="
  M 173.45 12.01
  L 173.43 18.93
  A 0.28 0.28 0.0 0 0 173.71 19.21
  L 179.51 19.23
  A 3.62 3.46 0.2 0 0 183.14 15.79
  L 183.14 15.23
  A 3.62 3.46 0.2 0 0 179.53 11.75
  L 173.73 11.73
  A 0.28 0.28 0.0 0 0 173.45 12.01"
/>
<path stroke="#8d8c8c" vector-effect="non-scaling-stroke" d="
  M 192.96 21.73
  A 0.31 0.31 0.0 0 0 193.26 22.15
  L 199.29 22.16
  A 0.31 0.31 0.0 0 0 199.59 21.75
  L 196.58 13.14
  A 0.31 0.31 0.0 0 0 196.00 13.14
  L 192.96 21.73"
/>
<path stroke="#8d8c8c" vector-effect="non-scaling-stroke" d="
  M 337.67 204.89
  A 161.07 161.07 0.0 0 0 176.60 43.82
  A 161.07 161.07 0.0 0 0 15.53 204.89
  A 161.07 161.07 0.0 0 0 176.60 365.96
  A 161.07 161.07 0.0 0 0 337.67 204.89"
/>
<path stroke="#8d8c8c" vector-effect="non-scaling-stroke" d="
  M 318.29 204.89
  A 141.69 141.69 0.0 0 0 176.60 63.20
  A 141.69 141.69 0.0 0 0 34.91 204.89
  A 141.69 141.69 0.0 0 0 176.60 346.58
  A 141.69 141.69 0.0 0 0 318.29 204.89"
/>
<path stroke="#8d8c8c" vector-effect="non-scaling-stroke" d="
  M 315.13 204.89
  A 138.53 138.53 0.0 0 0 176.60 66.36
  A 138.53 138.53 0.0 0 0 38.07 204.89
  A 138.53 138.53 0.0 0 0 176.60 343.42
  A 138.53 138.53 0.0 0 0 315.13 204.89"
/>
<path stroke="#8d8c8c" vector-effect="non-scaling-stroke" d="
  M 210.01 185.60
  A 0.38 0.38 0.0 0 0 209.63 185.22
  L 201.41 185.22
  A 0.38 0.38 0.0 0 0 201.03 185.60
  L 201.03 223.86
  A 0.38 0.38 0.0 0 0 201.41 224.24
  L 209.63 224.24
  A 0.38 0.38 0.0 0 0 210.01 223.86
  L 210.01 185.60"
/>
<path stroke="#8d8c8c" vector-effect="non-scaling-stroke" d="
  M 226.07 185.58
  A 0.36 0.36 0.0 0 0 225.71 185.22
  L 217.49 185.22
  A 0.36 0.36 0.0 0 0 217.13 185.58
  L 217.13 223.88
  A 0.36 0.36 0.0 0 0 217.49 224.24
  L 225.71 224.24
  A 0.36 0.36 0.0 0 0 226.07 223.88
  L 226.07 185.58"
/>
<path stroke="#8d8c8c" vector-effect="non-scaling-stroke" d="
  M 127.68 185.73
  A 0.31 0.31 0.0 0 0 127.25 186.01
  L 127.25 224.13
  A 0.31 0.31 0.0 0 0 127.68 224.41
  L 173.75 205.36
  A 0.31 0.31 0.0 0 0 173.75 204.78
  L 127.68 185.73"
/>
</g>
<path fill="#ffffff" d="
  M 0.00 0.00
  L 352.00 0.00
  L 352.00 378.00
  L 0.00 378.00
  L 0.00 0.00
  Z
  M 165.69 8.47
  A 0.33 0.33 0.0 0 0 165.38 8.02
  L 162.64 8.02
  A 0.33 0.33 0.0 0 0 162.33 8.23
  L 153.52 31.22
  A 0.33 0.33 0.0 0 0 153.83 31.67
  L 156.57 31.65
  A 0.33 0.33 0.0 0 0 156.88 31.44
  L 165.69 8.47
  Z
  M 237.33 16.76
  Q 234.76 15.82 235.66 13.14
  C 236.17 11.62 238.15 11.26 239.55 11.27
  Q 243.73 11.29 244.31 14.86
  Q 244.37 15.23 244.75 15.23
  L 247.98 15.24
  Q 248.28 15.24 248.29 14.93
  C 248.36 6.96 234.62 5.50 231.97 12.49
  C 230.79 15.60 232.23 19.00 235.46 20.04
  Q 238.46 21.01 241.75 21.75
  C 247.28 22.98 245.36 28.43 240.32 28.43
  Q 235.06 28.44 234.50 23.94
  Q 234.45 23.56 234.07 23.56
  L 231.00 23.59
  Q 230.74 23.59 230.75 23.85
  C 231.15 31.41 238.88 32.93 244.74 30.71
  C 250.89 28.39 250.24 19.99 243.58 18.53
  Q 240.16 17.78 237.33 16.76
  Z
  M 82.81 22.41
  C 86.83 22.73 93.41 23.09 95.09 18.55
  C 97.07 13.19 94.12 8.65 88.12 8.57
  Q 82.92 8.49 78.40 8.55
  A 0.39 0.39 0.0 0 0 78.01 8.94
  L 78.02 30.51
  Q 78.02 31.11 78.62 31.11
  L 81.57 31.11
  Q 82.00 31.11 82.00 30.68
  L 81.99 23.17
  Q 81.99 22.35 82.81 22.41
  Z
  M 114.50 29.90
  Q 114.45 29.08 114.52 28.31
  Q 114.57 27.72 113.98 27.72
  L 103.51 27.73
  Q 103.03 27.73 103.03 27.26
  L 103.03 8.78
  Q 103.03 8.53 102.78 8.53
  L 99.33 8.55
  Q 99.09 8.55 99.09 8.79
  L 99.10 30.52
  Q 99.10 31.10 99.68 31.10
  L 118.22 31.10
  Q 118.70 31.10 118.86 30.65
  L 120.58 25.80
  Q 120.80 25.18 121.46 25.18
  L 129.22 25.16
  Q 129.81 25.16 130.01 25.72
  L 131.79 30.68
  Q 131.95 31.13 132.43 31.13
  L 135.52 31.09
  A 0.45 0.44 -11.0 0 0 135.93 30.49
  L 127.69 9.11
  Q 127.46 8.53 126.83 8.53
  L 123.90 8.54
  Q 123.28 8.54 123.06 9.11
  L 115.05 29.99
  Q 114.58 31.23 114.50 29.90
  Z
  M 144.22 18.21
  A 0.33 0.33 0.0 0 1 143.65 18.21
  L 138.05 8.71
  A 0.33 0.33 0.0 0 0 137.77 8.55
  L 133.93 8.50
  A 0.33 0.33 0.0 0 0 133.65 9.00
  L 141.77 22.14
  A 0.33 0.33 0.0 0 1 141.82 22.31
  L 141.85 30.78
  A 0.33 0.33 0.0 0 0 142.18 31.11
  L 145.44 31.08
  A 0.33 0.33 0.0 0 0 145.77 30.75
  L 145.78 22.40
  A 0.33 0.33 0.0 0 1 145.83 22.23
  L 153.94 9.04
  A 0.33 0.33 0.0 0 0 153.66 8.53
  L 150.00 8.55
  A 0.33 0.33 0.0 0 0 149.72 8.71
  L 144.22 18.21
  Z
  M 173.98 22.46
  C 178.18 22.54 186.15 23.39 186.91 17.15
  Q 187.93 8.72 179.21 8.57
  Q 174.47 8.49 169.99 8.53
  Q 169.48 8.53 169.48 9.04
  L 169.48 30.80
  Q 169.48 31.11 169.80 31.11
  L 173.04 31.09
  Q 173.42 31.09 173.42 30.71
  L 173.42 23.01
  Q 173.42 22.45 173.98 22.46
  Z
  M 191.67 25.37
  A 0.33 0.33 0.0 0 1 191.98 25.15
  L 200.53 25.19
  A 0.33 0.33 0.0 0 1 200.84 25.41
  L 202.82 30.90
  A 0.33 0.33 0.0 0 0 203.13 31.12
  L 206.64 31.09
  A 0.33 0.33 0.0 0 0 206.95 30.64
  L 198.49 8.75
  A 0.33 0.33 0.0 0 0 198.18 8.54
  L 194.46 8.54
  A 0.33 0.33 0.0 0 0 194.15 8.75
  L 185.74 30.66
  A 0.33 0.33 0.0 0 0 186.05 31.11
  L 189.42 31.09
  A 0.33 0.33 0.0 0 0 189.73 30.87
  L 191.67 25.37
  Z
  M 223.58 22.28
  C 223.61 25.03 222.82 27.71 219.63 28.13
  Q 212.93 29.00 212.97 22.47
  Q 213.01 15.36 212.97 8.97
  A 0.44 0.44 0.0 0 0 212.53 8.53
  L 209.44 8.53
  Q 208.99 8.54 209.00 8.98
  Q 209.03 15.87 208.98 22.46
  C 208.95 26.11 210.25 29.48 213.89 30.85
  C 218.06 32.43 223.95 31.84 226.42 27.66
  Q 227.56 25.75 227.55 21.17
  Q 227.54 14.98 227.48 8.79
  Q 227.48 8.53 227.22 8.53
  L 223.96 8.53
  A 0.40 0.40 0.0 0 0 223.56 8.93
  Q 223.51 15.46 223.58 22.28
  Z
  M 256.34 12.35
  A 0.36 0.36 0.0 0 1 256.70 11.99
  L 268.32 11.98
  A 0.36 0.36 0.0 0 0 268.68 11.62
  L 268.66 8.89
  A 0.36 0.36 0.0 0 0 268.30 8.53
  L 252.80 8.53
  A 0.36 0.36 0.0 0 0 252.44 8.89
  L 252.44 30.75
  A 0.36 0.36 0.0 0 0 252.80 31.11
  L 268.50 31.09
  A 0.36 0.36 0.0 0 0 268.86 30.73
  L 268.88 28.09
  A 0.36 0.36 0.0 0 0 268.52 27.73
  L 256.73 27.73
  A 0.36 0.36 0.0 0 1 256.37 27.37
  L 256.35 21.45
  A 0.36 0.36 0.0 0 1 256.71 21.09
  L 267.38 21.08
  A 0.36 0.36 0.0 0 0 267.74 20.72
  L 267.74 18.25
  A 0.36 0.36 0.0 0 0 267.38 17.89
  L 256.73 17.88
  A 0.36 0.36 0.0 0 1 256.37 17.52
  L 256.34 12.35
  Z
  M 340.83 204.89
  A 164.23 164.23 0.0 0 0 176.60 40.66
  A 164.23 164.23 0.0 0 0 12.37 204.89
  A 164.23 164.23 0.0 0 0 176.60 369.12
  A 164.23 164.23 0.0 0 0 340.83 204.89
  Z"
/>
<path fill="#1a1919" d="
  M 165.69 8.47
  L 156.88 31.44
  A 0.33 0.33 0.0 0 1 156.57 31.65
  L 153.83 31.67
  A 0.33 0.33 0.0 0 1 153.52 31.22
  L 162.33 8.23
  A 0.33 0.33 0.0 0 1 162.64 8.02
  L 165.38 8.02
  A 0.33 0.33 0.0 0 1 165.69 8.47
  Z"
/>
<path fill="#1a1919" d="
  M 237.33 16.76
  Q 240.16 17.78 243.58 18.53
  C 250.24 19.99 250.89 28.39 244.74 30.71
  C 238.88 32.93 231.15 31.41 230.75 23.85
  Q 230.74 23.59 231.00 23.59
  L 234.07 23.56
  Q 234.45 23.56 234.50 23.94
  Q 235.06 28.44 240.32 28.43
  C 245.36 28.43 247.28 22.98 241.75 21.75
  Q 238.46 21.01 235.46 20.04
  C 232.23 19.00 230.79 15.60 231.97 12.49
  C 234.62 5.50 248.36 6.96 248.29 14.93
  Q 248.28 15.24 247.98 15.24
  L 244.75 15.23
  Q 244.37 15.23 244.31 14.86
  Q 243.73 11.29 239.55 11.27
  C 238.15 11.26 236.17 11.62 235.66 13.14
  Q 234.76 15.82 237.33 16.76
  Z"
/>
<path fill="#1a1919" d="
  M 81.99 23.17
  L 82.00 30.68
  Q 82.00 31.11 81.57 31.11
  L 78.62 31.11
  Q 78.02 31.11 78.02 30.51
  L 78.01 8.94
  A 0.39 0.39 0.0 0 1 78.40 8.55
  Q 82.92 8.49 88.12 8.57
  C 94.12 8.65 97.07 13.19 95.09 18.55
  C 93.41 23.09 86.83 22.73 82.81 22.41
  Q 81.99 22.35 81.99 23.17
  Z
  M 82.00 12.02
  L 81.98 18.92
  A 0.28 0.28 0.0 0 0 82.26 19.20
  L 88.21 19.22
  A 3.53 3.51 -89.8 0 0 91.73 15.71
  L 91.73 15.31
  A 3.53 3.51 -89.8 0 0 88.23 11.76
  L 82.28 11.74
  A 0.28 0.28 0.0 0 0 82.00 12.02
  Z"
/>
<path fill="#1a1919" d="
  M 114.50 29.90
  Q 114.58 31.23 115.05 29.99
  L 123.06 9.11
  Q 123.28 8.54 123.90 8.54
  L 126.83 8.53
  Q 127.46 8.53 127.69 9.11
  L 135.93 30.49
  A 0.45 0.44 -11.0 0 1 135.52 31.09
  L 132.43 31.13
  Q 131.95 31.13 131.79 30.68
  L 130.01 25.72
  Q 129.81 25.16 129.22 25.16
  L 121.46 25.18
  Q 120.80 25.18 120.58 25.80
  L 118.86 30.65
  Q 118.70 31.10 118.22 31.10
  L 99.68 31.10
  Q 99.10 31.10 99.10 30.52
  L 99.09 8.79
  Q 99.09 8.55 99.33 8.55
  L 102.78 8.53
  Q 103.03 8.53 103.03 8.78
  L 103.03 27.26
  Q 103.03 27.73 103.51 27.73
  L 113.98 27.72
  Q 114.57 27.72 114.52 28.31
  Q 114.45 29.08 114.50 29.90
  Z
  M 122.02 21.73
  A 0.31 0.31 0.0 0 0 122.32 22.15
  L 128.35 22.16
  A 0.31 0.31 0.0 0 0 128.65 21.75
  L 125.64 13.14
  A 0.31 0.31 0.0 0 0 125.06 13.14
  L 122.02 21.73
  Z"
/>
<path fill="#1a1919" d="
  M 144.22 18.21
  L 149.72 8.71
  A 0.33 0.33 0.0 0 1 150.00 8.55
  L 153.66 8.53
  A 0.33 0.33 0.0 0 1 153.94 9.04
  L 145.83 22.23
  A 0.33 0.33 0.0 0 0 145.78 22.40
  L 145.77 30.75
  A 0.33 0.33 0.0 0 1 145.44 31.08
  L 142.18 31.11
  A 0.33 0.33 0.0 0 1 141.85 30.78
  L 141.82 22.31
  A 0.33 0.33 0.0 0 0 141.77 22.14
  L 133.65 9.00
  A 0.33 0.33 0.0 0 1 133.93 8.50
  L 137.77 8.55
  A 0.33 0.33 0.0 0 1 138.05 8.71
  L 143.65 18.21
  A 0.33 0.33 0.0 0 0 144.22 18.21
  Z"
/>
<path fill="#1a1919" d="
  M 173.42 23.01
  L 173.42 30.71
  Q 173.42 31.09 173.04 31.09
  L 169.80 31.11
  Q 169.48 31.11 169.48 30.80
  L 169.48 9.04
  Q 169.48 8.53 169.99 8.53
  Q 174.47 8.49 179.21 8.57
  Q 187.93 8.72 186.91 17.15
  C 186.15 23.39 178.18 22.54 173.98 22.46
  Q 173.42 22.45 173.42 23.01
  Z
  M 173.45 12.01
  L 173.43 18.93
  A 0.28 0.28 0.0 0 0 173.71 19.21
  L 179.51 19.23
  A 3.62 3.46 0.2 0 0 183.14 15.79
  L 183.14 15.23
  A 3.62 3.46 0.2 0 0 179.53 11.75
  L 173.73 11.73
  A 0.28 0.28 0.0 0 0 173.45 12.01
  Z"
/>
<path fill="#1a1919" d="
  M 191.67 25.37
  L 189.73 30.87
  A 0.33 0.33 0.0 0 1 189.42 31.09
  L 186.05 31.11
  A 0.33 0.33 0.0 0 1 185.74 30.66
  L 194.15 8.75
  A 0.33 0.33 0.0 0 1 194.46 8.54
  L 198.18 8.54
  A 0.33 0.33 0.0 0 1 198.49 8.75
  L 206.95 30.64
  A 0.33 0.33 0.0 0 1 206.64 31.09
  L 203.13 31.12
  A 0.33 0.33 0.0 0 1 202.82 30.90
  L 200.84 25.41
  A 0.33 0.33 0.0 0 0 200.53 25.19
  L 191.98 25.15
  A 0.33 0.33 0.0 0 0 191.67 25.37
  Z
  M 192.96 21.73
  A 0.31 0.31 0.0 0 0 193.26 22.15
  L 199.29 22.16
  A 0.31 0.31 0.0 0 0 199.59 21.75
  L 196.58 13.14
  A 0.31 0.31 0.0 0 0 196.00 13.14
  L 192.96 21.73
  Z"
/>
<path fill="#1a1919" d="
  M 219.63 28.13
  C 222.82 27.71 223.61 25.03 223.58 22.28
  Q 223.51 15.46 223.56 8.93
  A 0.40 0.40 0.0 0 1 223.96 8.53
  L 227.22 8.53
  Q 227.48 8.53 227.48 8.79
  Q 227.54 14.98 227.55 21.17
  Q 227.56 25.75 226.42 27.66
  C 223.95 31.84 218.06 32.43 213.89 30.85
  C 210.25 29.48 208.95 26.11 208.98 22.46
  Q 209.03 15.87 209.00 8.98
  Q 208.99 8.54 209.44 8.53
  L 212.53 8.53
  A 0.44 0.44 0.0 0 1 212.97 8.97
  Q 213.01 15.36 212.97 22.47
  Q 212.93 29.00 219.63 28.13
  Z"
/>
<path fill="#1a1919" d="
  M 256.34 12.35
  L 256.37 17.52
  A 0.36 0.36 0.0 0 0 256.73 17.88
  L 267.38 17.89
  A 0.36 0.36 0.0 0 1 267.74 18.25
  L 267.74 20.72
  A 0.36 0.36 0.0 0 1 267.38 21.08
  L 256.71 21.09
  A 0.36 0.36 0.0 0 0 256.35 21.45
  L 256.37 27.37
  A 0.36 0.36 0.0 0 0 256.73 27.73
  L 268.52 27.73
  A 0.36 0.36 0.0 0 1 268.88 28.09
  L 268.86 30.73
  A 0.36 0.36 0.0 0 1 268.50 31.09
  L 252.80 31.11
  A 0.36 0.36 0.0 0 1 252.44 30.75
  L 252.44 8.89
  A 0.36 0.36 0.0 0 1 252.80 8.53
  L 268.30 8.53
  A 0.36 0.36 0.0 0 1 268.66 8.89
  L 268.68 11.62
  A 0.36 0.36 0.0 0 1 268.32 11.98
  L 256.70 11.99
  A 0.36 0.36 0.0 0 0 256.34 12.35
  Z"
/>
<path fill="#ffffff" d="
  M 82.00 12.02
  A 0.28 0.28 0.0 0 1 82.28 11.74
  L 88.23 11.76
  A 3.53 3.51 -89.8 0 1 91.73 15.31
  L 91.73 15.71
  A 3.53 3.51 -89.8 0 1 88.21 19.22
  L 82.26 19.20
  A 0.28 0.28 0.0 0 1 81.98 18.92
  L 82.00 12.02
  Z"
/>
<path fill="#ffffff" d="
  M 173.45 12.01
  A 0.28 0.28 0.0 0 1 173.73 11.73
  L 179.53 11.75
  A 3.62 3.46 0.2 0 1 183.14 15.23
  L 183.14 15.79
  A 3.62 3.46 0.2 0 1 179.51 19.23
  L 173.71 19.21
  A 0.28 0.28 0.0 0 1 173.43 18.93
  L 173.45 12.01
  Z"
/>
<path fill="#ffffff" d="
  M 122.02 21.73
  L 125.06 13.14
  A 0.31 0.31 0.0 0 1 125.64 13.14
  L 128.65 21.75
  A 0.31 0.31 0.0 0 1 128.35 22.16
  L 122.32 22.15
  A 0.31 0.31 0.0 0 1 122.02 21.73
  Z"
/>
<path fill="#ffffff" d="
  M 192.96 21.73
  L 196.00 13.14
  A 0.31 0.31 0.0 0 1 196.58 13.14
  L 199.59 21.75
  A 0.31 0.31 0.0 0 1 199.29 22.16
  L 193.26 22.15
  A 0.31 0.31 0.0 0 1 192.96 21.73
  Z"
/>
<path fill="#1a1919" d="
  M 340.83 204.89
  A 164.23 164.23 0.0 0 1 176.60 369.12
  A 164.23 164.23 0.0 0 1 12.37 204.89
  A 164.23 164.23 0.0 0 1 176.60 40.66
  A 164.23 164.23 0.0 0 1 340.83 204.89
  Z
  M 337.67 204.89
  A 161.07 161.07 0.0 0 0 176.60 43.82
  A 161.07 161.07 0.0 0 0 15.53 204.89
  A 161.07 161.07 0.0 0 0 176.60 365.96
  A 161.07 161.07 0.0 0 0 337.67 204.89
  Z"
/>
<path fill="#ffffff" d="
  M 337.67 204.89
  A 161.07 161.07 0.0 0 1 176.60 365.96
  A 161.07 161.07 0.0 0 1 15.53 204.89
  A 161.07 161.07 0.0 0 1 176.60 43.82
  A 161.07 161.07 0.0 0 1 337.67 204.89
  Z
  M 318.29 204.89
  A 141.69 141.69 0.0 0 0 176.60 63.20
  A 141.69 141.69 0.0 0 0 34.91 204.89
  A 141.69 141.69 0.0 0 0 176.60 346.58
  A 141.69 141.69 0.0 0 0 318.29 204.89
  Z"
/>
<path fill="#1a1919" d="
  M 318.29 204.89
  A 141.69 141.69 0.0 0 1 176.60 346.58
  A 141.69 141.69 0.0 0 1 34.91 204.89
  A 141.69 141.69 0.0 0 1 176.60 63.20
  A 141.69 141.69 0.0 0 1 318.29 204.89
  Z
  M 315.13 204.89
  A 138.53 138.53 0.0 0 0 176.60 66.36
  A 138.53 138.53 0.0 0 0 38.07 204.89
  A 138.53 138.53 0.0 0 0 176.60 343.42
  A 138.53 138.53 0.0 0 0 315.13 204.89
  Z"
/>
<path fill="#ffffff" d="
  M 315.13 204.89
  A 138.53 138.53 0.0 0 1 176.60 343.42
  A 138.53 138.53 0.0 0 1 38.07 204.89
  A 138.53 138.53 0.0 0 1 176.60 66.36
  A 138.53 138.53 0.0 0 1 315.13 204.89
  Z
  M 210.01 185.60
  A 0.38 0.38 0.0 0 0 209.63 185.22
  L 201.41 185.22
  A 0.38 0.38 0.0 0 0 201.03 185.60
  L 201.03 223.86
  A 0.38 0.38 0.0 0 0 201.41 224.24
  L 209.63 224.24
  A 0.38 0.38 0.0 0 0 210.01 223.86
  L 210.01 185.60
  Z
  M 226.07 185.58
  A 0.36 0.36 0.0 0 0 225.71 185.22
  L 217.49 185.22
  A 0.36 0.36 0.0 0 0 217.13 185.58
  L 217.13 223.88
  A 0.36 0.36 0.0 0 0 217.49 224.24
  L 225.71 224.24
  A 0.36 0.36 0.0 0 0 226.07 223.88
  L 226.07 185.58
  Z
  M 127.68 185.73
  A 0.31 0.31 0.0 0 0 127.25 186.01
  L 127.25 224.13
  A 0.31 0.31 0.0 0 0 127.68 224.41
  L 173.75 205.36
  A 0.31 0.31 0.0 0 0 173.75 204.78
  L 127.68 185.73
  Z"
/>
<rect fill="#1a1919" x="201.03" y="185.22" width="8.98" height="39.02" rx="0.38"/>
<rect fill="#1a1919" x="217.13" y="185.22" width="8.94" height="39.02" rx="0.36"/>
<path fill="#1a1919" d="
  M 127.68 185.73
  L 173.75 204.78
  A 0.31 0.31 0.0 0 1 173.75 205.36
  L 127.68 224.41
  A 0.31 0.31 0.0 0 1 127.25 224.13
  L 127.25 186.01
  A 0.31 0.31 0.0 0 1 127.68 185.73
  Z"
/>
</svg>
