<?xml version="1.0" encoding="UTF-8" standalone="no"?>
<!DOCTYPE svg PUBLIC "-//W3C//DTD SVG 1.1//EN" "http://www.w3.org/Graphics/SVG/1.1/DTD/svg11.dtd">
<svg xmlns="http://www.w3.org/2000/svg" version="1.1" viewBox="0.00 0.00 564.00 564.00">
<g stroke-width="2.00" fill="none" stroke-linecap="butt">
<path stroke="#8c8c8c" vector-effect="non-scaling-stroke" d="
  M 255.26 541.68
  C 271.30 521.91 300.60 525.21 312.41 547.78
  C 317.67 557.83 328.05 562.47 339.11 560.39
  Q 350.00 558.35 364.85 554.00
  Q 371.68 552.01 375.71 549.90
  C 384.77 545.17 388.75 536.00 388.28 525.86
  Q 388.06 521.04 389.44 516.10
  C 395.05 496.08 416.21 485.66 435.65 493.96
  C 439.61 495.65 443.07 498.65 447.14 499.82
  Q 460.34 503.64 470.60 494.74
  Q 479.72 486.83 491.90 473.80
  Q 497.53 467.79 499.25 462.84
  C 501.86 455.33 500.78 447.61 496.40 441.03
  C 488.20 428.71 489.29 413.22 497.75 401.88
  Q 505.19 391.90 518.22 389.16
  C 521.59 388.45 524.98 388.45 528.39 388.50
  C 540.51 388.65 548.91 380.63 552.32 369.58
  Q 556.91 354.66 559.96 340.28
  Q 563.01 325.93 552.68 316.28
  C 550.64 314.37 548.01 312.98 545.62 311.60
  C 523.71 298.96 522.44 268.31 543.47 254.06
  C 546.65 251.90 550.23 250.36 553.01 247.69
  Q 562.94 238.19 559.96 223.85
  Q 557.73 213.08 553.77 199.25
  Q 551.73 192.12 549.58 188.11
  C 545.82 181.09 538.10 175.97 529.71 175.80
  C 525.19 175.72 520.77 175.89 516.47 174.72
  C 495.97 169.11 485.52 148.55 493.58 128.61
  C 495.27 124.41 498.19 121.11 499.57 116.71
  Q 501.98 109.04 499.26 101.32
  C 497.66 96.78 494.67 93.35 491.38 89.85
  Q 483.96 81.95 475.70 74.06
  Q 467.86 66.58 463.04 64.88
  C 455.48 62.21 447.86 63.03 441.27 67.32
  C 417.04 83.08 386.90 65.24 388.23 36.93
  C 388.80 24.87 381.58 15.66 370.09 11.95
  Q 356.56 7.59 340.78 4.13
  Q 326.12 0.91 316.45 10.80
  C 312.90 14.43 311.02 19.53 307.68 23.48
  C 291.93 42.14 262.83 38.60 251.58 16.93
  C 246.28 6.70 236.03 1.73 224.84 3.83
  Q 210.39 6.54 193.14 12.11
  C 180.98 16.03 174.92 25.87 175.42 38.33
  Q 175.64 43.71 174.26 48.30
  C 168.16 68.60 147.57 78.54 127.74 70.12
  C 123.84 68.46 120.55 65.62 116.41 64.39
  C 105.57 61.15 97.26 65.13 89.16 72.94
  Q 80.48 81.33 72.18 90.03
  Q 66.20 96.31 64.42 101.57
  Q 61.48 110.26 64.91 118.77
  C 66.29 122.20 68.74 125.12 70.10 128.61
  Q 77.48 147.45 65.63 162.80
  C 58.63 171.87 47.89 176.30 36.18 175.77
  C 24.27 175.24 15.10 182.90 11.70 193.87
  C 8.52 204.13 5.57 214.67 3.63 224.92
  Q 0.96 239.02 11.55 248.43
  C 13.56 250.21 16.15 251.53 18.49 252.90
  C 40.02 265.55 41.14 295.80 20.49 310.05
  C 17.11 312.39 13.26 313.98 10.39 316.87
  Q 0.87 326.47 3.74 340.14
  Q 5.69 349.42 8.44 359.70
  Q 11.91 372.64 14.76 377.25
  C 19.34 384.65 27.62 388.91 36.49 388.52
  C 52.19 387.83 65.12 396.24 70.76 410.54
  C 74.21 419.30 73.55 430.75 68.21 439.52
  C 66.54 442.28 64.74 445.06 63.96 448.17
  Q 60.70 461.04 69.10 470.70
  Q 76.43 479.14 88.84 490.96
  Q 95.99 497.77 101.05 499.51
  C 107.94 501.88 115.92 501.33 122.04 497.23
  C 145.52 481.53 175.85 497.71 175.52 525.94
  Q 175.45 531.82 176.07 534.14
  Q 179.57 547.32 191.74 551.57
  Q 207.04 556.92 224.14 560.30
  Q 238.20 563.08 247.59 553.05
  C 250.69 549.73 252.36 545.24 255.26 541.68"
/>
<path stroke="#8c8c8c" vector-effect="non-scaling-stroke" d="
  M 277.25 281.89
  L 277.25 54.30
  Q 277.25 53.84 276.80 53.79
  Q 252.64 50.88 238.68 31.11
  Q 237.10 28.87 235.82 26.30
  C 234.66 24.00 232.12 23.03 230.01 21.89
  Q 229.53 21.63 229.00 21.74
  Q 213.06 24.97 198.12 29.86
  Q 197.62 30.02 197.31 30.45
  L 194.25 34.75
  Q 193.92 35.20 193.94 35.77
  C 194.54 56.21 185.55 74.07 167.85 84.58
  C 150.66 94.78 129.65 93.53 112.80 82.93
  Q 110.59 81.54 108.31 82.08
  Q 105.88 82.65 103.86 84.52
  Q 93.16 94.43 84.55 103.90
  Q 82.80 105.83 82.00 107.99
  Q 81.10 110.43 82.54 112.74
  C 106.11 150.19 79.45 195.59 35.63 194.17
  A 1.95 1.89 -61.8 0 0 34.43 194.55
  C 32.64 195.90 30.00 197.08 29.26 199.41
  Q 24.34 215.02 21.59 228.80
  Q 21.35 229.97 21.97 231.05
  C 22.98 232.81 23.96 234.89 25.82 235.89
  C 62.79 255.89 63.07 308.09 26.15 328.14
  C 23.81 329.42 22.84 331.68 21.65 333.89
  A 1.65 1.61 54.5 0 0 21.48 334.98
  Q 24.22 348.89 29.26 364.96
  C 29.93 367.08 32.68 368.47 34.36 369.68
  A 2.22 2.21 61.6 0 0 35.69 370.08
  Q 57.89 369.40 73.78 383.28
  C 82.14 390.58 88.43 401.41 90.44 412.52
  Q 94.09 432.75 82.88 450.94
  Q 80.14 455.39 83.57 459.24
  Q 91.39 468.06 104.15 479.93
  Q 106.08 481.73 108.18 482.20
  Q 110.57 482.72 112.78 481.33
  C 129.86 470.60 150.82 469.46 168.14 479.85
  C 185.69 490.38 194.47 508.12 193.96 528.53
  A 1.63 1.58 -63.1 0 0 194.26 529.50
  L 197.29 533.69
  A 2.00 1.95 80.6 0 0 198.28 534.42
  Q 213.25 539.33 228.98 542.48
  Q 229.59 542.60 230.13 542.31
  C 232.33 541.10 234.47 540.23 235.77 537.90
  C 246.99 517.85 268.55 507.05 291.16 511.13
  Q 311.77 514.85 324.90 532.87
  Q 326.59 535.18 327.85 537.72
  C 329.00 540.06 331.43 541.12 333.58 542.33
  Q 334.11 542.63 334.72 542.51
  Q 350.63 539.29 365.48 534.46
  Q 366.08 534.26 366.45 533.75
  L 369.43 529.68
  Q 369.76 529.23 369.75 528.67
  C 369.73 524.57 369.85 520.37 370.57 516.34
  C 374.23 495.80 388.96 479.30 409.26 474.21
  Q 430.33 468.92 450.56 481.05
  C 453.47 482.79 456.22 482.79 458.96 480.42
  Q 467.40 473.08 479.44 460.08
  C 481.67 457.66 483.04 454.44 481.08 451.32
  C 470.92 435.06 469.37 415.51 478.04 398.72
  C 487.87 379.69 506.63 369.40 528.24 370.07
  Q 528.78 370.09 529.21 369.78
  L 533.49 366.67
  Q 533.91 366.36 534.07 365.87
  Q 539.02 350.79 542.25 335.00
  A 1.58 1.55 36.3 0 0 542.07 333.90
  C 540.95 331.92 540.03 329.61 537.93 328.41
  Q 521.44 319.07 514.78 303.86
  Q 503.75 278.63 517.81 254.74
  Q 524.48 243.40 537.70 236.04
  C 539.98 234.77 540.94 232.49 542.07 230.35
  A 1.81 1.77 -37.4 0 0 542.24 229.18
  Q 539.02 213.41 534.13 198.48
  Q 533.96 197.96 533.52 197.63
  L 529.27 194.47
  Q 528.86 194.16 528.35 194.18
  Q 506.87 194.95 491.26 182.08
  C 471.16 165.51 466.47 136.38 480.37 114.22
  Q 481.56 112.32 481.95 110.35
  Q 482.46 107.73 480.47 105.44
  Q 471.77 95.41 459.31 84.15
  Q 455.11 80.37 450.56 83.19
  C 420.25 101.98 381.79 87.71 371.82 53.54
  Q 369.58 45.87 369.77 35.79
  Q 369.78 35.22 369.45 34.76
  L 366.45 30.56
  A 1.94 1.92 81.4 0 0 365.47 29.83
  Q 350.42 24.90 334.85 21.76
  Q 334.18 21.63 333.59 21.96
  C 331.36 23.19 329.12 24.00 327.88 26.46
  Q 326.63 28.94 325.05 31.16
  Q 311.05 50.87 286.96 53.79
  Q 286.49 53.85 286.49 54.31
  L 286.49 281.93
  Q 286.49 282.10 286.32 282.10
  L 277.46 282.10
  Q 277.25 282.10 277.25 281.89"
/>
</g>
<path fill="#ffffff" d="
  M 0.00 0.00
  L 564.00 0.00
  L 564.00 564.00
  L 0.00 564.00
  L 0.00 0.00
  Z
  M 255.26 541.68
  C 271.30 521.91 300.60 525.21 312.41 547.78
  C 317.67 557.83 328.05 562.47 339.11 560.39
  Q 350.00 558.35 364.85 554.00
  Q 371.68 552.01 375.71 549.90
  C 384.77 545.17 388.75 536.00 388.28 525.86
  Q 388.06 521.04 389.44 516.10
  C 395.05 496.08 416.21 485.66 435.65 493.96
  C 439.61 495.65 443.07 498.65 447.14 499.82
  Q 460.34 503.64 470.60 494.74
  Q 479.72 486.83 491.90 473.80
  Q 497.53 467.79 499.25 462.84
  C 501.86 455.33 500.78 447.61 496.40 441.03
  C 488.20 428.71 489.29 413.22 497.75 401.88
  Q 505.19 391.90 518.22 389.16
  C 521.59 388.45 524.98 388.45 528.39 388.50
  C 540.51 388.65 548.91 380.63 552.32 369.58
  Q 556.91 354.66 559.96 340.28
  Q 563.01 325.93 552.68 316.28
  C 550.64 314.37 548.01 312.98 545.62 311.60
  C 523.71 298.96 522.44 268.31 543.47 254.06
  C 546.65 251.90 550.23 250.36 553.01 247.69
  Q 562.94 238.19 559.96 223.85
  Q 557.73 213.08 553.77 199.25
  Q 551.73 192.12 549.58 188.11
  C 545.82 181.09 538.10 175.97 529.71 175.80
  C 525.19 175.72 520.77 175.89 516.47 174.72
  C 495.97 169.11 485.52 148.55 493.58 128.61
  C 495.27 124.41 498.19 121.11 499.57 116.71
  Q 501.98 109.04 499.26 101.32
  C 497.66 96.78 494.67 93.35 491.38 89.85
  Q 483.96 81.95 475.70 74.06
  Q 467.86 66.58 463.04 64.88
  C 455.48 62.21 447.86 63.03 441.27 67.32
  C 417.04 83.08 386.90 65.24 388.23 36.93
  C 388.80 24.87 381.58 15.66 370.09 11.95
  Q 356.56 7.59 340.78 4.13
  Q 326.12 0.91 316.45 10.80
  C 312.90 14.43 311.02 19.53 307.68 23.48
  C 291.93 42.14 262.83 38.60 251.58 16.93
  C 246.28 6.70 236.03 1.73 224.84 3.83
  Q 210.39 6.54 193.14 12.11
  C 180.98 16.03 174.92 25.87 175.42 38.33
  Q 175.64 43.71 174.26 48.30
  C 168.16 68.60 147.57 78.54 127.74 70.12
  C 123.84 68.46 120.55 65.62 116.41 64.39
  C 105.57 61.15 97.26 65.13 89.16 72.94
  Q 80.48 81.33 72.18 90.03
  Q 66.20 96.31 64.42 101.57
  Q 61.48 110.26 64.91 118.77
  C 66.29 122.20 68.74 125.12 70.10 128.61
  Q 77.48 147.45 65.63 162.80
  C 58.63 171.87 47.89 176.30 36.18 175.77
  C 24.27 175.24 15.10 182.90 11.70 193.87
  C 8.52 204.13 5.57 214.67 3.63 224.92
  Q 0.96 239.02 11.55 248.43
  C 13.56 250.21 16.15 251.53 18.49 252.90
  C 40.02 265.55 41.14 295.80 20.49 310.05
  C 17.11 312.39 13.26 313.98 10.39 316.87
  Q 0.87 326.47 3.74 340.14
  Q 5.69 349.42 8.44 359.70
  Q 11.91 372.64 14.76 377.25
  C 19.34 384.65 27.62 388.91 36.49 388.52
  C 52.19 387.83 65.12 396.24 70.76 410.54
  C 74.21 419.30 73.55 430.75 68.21 439.52
  C 66.54 442.28 64.74 445.06 63.96 448.17
  Q 60.70 461.04 69.10 470.70
  Q 76.43 479.14 88.84 490.96
  Q 95.99 497.77 101.05 499.51
  C 107.94 501.88 115.92 501.33 122.04 497.23
  C 145.52 481.53 175.85 497.71 175.52 525.94
  Q 175.45 531.82 176.07 534.14
  Q 179.57 547.32 191.74 551.57
  Q 207.04 556.92 224.14 560.30
  Q 238.20 563.08 247.59 553.05
  C 250.69 549.73 252.36 545.24 255.26 541.68
  Z"
/>
<path fill="#191919" d="
  M 312.41 547.78
  C 300.60 525.21 271.30 521.91 255.26 541.68
  C 252.36 545.24 250.69 549.73 247.59 553.05
  Q 238.20 563.08 224.14 560.30
  Q 207.04 556.92 191.74 551.57
  Q 179.57 547.32 176.07 534.14
  Q 175.45 531.82 175.52 525.94
  C 175.85 497.71 145.52 481.53 122.04 497.23
  C 115.92 501.33 107.94 501.88 101.05 499.51
  Q 95.99 497.77 88.84 490.96
  Q 76.43 479.14 69.10 470.70
  Q 60.70 461.04 63.96 448.17
  C 64.74 445.06 66.54 442.28 68.21 439.52
  C 73.55 430.75 74.21 419.30 70.76 410.54
  C 65.12 396.24 52.19 387.83 36.49 388.52
  C 27.62 388.91 19.34 384.65 14.76 377.25
  Q 11.91 372.64 8.44 359.70
  Q 5.69 349.42 3.74 340.14
  Q 0.87 326.47 10.39 316.87
  C 13.26 313.98 17.11 312.39 20.49 310.05
  C 41.14 295.80 40.02 265.55 18.49 252.90
  C 16.15 251.53 13.56 250.21 11.55 248.43
  Q 0.96 239.02 3.63 224.92
  C 5.57 214.67 8.52 204.13 11.70 193.87
  C 15.10 182.90 24.27 175.24 36.18 175.77
  C 47.89 176.30 58.63 171.87 65.63 162.80
  Q 77.48 147.45 70.10 128.61
  C 68.74 125.12 66.29 122.20 64.91 118.77
  Q 61.48 110.26 64.42 101.57
  Q 66.20 96.31 72.18 90.03
  Q 80.48 81.33 89.16 72.94
  C 97.26 65.13 105.57 61.15 116.41 64.39
  C 120.55 65.62 123.84 68.46 127.74 70.12
  C 147.57 78.54 168.16 68.60 174.26 48.30
  Q 175.64 43.71 175.42 38.33
  C 174.92 25.87 180.98 16.03 193.14 12.11
  Q 210.39 6.54 224.84 3.83
  C 236.03 1.73 246.28 6.70 251.58 16.93
  C 262.83 38.60 291.93 42.14 307.68 23.48
  C 311.02 19.53 312.90 14.43 316.45 10.80
  Q 326.12 0.91 340.78 4.13
  Q 356.56 7.59 370.09 11.95
  C 381.58 15.66 388.80 24.87 388.23 36.93
  C 386.90 65.24 417.04 83.08 441.27 67.32
  C 447.86 63.03 455.48 62.21 463.04 64.88
  Q 467.86 66.58 475.70 74.06
  Q 483.96 81.95 491.38 89.85
  C 494.67 93.35 497.66 96.78 499.26 101.32
  Q 501.98 109.04 499.57 116.71
  C 498.19 121.11 495.27 124.41 493.58 128.61
  C 485.52 148.55 495.97 169.11 516.47 174.72
  C 520.77 175.89 525.19 175.72 529.71 175.80
  C 538.10 175.97 545.82 181.09 549.58 188.11
  Q 551.73 192.12 553.77 199.25
  Q 557.73 213.08 559.96 223.85
  Q 562.94 238.19 553.01 247.69
  C 550.23 250.36 546.65 251.90 543.47 254.06
  C 522.44 268.31 523.71 298.96 545.62 311.60
  C 548.01 312.98 550.64 314.37 552.68 316.28
  Q 563.01 325.93 559.96 340.28
  Q 556.91 354.66 552.32 369.58
  C 548.91 380.63 540.51 388.65 528.39 388.50
  C 524.98 388.45 521.59 388.45 518.22 389.16
  Q 505.19 391.90 497.75 401.88
  C 489.29 413.22 488.20 428.71 496.40 441.03
  C 500.78 447.61 501.86 455.33 499.25 462.84
  Q 497.53 467.79 491.90 473.80
  Q 479.72 486.83 470.60 494.74
  Q 460.34 503.64 447.14 499.82
  C 443.07 498.65 439.61 495.65 435.65 493.96
  C 416.21 485.66 395.05 496.08 389.44 516.10
  Q 388.06 521.04 388.28 525.86
  C 388.75 536.00 384.77 545.17 375.71 549.90
  Q 371.68 552.01 364.85 554.00
  Q 350.00 558.35 339.11 560.39
  C 328.05 562.47 317.67 557.83 312.41 547.78
  Z
  M 277.25 281.89
  L 277.25 54.30
  Q 277.25 53.84 276.80 53.79
  Q 252.64 50.88 238.68 31.11
  Q 237.10 28.87 235.82 26.30
  C 234.66 24.00 232.12 23.03 230.01 21.89
  Q 229.53 21.63 229.00 21.74
  Q 213.06 24.97 198.12 29.86
  Q 197.62 30.02 197.31 30.45
  L 194.25 34.75
  Q 193.92 35.20 193.94 35.77
  C 194.54 56.21 185.55 74.07 167.85 84.58
  C 150.66 94.78 129.65 93.53 112.80 82.93
  Q 110.59 81.54 108.31 82.08
  Q 105.88 82.65 103.86 84.52
  Q 93.16 94.43 84.55 103.90
  Q 82.80 105.83 82.00 107.99
  Q 81.10 110.43 82.54 112.74
  C 106.11 150.19 79.45 195.59 35.63 194.17
  A 1.95 1.89 -61.8 0 0 34.43 194.55
  C 32.64 195.90 30.00 197.08 29.26 199.41
  Q 24.34 215.02 21.59 228.80
  Q 21.35 229.97 21.97 231.05
  C 22.98 232.81 23.96 234.89 25.82 235.89
  C 62.79 255.89 63.07 308.09 26.15 328.14
  C 23.81 329.42 22.84 331.68 21.65 333.89
  A 1.65 1.61 54.5 0 0 21.48 334.98
  Q 24.22 348.89 29.26 364.96
  C 29.93 367.08 32.68 368.47 34.36 369.68
  A 2.22 2.21 61.6 0 0 35.69 370.08
  Q 57.89 369.40 73.78 383.28
  C 82.14 390.58 88.43 401.41 90.44 412.52
  Q 94.09 432.75 82.88 450.94
  Q 80.14 455.39 83.57 459.24
  Q 91.39 468.06 104.15 479.93
  Q 106.08 481.73 108.18 482.20
  Q 110.57 482.72 112.78 481.33
  C 129.86 470.60 150.82 469.46 168.14 479.85
  C 185.69 490.38 194.47 508.12 193.96 528.53
  A 1.63 1.58 -63.1 0 0 194.26 529.50
  L 197.29 533.69
  A 2.00 1.95 80.6 0 0 198.28 534.42
  Q 213.25 539.33 228.98 542.48
  Q 229.59 542.60 230.13 542.31
  C 232.33 541.10 234.47 540.23 235.77 537.90
  C 246.99 517.85 268.55 507.05 291.16 511.13
  Q 311.77 514.85 324.90 532.87
  Q 326.59 535.18 327.85 537.72
  C 329.00 540.06 331.43 541.12 333.58 542.33
  Q 334.11 542.63 334.72 542.51
  Q 350.63 539.29 365.48 534.46
  Q 366.08 534.26 366.45 533.75
  L 369.43 529.68
  Q 369.76 529.23 369.75 528.67
  C 369.73 524.57 369.85 520.37 370.57 516.34
  C 374.23 495.80 388.96 479.30 409.26 474.21
  Q 430.33 468.92 450.56 481.05
  C 453.47 482.79 456.22 482.79 458.96 480.42
  Q 467.40 473.08 479.44 460.08
  C 481.67 457.66 483.04 454.44 481.08 451.32
  C 470.92 435.06 469.37 415.51 478.04 398.72
  C 487.87 379.69 506.63 369.40 528.24 370.07
  Q 528.78 370.09 529.21 369.78
  L 533.49 366.67
  Q 533.91 366.36 534.07 365.87
  Q 539.02 350.79 542.25 335.00
  A 1.58 1.55 36.3 0 0 542.07 333.90
  C 540.95 331.92 540.03 329.61 537.93 328.41
  Q 521.44 319.07 514.78 303.86
  Q 503.75 278.63 517.81 254.74
  Q 524.48 243.40 537.70 236.04
  C 539.98 234.77 540.94 232.49 542.07 230.35
  A 1.81 1.77 -37.4 0 0 542.24 229.18
  Q 539.02 213.41 534.13 198.48
  Q 533.96 197.96 533.52 197.63
  L 529.27 194.47
  Q 528.86 194.16 528.35 194.18
  Q 506.87 194.95 491.26 182.08
  C 471.16 165.51 466.47 136.38 480.37 114.22
  Q 481.56 112.32 481.95 110.35
  Q 482.46 107.73 480.47 105.44
  Q 471.77 95.41 459.31 84.15
  Q 455.11 80.37 450.56 83.19
  C 420.25 101.98 381.79 87.71 371.82 53.54
  Q 369.58 45.87 369.77 35.79
  Q 369.78 35.22 369.45 34.76
  L 366.45 30.56
  A 1.94 1.92 81.4 0 0 365.47 29.83
  Q 350.42 24.90 334.85 21.76
  Q 334.18 21.63 333.59 21.96
  C 331.36 23.19 329.12 24.00 327.88 26.46
  Q 326.63 28.94 325.05 31.16
  Q 311.05 50.87 286.96 53.79
  Q 286.49 53.85 286.49 54.31
  L 286.49 281.93
  Q 286.49 282.10 286.32 282.10
  L 277.46 282.10
  Q 277.25 282.10 277.25 281.89
  Z"
/>
<path fill="#ffffff" d="
  M 277.25 281.89
  Q 277.25 282.10 277.46 282.10
  L 286.32 282.10
  Q 286.49 282.10 286.49 281.93
  L 286.49 54.31
  Q 286.49 53.85 286.96 53.79
  Q 311.05 50.87 325.05 31.16
  Q 326.63 28.94 327.88 26.46
  C 329.12 24.00 331.36 23.19 333.59 21.96
  Q 334.18 21.63 334.85 21.76
  Q 350.42 24.90 365.47 29.83
  A 1.94 1.92 81.4 0 1 366.45 30.56
  L 369.45 34.76
  Q 369.78 35.22 369.77 35.79
  Q 369.58 45.87 371.82 53.54
  C 381.79 87.71 420.25 101.98 450.56 83.19
  Q 455.11 80.37 459.31 84.15
  Q 471.77 95.41 480.47 105.44
  Q 482.46 107.73 481.95 110.35
  Q 481.56 112.32 480.37 114.22
  C 466.47 136.38 471.16 165.51 491.26 182.08
  Q 506.87 194.95 528.35 194.18
  Q 528.86 194.16 529.27 194.47
  L 533.52 197.63
  Q 533.96 197.96 534.13 198.48
  Q 539.02 213.41 542.24 229.18
  A 1.81 1.77 -37.4 0 1 542.07 230.35
  C 540.94 232.49 539.98 234.77 537.70 236.04
  Q 524.48 243.40 517.81 254.74
  Q 503.75 278.63 514.78 303.86
  Q 521.44 319.07 537.93 328.41
  C 540.03 329.61 540.95 331.92 542.07 333.90
  A 1.58 1.55 36.3 0 1 542.25 335.00
  Q 539.02 350.79 534.07 365.87
  Q 533.91 366.36 533.49 366.67
  L 529.21 369.78
  Q 528.78 370.09 528.24 370.07
  C 506.63 369.40 487.87 379.69 478.04 398.72
  C 469.37 415.51 470.92 435.06 481.08 451.32
  C 483.04 454.44 481.67 457.66 479.44 460.08
  Q 467.40 473.08 458.96 480.42
  C 456.22 482.79 453.47 482.79 450.56 481.05
  Q 430.33 468.92 409.26 474.21
  C 388.96 479.30 374.23 495.80 370.57 516.34
  C 369.85 520.37 369.73 524.57 369.75 528.67
  Q 369.76 529.23 369.43 529.68
  L 366.45 533.75
  Q 366.08 534.26 365.48 534.46
  Q 350.63 539.29 334.72 542.51
  Q 334.11 542.63 333.58 542.33
  C 331.43 541.12 329.00 540.06 327.85 537.72
  Q 326.59 535.18 324.90 532.87
  Q 311.77 514.85 291.16 511.13
  C 268.55 507.05 246.99 517.85 235.77 537.90
  C 234.47 540.23 232.33 541.10 230.13 542.31
  Q 229.59 542.60 228.98 542.48
  Q 213.25 539.33 198.28 534.42
  A 2.00 1.95 80.6 0 1 197.29 533.69
  L 194.26 529.50
  A 1.63 1.58 -63.1 0 1 193.96 528.53
  C 194.47 508.12 185.69 490.38 168.14 479.85
  C 150.82 469.46 129.86 470.60 112.78 481.33
  Q 110.57 482.72 108.18 482.20
  Q 106.08 481.73 104.15 479.93
  Q 91.39 468.06 83.57 459.24
  Q 80.14 455.39 82.88 450.94
  Q 94.09 432.75 90.44 412.52
  C 88.43 401.41 82.14 390.58 73.78 383.28
  Q 57.89 369.40 35.69 370.08
  A 2.22 2.21 61.6 0 1 34.36 369.68
  C 32.68 368.47 29.93 367.08 29.26 364.96
  Q 24.22 348.89 21.48 334.98
  A 1.65 1.61 54.5 0 1 21.65 333.89
  C 22.84 331.68 23.81 329.42 26.15 328.14
  C 63.07 308.09 62.79 255.89 25.82 235.89
  C 23.96 234.89 22.98 232.81 21.97 231.05
  Q 21.35 229.97 21.59 228.80
  Q 24.34 215.02 29.26 199.41
  C 30.00 197.08 32.64 195.90 34.43 194.55
  A 1.95 1.89 -61.8 0 1 35.63 194.17
  C 79.45 195.59 106.11 150.19 82.54 112.74
  Q 81.10 110.43 82.00 107.99
  Q 82.80 105.83 84.55 103.90
  Q 93.16 94.43 103.86 84.52
  Q 105.88 82.65 108.31 82.08
  Q 110.59 81.54 112.80 82.93
  C 129.65 93.53 150.66 94.78 167.85 84.58
  C 185.55 74.07 194.54 56.21 193.94 35.77
  Q 193.92 35.20 194.25 34.75
  L 197.31 30.45
  Q 197.62 30.02 198.12 29.86
  Q 213.06 24.97 229.00 21.74
  Q 229.53 21.63 230.01 21.89
  C 232.12 23.03 234.66 24.00 235.82 26.30
  Q 237.10 28.87 238.68 31.11
  Q 252.64 50.88 276.80 53.79
  Q 277.25 53.84 277.25 54.30
  L 277.25 281.89
  Z"
/>
</svg>
